<svg xmlns="http://www.w3.org/2000/svg" width="26" height="29.889" viewBox="0 0 26 29.889">
  <g id="Group_795" data-name="Group 795" transform="translate(1015 6696)">
    <g id="Group_794" data-name="Group 794" transform="translate(-1015 -6696)">
      <path id="Path_3097" data-name="Path 3097" d="M42.408,62.561l-3.045-5.1a1.654,1.654,0,0,0-1.368-.787h0a1.567,1.567,0,0,0-1.368.787L35.771,58.9l-1.882-3.113A1.654,1.654,0,0,0,32.521,55h0a1.567,1.567,0,0,0-1.368.787l-4.105,6.774a1.6,1.6,0,0,0,1.368,2.429H41.005a1.624,1.624,0,0,0,1.4-.821,1.447,1.447,0,0,0,0-1.608Zm-14.061.753,4.037-6.774a.132.132,0,0,1,.239,0l2.5,4.174a.737.737,0,0,0,1.266,0l1.471-2.463a.132.132,0,0,1,.239,0l3.045,5.063c.068.1,0,.205-.137.205H28.45A.125.125,0,0,1,28.347,63.313Z" transform="translate(-21.745 -38.039)"/>
      <path id="Path_3098" data-name="Path 3098" d="M50.839,44.611a2.805,2.805,0,0,0,0-5.611,2.805,2.805,0,1,0,0,5.611Zm0-4.139a1.334,1.334,0,1,1-1.334,1.334A1.294,1.294,0,0,1,50.839,40.471Z" transform="translate(-35.684 -27.513)"/>
      <path id="Path_3099" data-name="Path 3099" d="M37.247,10.082l-7.492-6.89A2.659,2.659,0,0,0,27.976,2.5H14.532a2.6,2.6,0,0,0-1.779.692A2.2,2.2,0,0,0,12,4.828V30.061a2.431,2.431,0,0,0,2.532,2.328H35.468A2.431,2.431,0,0,0,38,30.061V11.718A2.251,2.251,0,0,0,37.247,10.082Zm-1.437.566H30.268A1.1,1.1,0,0,1,29.139,9.61V4.545Zm-.342,20.388H14.532a1.026,1.026,0,0,1-1.061-.975V4.828a.937.937,0,0,1,.308-.692,1.111,1.111,0,0,1,.753-.283H27.668V9.61A2.5,2.5,0,0,0,30.268,12h6.261V30.061A1.026,1.026,0,0,1,35.468,31.036Z" transform="translate(-12 -2.5)"/>
    </g>
  </g>
</svg>
