<svg xmlns="http://www.w3.org/2000/svg" width="26" height="29.889" viewBox="0 0 26 29.889">
  <g id="Group_794" data-name="Group 794" transform="translate(0.064)">
    <g id="Group_796" data-name="Group 796">
      <path id="Path_3099" data-name="Path 3099" d="M37.247,10.082l-7.492-6.89A2.659,2.659,0,0,0,27.976,2.5H14.532a2.6,2.6,0,0,0-1.779.692A2.2,2.2,0,0,0,12,4.828V30.061a2.431,2.431,0,0,0,2.532,2.328H35.468A2.431,2.431,0,0,0,38,30.061V11.718A2.251,2.251,0,0,0,37.247,10.082Zm-1.437.566H30.268A1.1,1.1,0,0,1,29.139,9.61V4.545Zm-.342,20.388H14.532a1.026,1.026,0,0,1-1.061-.975V4.828a.937.937,0,0,1,.308-.692,1.111,1.111,0,0,1,.753-.283H27.668V9.61A2.5,2.5,0,0,0,30.268,12h6.261V30.061A1.026,1.026,0,0,1,35.468,31.036Z" transform="translate(-12.064 -2.5)"/>
      <g id="pdf" transform="translate(-26 -29.222)">
        <path id="Path_3100" data-name="Path 3100" d="M45.42,45.8a15.069,15.069,0,0,0-2.6.277,24.663,24.663,0,0,1-3.937-5.853c1.034-4.355.346-5.231.118-5.523a1.229,1.229,0,0,0-.983-.481,1.611,1.611,0,0,0-.512.09,1.579,1.579,0,0,0-.975.912c-.547,1.279.2,3.461.975,5.14a51.928,51.928,0,0,1-2.931,8.321c-2.934,1.343-4.492,2.663-4.632,3.923a1.855,1.855,0,0,0,.863,1.736,1.246,1.246,0,0,0,.749.252c.675,0,1.359-.52,2.153-1.631a21.994,21.994,0,0,0,1.844-3.29,36.912,36.912,0,0,1,6.832-2.184,5.15,5.15,0,0,0,3.261,1.768,2.053,2.053,0,0,0,1.718-.922,1.575,1.575,0,0,0,.3-1.671C47.368,46.084,46.632,45.8,45.42,45.8ZM31.573,53.288c-.362-.278-.342-.465-.333-.537.049-.43.722-1.193,2.375-2.123C32.362,52.945,31.688,53.252,31.573,53.288Zm6.158-17.552a.287.287,0,0,1,.188-.188.542.542,0,0,1,.075-.02,4.676,4.676,0,0,1,0,2.508A3.978,3.978,0,0,1,37.731,35.736ZM36.319,47.95A55.417,55.417,0,0,0,38.389,42.1a26.489,26.489,0,0,0,2.959,4.292A38.754,38.754,0,0,0,36.319,47.95Zm9.984-.37a.748.748,0,0,1-.656.377,2.987,2.987,0,0,1-1.6-.749,11.151,11.151,0,0,1,1.374-.1,2.378,2.378,0,0,1,1.062.156A1.147,1.147,0,0,1,46.3,47.58Z" transform="translate(0)"/>
      </g>
    </g>
  </g>
</svg>
