<svg id="Group_835" data-name="Group 835" xmlns="http://www.w3.org/2000/svg" width="440" height="216.307" viewBox="0 0 440 216.307">
  <path id="Path_123" data-name="Path 123" d="M1147.53,4813.864c-5.126,1.214-8.363,4.991-11.467,8.632a30.551,30.551,0,0,1-6.744,6.475c-2.7,1.754-5.8,2.159-9.038,2.7-1.215.271-2.563.405-3.777.674l.27,1.214a37.134,37.134,0,0,1,3.777-.673c3.238-.541,6.61-1.079,9.578-2.968,2.7-1.753,4.856-4.316,7.015-6.744,3.1-3.644,6.07-7.149,10.791-8.23,6.206-1.483,16.053,2.159,20.235,7.421,6.07,7.283,2.833,20.5-3.1,30.351l1.079.674c6.071-10.252,9.443-24.01,2.968-31.835C1164.527,4816.158,1154.006,4812.245,1147.53,4813.864Z" transform="translate(-782.314 -4709.791)" fill="#e8e8e8"/>
  <path id="Path_124" data-name="Path 124" d="M1113.852,4750.468l-.135,1.214a44.823,44.823,0,0,0,7.015-.406c9.578-.943,22.663-2.157,32.915,10.927,6.34,7.959,9.848,19.156,8.9,28.33l1.214.135c.809-9.58-2.7-21.045-9.174-29.275-10.656-13.623-24.147-12.274-34.129-11.331A39.415,39.415,0,0,1,1113.852,4750.468Z" transform="translate(-781.55 -4692.259)" fill="#e8e8e8"/>
  <path id="Path_125" data-name="Path 125" d="M1083.226,4719.531c9.038-4.315,17.672-4.991,24.147-2.159a15.3,15.3,0,0,1,8.768,9.714l1.215-.4a16.645,16.645,0,0,0-9.443-10.523c-6.88-2.968-15.783-2.159-25.225,2.158Z" transform="translate(-773.048 -4682.636)" fill="#e8e8e8"/>
  <path id="Path_126" data-name="Path 126" d="M1059.485,4674.5c7.824,3.507,13.76,10.657,17,20.639l1.214-.4c-3.373-10.252-9.577-17.672-17.672-21.449a31.223,31.223,0,0,0-25.091,0l.54,1.214A30.88,30.88,0,0,1,1059.485,4674.5Z" transform="translate(-759.964 -4670.652)" fill="#e8e8e8"/>
  <path id="Path_127" data-name="Path 127" d="M1170.324,4919.255c-3.777-3.235-7.959-6.475-13.9-7.688-6.34-1.214-12.41,0-17,3.642-4.856,3.913-7.689,10.118-7.823,17.133-.135,6.475-5.666,8.364-10.522,9.98-3.373,1.081-6.206,2.159-6.88,4.454-.54,1.618.135,3.506,2.024,6.069l1.08-.809c-1.619-2.157-2.159-3.778-1.754-4.992.54-1.752,3.1-2.563,6.071-3.642,4.991-1.754,11.2-3.777,11.331-11.194.134-6.612,2.833-12.413,7.419-16.055,4.317-3.507,9.848-4.587,15.918-3.373,5.4,1.081,9.173,3.777,13.355,7.42Z" transform="translate(-781.635 -4736.538)" fill="#e8e8e8"/>
  <path id="Path_128" data-name="Path 128" d="M1203.467,4855.077c1.889,1.485,3.507,2.428,4.721,3.236,2.158,1.215,3.237,1.891,3.507,3.643l1.214-.136c-.4-2.292-1.753-3.237-4.047-4.587-1.214-.808-2.833-1.752-4.587-3.1-2.428-2.022-1.349-4.586-.134-7.555.674-1.752,1.483-3.642,1.349-5.26h-1.215c.135,1.349-.539,2.967-1.349,4.722C1201.713,4849.141,1200.229,4852.514,1203.467,4855.077Z" transform="translate(-805.605 -4717.415)" fill="#e8e8e8"/>
  <path id="Path_129" data-name="Path 129" d="M1153.378,4844.254l-.81-1.08c-7.015,5.395-10.926,11.467-11.2,17.941-.539,6.206,1.754,10.792,4.182,15.647.54,1.081,1.08,2.16,1.484,3.1l1.214-.54q-.81-1.617-1.619-3.236c-2.293-4.722-4.587-9.174-4.047-14.975C1142.991,4855.181,1146.634,4849.38,1153.378,4844.254Z" transform="translate(-789.106 -4717.923)" fill="#e8e8e8"/>
  <path id="Path_130" data-name="Path 130" d="M1047.823,4701.2a12.757,12.757,0,0,1,3.1,9.982c-.539,5.126-3.912,10.792-8.768,14.434a11.923,11.923,0,0,1-11.2,2.294l-.269,1.213a13.588,13.588,0,0,0,3.912.539,12.9,12.9,0,0,0,8.363-3.1c5.126-3.913,8.634-9.848,9.173-15.379a14.146,14.146,0,0,0-3.507-10.927c-6.2-7.418-12.41-7.822-19.83-6.2l.27,1.213C1036.357,4693.914,1041.887,4694.318,1047.823,4701.2Z" transform="translate(-758.283 -4676.851)" fill="#e8e8e8"/>
  <path id="Path_131" data-name="Path 131" d="M835.072,4855.325c10.926-.81,19.56,5.4,23.741,9.038,5.126,4.721,9.308,8.094,15.243,7.283l-.134-1.214c-5.4.675-9.308-2.562-14.3-7.015-4.317-3.776-13.355-10.116-24.686-9.307-9.038.673-17.536,5.665-25.5,14.839a6.46,6.46,0,0,0-1.484,5.126c.944,7.15,12.68,15.377,19.02,19.694.539.405,1.08.674,1.619,1.079-12.41-3.237-15.243,2.968-17.806,8.635-1.079,2.428-2.158,4.855-4.047,6.474a2.383,2.383,0,0,0-.539.675l.944.945.54-.54c2.024-1.755,3.1-4.316,4.316-6.881,2.7-5.8,5.126-11.331,17.671-7.419.81.27,1.619.539,1.889-.135.4-.675-.135-1.079-3.777-3.643-5.666-3.912-17.672-12.275-18.481-18.885a5.56,5.56,0,0,1,1.214-4.047C818.21,4860.855,826.438,4856,835.072,4855.325Z" transform="translate(-697.291 -4720.901)" fill="#e8e8e8"/>
  <path id="Path_132" data-name="Path 132" d="M977.434,4710.208c-1.753-7.284-2.7-17.267,2.563-24.416,2.428-3.371,7.823-6.2,13.355-6.88,4.047-.405,7.554.405,9.712,2.428,1.484,1.081,1.753,3.237.81,5.667a9.637,9.637,0,0,1-9.713,5.935l-.134,1.215a10.6,10.6,0,0,0,11.061-6.746c1.079-2.833.674-5.665-1.214-7.147-2.563-2.3-6.34-3.238-10.792-2.7-5.8.675-11.6,3.643-14.164,7.419-5.531,7.42-4.586,17.941-2.7,25.361Z" transform="translate(-743.472 -4672.505)" fill="#e8e8e8"/>
  <path id="Path_133" data-name="Path 133" d="M1008.254,4715.822c-3.777.674-7.419,1.349-10.387,4.182a20.314,20.314,0,0,0-4.991,21.313,46.085,46.085,0,0,0,1.753,4.587c2.293,5.666,4.182,10.657,2.023,16.862-.134.4-.4.943-.54,1.485-.944,2.428-2.293,5.395-.944,7.823,1.483,2.427,4.721,2.7,7.419,2.968.539,0,1.079.134,1.484.134,8.229,1.351,12.951,6.207,14.029,14.164l1.214-.135c-1.214-8.5-6.475-13.759-15.108-15.243-.54,0-1.08-.134-1.619-.134-2.293-.27-5.261-.4-6.34-2.293-.944-1.889.135-4.587.945-6.745.269-.538.4-1.08.674-1.619,2.293-6.745.269-12.006-2.023-17.807-.54-1.482-1.215-2.967-1.754-4.586-2.563-7.013-.674-15.242,4.587-19.965,2.7-2.562,6.205-3.236,9.847-3.911.675-.136,1.214-.271,1.889-.4a18.947,18.947,0,0,0,7.554-3.237l-.809-1.079a17.247,17.247,0,0,1-7.015,3.1A13.813,13.813,0,0,1,1008.254,4715.822Z" transform="translate(-748.122 -4682.031)" fill="#e8e8e8"/>
  <path id="Path_134" data-name="Path 134" d="M970.293,4896.47c-7.824-23.606-7.285-47.349,1.484-65.021l-1.214-.539c-8.9,17.941-9.443,42.087-1.619,65.963Z" transform="translate(-740.378 -4714.563)" fill="#e8e8e8"/>
  <path id="Path_135" data-name="Path 135" d="M976.431,4761.057l1.214-.27c-.809-3.1-2.968-5.8-5.126-8.5-3.642-4.451-7.015-8.768-4.047-14.3l-1.08-.539c-3.237,6.34.54,11.06,4.182,15.646C973.6,4755.661,975.757,4758.224,976.431,4761.057Z" transform="translate(-741.12 -4688.955)" fill="#e8e8e8"/>
  <path id="Path_136" data-name="Path 136" d="M1214.89,4886.663c3.1,3.778,4.856,8.9,6.744,13.76,2.7,7.285,5.4,14.84,12.276,18.077,5.531,2.563,8.769,5.262,9.847,8.364s-.135,6.475-2.293,10.791l1.08.539c2.293-4.588,3.642-8.229,2.428-11.871-1.214-3.373-4.451-6.339-10.522-9.038-6.34-2.967-8.9-9.981-11.6-17.4-1.754-4.991-3.643-10.251-6.88-14.163-4.721-5.935-8.633-7.42-15.108-5.8l.27,1.215C1207.066,4879.785,1210.573,4881.134,1214.89,4886.663Z" transform="translate(-805.428 -4727.824)" fill="#e8e8e8"/>
  <path id="Path_137" data-name="Path 137" d="M1064.666,4892.591c-3.642,2.563-4.182,2.832-3.776,3.642.269.674,1.214.4,1.888.134,12.545-3.911,14.974,1.619,17.672,7.42a20.411,20.411,0,0,0,4.317,6.879c.135.136.4.406.539.541l.944-.944c-.135-.269-.4-.4-.674-.675-1.754-1.619-2.833-3.912-3.912-6.476-2.563-5.531-5.4-11.87-17.806-8.633.539-.405,1.079-.674,1.618-1.079,6.34-4.451,18.077-12.546,19.02-19.694a6.458,6.458,0,0,0-1.484-5.127c-7.959-9.173-16.457-14.3-25.495-14.838-11.331-.81-20.37,5.53-24.686,9.442-4.991,4.451-8.9,7.689-14.3,7.015l-.135,1.214c5.936.675,10.118-2.563,15.243-7.284,4.182-3.643,12.815-9.848,23.742-9.038,8.633.54,16.862,5.4,24.551,14.434a4.6,4.6,0,0,1,1.214,4.048C1082.2,4880.314,1070.332,4888.678,1064.666,4892.591Z" transform="translate(-755.432 -4720.798)" fill="#e8e8e8"/>
  <path id="Path_138" data-name="Path 138" d="M1192.979,4944.526l.269,1.214c6.205-1.482,11.2-4.722,14.029-9.171,6.205-9.714,11.2-19.83,6.88-28.734-4.317-8.364-19.425-11.062-27.789-11.332v1.214c10.387.406,23.067,3.912,26.575,10.658,4.181,8.227-.81,18.075-6.745,27.384C1203.5,4939.94,1198.778,4943.042,1192.979,4944.526Z" transform="translate(-801.457 -4732.535)" fill="#e8e8e8"/>
  <path id="Path_139" data-name="Path 139" d="M1098.167,4790.977c4.452-4.991,5.531-10.252,2.968-14.435-3.1-4.991-10.522-7.015-18.077-4.857l.405,1.214c6.88-2.022,13.759-.269,16.592,4.318,2.293,3.776,1.349,8.5-2.7,12.95Z" transform="translate(-773.149 -4698.099)" fill="#e8e8e8"/>
  <path id="Path_140" data-name="Path 140" d="M1126.268,4787.743c-2.968,2.023-7.149,2.563-12.006,1.618l-.27,1.215a28.364,28.364,0,0,0,4.586.54,14.873,14.873,0,0,0,8.364-2.295,11.309,11.309,0,0,0,4.721-7.957c2.023-12.277-13.086-17.671-25.36-21.989a74.61,74.61,0,0,1-9.848-3.912c-3.777-2.157-4.856-5.125-6.07-8.365a19.686,19.686,0,0,0-4.452-7.958c-4.856-5.26-10.522-4.857-16.593-4.586h-.4l.135,1.214h.4c6.071-.4,11.2-.674,15.648,4.182a17.627,17.627,0,0,1,4.182,7.555c1.214,3.236,2.428,6.744,6.61,9.037a68.852,68.852,0,0,0,9.982,4.048c11.736,4.18,26.439,9.308,24.551,20.5C1129.91,4783.83,1128.561,4786.258,1126.268,4787.743Z" transform="translate(-769.28 -4687.986)" fill="#e8e8e8"/>
  <path id="Path_141" data-name="Path 141" d="M1012.265,4762.663l.54,1.215a42.8,42.8,0,0,1,12.545-3.1l-.135-1.214A37.984,37.984,0,0,0,1012.265,4762.663Z" transform="translate(-753.752 -4695.012)" fill="#e8e8e8"/>
  <path id="Path_142" data-name="Path 142" d="M1012.108,4934.334l.27-1.214c-23.2-3.777-36.422,3.642-41.548,23.2l1.214.271C976.9,4937.84,989.581,4930.69,1012.108,4934.334Z" transform="translate(-742.399 -4742.309)" fill="#e8e8e8"/>
  <path id="Path_143" data-name="Path 143" d="M1012.518,4844.692c8.093-7.015,18.75-15.243,29-16.324,10.117-1.214,23.877,8.231,27.788,11.2l.81-1.08c-4.047-2.968-18.211-12.546-28.733-11.332-10.657,1.081-21.449,9.445-29.677,16.728Z" transform="translate(-753.6 -4713.503)" fill="#e8e8e8"/>
  <path id="Path_144" data-name="Path 144" d="M967.98,4807.783a5.063,5.063,0,0,0,3.1,3.642,5.713,5.713,0,0,0,1.484.271c3.372,0,7.689-2.833,11.6-5.8l-.809-1.078c-2.563,1.887-8.769,6.474-12.006,5.394a3.937,3.937,0,0,1-2.293-2.7c-.944-2.832-.539-4.991-.27-7.555a21.919,21.919,0,0,0,.4-5.261,40.846,40.846,0,0,1,.674-7.69l-1.214-.133a60.636,60.636,0,0,0-.674,7.959,30.325,30.325,0,0,1-.405,5.125A17.585,17.585,0,0,0,967.98,4807.783Z" transform="translate(-741.438 -4702.497)" fill="#e8e8e8"/>
  <path id="Path_145" data-name="Path 145" d="M1035.844,4766.286c7.689-2.293,13.76-4.047,14.434-7.824.4-2.562-1.754-5.529-6.88-9.307l-.809,1.078c4.586,3.373,6.609,6.069,6.34,7.959-.54,2.969-6.61,4.722-13.625,6.746-6.745,2.023-14.3,4.182-19.7,8.229l.81,1.078C1021.68,4770.468,1029.235,4768.31,1035.844,4766.286Z" transform="translate(-754.669 -4692.162)" fill="#e8e8e8"/>
  <path id="Path_146" data-name="Path 146" d="M1052.074,4883.324l-.945-.944c-2.563,2.43-4.856,6.611-6.879,9.981-.81,1.485-1.484,2.7-2.023,3.508a18.1,18.1,0,0,1-10.927,6.88,6.21,6.21,0,0,1-4.856-.81,25.078,25.078,0,0,1-3.642-3.911c-2.023-2.562-4.181-5.262-8.228-5.4h-.27c-2.967,0-4.451,2.159-5.8,4.182-1.08,1.753-2.158,3.372-4.047,3.775-4.182,1.081-8.229-.4-11.871-4.313l-.944.943c3.912,4.181,8.5,5.8,13.085,4.587,2.293-.675,3.642-2.565,4.856-4.316,1.349-2.024,2.563-3.779,4.991-3.644,3.372.135,5.126,2.293,7.15,4.857a26.479,26.479,0,0,0,3.776,4.045,6.691,6.691,0,0,0,4.183,1.214,7.7,7.7,0,0,0,1.753-.135,19.437,19.437,0,0,0,11.871-7.419c.54-.81,1.349-2.023,2.159-3.506C1047.218,4889.934,1049.646,4885.618,1052.074,4883.324Z" transform="translate(-748.101 -4728.666)" fill="#e8e8e8"/>
  <path id="Path_147" data-name="Path 147" d="M1061.163,4802.24c2.158.405,4.182.943,6.07,1.349,12.545,3.508,20.5,11.465,23.067,23.338a28.042,28.042,0,0,1,.405,10.521l1.214.271a30.211,30.211,0,0,0-.405-10.928c-2.563-12.275-10.791-20.64-23.877-24.281-2.024-.54-4.047-.943-6.205-1.485-8.768-1.887-17.806-3.776-20.64-11.734l-1.214.405C1042.682,4798.327,1052.53,4800.351,1061.163,4802.24Z" transform="translate(-761.236 -4703.158)" fill="#e8e8e8"/>
  <path id="Path_148" data-name="Path 148" d="M860.223,4700.457a14.144,14.144,0,0,0-3.507,10.928c.54,5.532,4.047,11.466,9.173,15.378a13.106,13.106,0,0,0,8.364,3.1,13.639,13.639,0,0,0,3.911-.54l-.269-1.214a12,12,0,0,1-11.2-2.292c-4.856-3.778-8.229-9.309-8.768-14.435a12.37,12.37,0,0,1,3.237-9.982c5.8-7.015,11.331-7.42,18.481-5.8l.27-1.214C872.633,4692.635,866.428,4693.039,860.223,4700.457Z" transform="translate(-711.11 -4676.919)" fill="#e8e8e8"/>
  <path id="Path_149" data-name="Path 149" d="M660.014,4937.894c-2.293-4.316-3.372-7.689-2.293-10.792,1.08-2.97,4.182-5.665,9.847-8.362,6.88-3.239,9.578-10.793,12.276-18.078,1.753-4.991,3.642-9.981,6.745-13.894,4.317-5.531,7.824-6.88,13.894-5.261l.27-1.216c-6.61-1.618-10.522-.134-15.109,5.8-3.237,3.913-5.126,9.174-6.88,14.165-2.7,7.418-5.125,14.434-11.6,17.4-5.936,2.832-9.308,5.665-10.522,9.036-1.215,3.509.134,7.286,2.428,11.873Z" transform="translate(-656.186 -4727.926)" fill="#e8e8e8"/>
  <path id="Path_150" data-name="Path 150" d="M842.3,4674.5a30.067,30.067,0,0,1,24.147,0l.539-1.214a31.223,31.223,0,0,0-25.09,0c-8.229,3.777-14.3,11.061-17.672,21.449l1.214.4C828.544,4685.289,834.48,4678.138,842.3,4674.5Z" transform="translate(-702.23 -4670.652)" fill="#e8e8e8"/>
  <path id="Path_151" data-name="Path 151" d="M797.605,4717.336c6.475-2.833,15.108-2.024,24.146,2.158l.54-1.213c-9.443-4.452-18.346-5.263-25.226-2.16a16.3,16.3,0,0,0-9.442,10.524l1.214.4A14.942,14.942,0,0,1,797.605,4717.336Z" transform="translate(-692.2 -4682.6)" fill="#e8e8e8"/>
  <path id="Path_152" data-name="Path 152" d="M736.146,4790.719c-.809-9.174,2.7-20.371,8.9-28.33,10.252-13.086,23.337-11.735,32.915-10.926a45.057,45.057,0,0,0,7.015.405l-.135-1.215a41.836,41.836,0,0,1-6.745-.405c-9.848-.945-23.472-2.294-34.129,11.331-6.475,8.229-10.117,19.694-9.173,29.273Z" transform="translate(-677.685 -4692.309)" fill="#e8e8e8"/>
  <path id="Path_153" data-name="Path 153" d="M705.386,4858.5a43.26,43.26,0,0,0,4.721-3.236c3.237-2.564,1.754-6.072.539-9.039a14.95,14.95,0,0,1-1.349-4.722h-1.214c-.135,1.755.675,3.507,1.349,5.261,1.214,2.968,2.293,5.667-.135,7.555a34.57,34.57,0,0,1-4.586,3.1c-2.293,1.347-3.642,2.292-4.047,4.584l1.215.136C702.148,4860.389,703.228,4859.714,705.386,4858.5Z" transform="translate(-668.373 -4717.466)" fill="#e8e8e8"/>
  <path id="Path_154" data-name="Path 154" d="M731.8,4853.087c-5.935-9.849-9.173-23.068-3.1-30.354,4.182-5.26,14.029-8.9,20.234-7.419,4.721,1.079,7.689,4.587,10.792,8.229,2.158,2.429,4.317,4.991,7.014,6.744,2.968,1.891,6.34,2.43,9.578,2.97,1.214.27,2.564.4,3.778.674l.269-1.214a37.273,37.273,0,0,0-3.776-.676c-3.238-.538-6.34-1.077-9.038-2.7-2.563-1.618-4.722-4.181-6.745-6.474-3.1-3.643-6.34-7.42-11.466-8.635-6.61-1.619-17,2.293-21.584,7.823-6.475,7.826-3.237,21.584,2.968,31.837Z" transform="translate(-674.825 -4709.892)" fill="#e8e8e8"/>
  <path id="Path_155" data-name="Path 155" d="M862,4750.233l-.81-1.078c-5.125,3.777-7.284,6.744-6.88,9.307.675,3.777,6.745,5.531,14.434,7.824,6.609,1.89,14.163,4.182,19.29,8.095l.81-1.079c-5.4-4.048-12.951-6.206-19.695-8.229-7.015-2.024-13.085-3.912-13.625-6.746Q855.322,4755.291,862,4750.233Z" transform="translate(-710.459 -4692.162)" fill="#e8e8e8"/>
  <path id="Path_156" data-name="Path 156" d="M825.9,4838.444l.81,1.078c3.912-2.967,17.671-12.275,27.789-11.2,10.252,1.078,20.909,9.307,29,16.321l.81-.944c-8.229-7.148-19.02-15.513-29.677-16.727C843.976,4825.9,829.946,4835.476,825.9,4838.444Z" transform="translate(-702.688 -4713.463)" fill="#e8e8e8"/>
  <path id="Path_157" data-name="Path 157" d="M830.363,4802.324c-13.085,3.643-21.314,12.006-23.877,24.282a30.277,30.277,0,0,0-.4,10.927l1.214-.271a28.051,28.051,0,0,1,.4-10.521c2.429-11.737,10.388-19.83,23.068-23.339,1.888-.541,3.912-.943,6.07-1.347,8.634-1.891,18.481-3.914,21.583-12.547l-1.214-.405c-2.833,7.957-11.871,9.847-20.64,11.737C834.41,4801.379,832.386,4801.785,830.363,4802.324Z" transform="translate(-697.169 -4703.107)" fill="#e8e8e8"/>
  <path id="Path_158" data-name="Path 158" d="M827.228,4772.713l.4-1.214c-7.419-2.157-14.839-.135-18.076,4.858-2.7,4.316-1.619,9.578,2.967,14.434l.945-.81c-4.047-4.452-5.126-9.173-2.7-12.951C813.468,4772.581,820.347,4770.691,827.228,4772.713Z" transform="translate(-697.81 -4698.049)" fill="#e8e8e8"/>
  <path id="Path_159" data-name="Path 159" d="M900.673,4762.612a41.582,41.582,0,0,0-12.949-3.237l-.135,1.216a38.918,38.918,0,0,1,12.545,3.1Z" transform="translate(-719.59 -4694.962)" fill="#e8e8e8"/>
  <path id="Path_160" data-name="Path 160" d="M720.572,4897.9v-1.214c-8.228.27-23.336,2.967-27.788,11.329-4.452,8.77.674,19.021,6.88,28.735,2.833,4.315,7.824,7.554,14.029,9.037l.27-1.213c-5.936-1.484-10.522-4.452-13.22-8.5-5.936-9.308-10.927-19.155-6.745-27.384C697.505,4901.679,710.185,4898.306,720.572,4897.9Z" transform="translate(-665.754 -4732.586)" fill="#e8e8e8"/>
  <path id="Path_161" data-name="Path 161" d="M899.123,4717.137c3.642.674,7.015,1.349,9.848,3.911,5.261,4.723,7.15,12.951,4.586,19.966a46.284,46.284,0,0,1-1.753,4.587c-2.293,5.665-4.317,11.061-2.023,17.8a13.8,13.8,0,0,0,.675,1.621c.944,2.159,2.023,4.855,1.079,6.744-1.079,1.889-4.047,2.158-6.475,2.294-.539,0-1.079.136-1.618.136-8.634,1.482-13.9,6.743-15.109,15.243l1.214.134c1.08-7.959,5.8-12.68,14.029-14.163.405,0,.944-.136,1.484-.136,2.7-.271,5.936-.54,7.42-2.969,1.349-2.428,0-5.4-.944-7.823a10.394,10.394,0,0,1-.539-1.483c-2.158-6.205-.27-11.2,2.023-16.861.54-1.485,1.214-2.968,1.754-4.587,2.7-7.555.674-16.323-4.991-21.314-2.968-2.833-6.61-3.507-10.388-4.182-.674-.135-1.214-.269-1.888-.4a17.264,17.264,0,0,1-7.015-3.1l-.809,1.08a18.949,18.949,0,0,0,7.554,3.238A10.576,10.576,0,0,1,899.123,4717.137Z" transform="translate(-719.794 -4682.131)" fill="#e8e8e8"/>
  <path id="Path_162" data-name="Path 162" d="M788.049,4760.067a69.089,69.089,0,0,0,9.983-4.046c4.182-2.295,5.4-5.8,6.61-9.038.944-2.563,1.888-5.261,4.317-7.555,4.451-4.856,9.577-4.451,15.647-4.182h.405l.135-1.214h-.405c-6.07-.4-11.871-.674-16.592,4.587-2.564,2.563-3.507,5.4-4.587,8.093-1.214,3.239-2.293,6.208-6.07,8.364a67.737,67.737,0,0,1-9.847,3.913c-12.141,4.316-27.384,9.712-25.361,21.988a12.3,12.3,0,0,0,4.721,7.959,14.887,14.887,0,0,0,8.364,2.292,18.419,18.419,0,0,0,4.587-.539l-.27-1.214c-4.856.944-9.173.4-12.006-1.618a10.859,10.859,0,0,1-4.317-7.15C761.745,4769.375,776.313,4764.249,788.049,4760.067Z" transform="translate(-685.207 -4687.964)" fill="#e8e8e8"/>
  <path id="Path_163" data-name="Path 163" d="M765.063,4879.513l1.214.54c.54-1.079,1.079-2.159,1.484-3.1,2.428-4.855,4.722-9.443,4.182-15.647-.4-6.477-4.182-12.546-11.2-17.941l-.81,1.079c6.745,5.261,10.388,10.928,10.792,17.132.539,5.8-1.753,10.253-4.047,14.973A29.563,29.563,0,0,0,765.063,4879.513Z" transform="translate(-684.614 -4717.974)" fill="#e8e8e8"/>
  <path id="Path_164" data-name="Path 164" d="M740.521,4912.758c6.07-1.214,11.6,0,15.917,3.373,4.587,3.642,7.285,9.578,7.42,16.054.135,7.418,6.34,9.442,11.331,11.2,2.968,1.078,5.531,1.889,6.07,3.643.405,1.215-.269,2.833-1.753,4.992l1.079.808c1.888-2.563,2.428-4.452,2.023-6.069-.674-2.295-3.642-3.238-6.88-4.452-4.856-1.617-10.387-3.508-10.522-9.982-.135-7.015-2.968-13.22-7.824-17.131-4.586-3.644-10.522-4.992-17-3.644-5.935,1.214-10.252,4.452-13.894,7.689l.809.945C730.809,4917.075,734.855,4913.972,740.521,4912.758Z" transform="translate(-675.45 -4736.516)" fill="#e8e8e8"/>
  <path id="Path_165" data-name="Path 165" d="M941.024,4752.288c-2.158,2.7-4.317,5.4-5.126,8.5l1.214.27c.81-2.833,2.833-5.4,4.856-7.959,3.642-4.587,7.555-9.442,4.182-15.646l-1.079.539C948.039,4743.52,944.532,4747.837,941.024,4752.288Z" transform="translate(-732.827 -4688.955)" fill="#e8e8e8"/>
  <path id="Path_166" data-name="Path 166" d="M939.98,4810.211c-3.372,1.08-9.443-3.373-12.006-5.394l-.81,1.078c3.912,2.968,8.229,5.8,11.6,5.8a4.819,4.819,0,0,0,1.483-.271,5.422,5.422,0,0,0,3.1-3.506c1.08-3.1.675-5.529.27-8.1a20.208,20.208,0,0,1-.405-4.989,43.17,43.17,0,0,0-.674-7.959l-1.214.133a57.7,57.7,0,0,1,.674,7.69,21.4,21.4,0,0,0,.4,5.261c.405,2.563.674,4.858-.269,7.555A3.475,3.475,0,0,1,939.98,4810.211Z" transform="translate(-730.435 -4702.497)" fill="#e8e8e8"/>
  <path id="Path_167" data-name="Path 167" d="M912.256,4694.393l-.135-1.214a9.407,9.407,0,0,1-9.712-5.936c-.944-2.293-.539-4.452.944-5.666,2.293-2.023,5.666-2.833,9.713-2.428,5.4.674,10.926,3.371,13.355,6.88,5.26,7.015,4.317,17.132,2.563,24.417l1.214.269c1.754-7.419,2.7-17.941-2.7-25.362-2.563-3.642-8.5-6.743-14.164-7.417-4.451-.54-8.228.4-10.656,2.7-1.889,1.485-2.428,4.184-1.215,7.15A10.412,10.412,0,0,0,912.256,4694.393Z" transform="translate(-723.215 -4672.607)" fill="#e8e8e8"/>
  <path id="Path_168" data-name="Path 168" d="M944.173,4830.911l-1.214.539c8.768,17.672,9.308,41.414,1.484,65.021l1.214.4C953.616,4873,952.942,4848.852,944.173,4830.911Z" transform="translate(-734.762 -4714.563)" fill="#e8e8e8"/>
  <path id="Path_169" data-name="Path 169" d="M930.337,4956.608l1.214-.27c-5.125-19.561-18.346-26.846-41.548-23.2l.27,1.213C912.666,4930.708,925.346,4937.857,930.337,4956.608Z" transform="translate(-720.252 -4742.325)" fill="#e8e8e8"/>
  <path id="Path_170" data-name="Path 170" d="M851.577,4896.646a18.858,18.858,0,0,0,11.871,7.419,8.3,8.3,0,0,0,1.753.135,6.962,6.962,0,0,0,4.182-1.214,26.368,26.368,0,0,0,3.777-4.046c2.023-2.562,3.777-4.722,7.15-4.857,2.428-.135,3.642,1.618,4.991,3.645,1.214,1.888,2.428,3.774,4.856,4.314,4.586,1.08,9.173-.4,13.085-4.586l-.944-.945c-3.642,3.913-7.689,5.262-11.871,4.317-1.888-.538-2.967-2.158-4.047-3.775-1.349-2.024-2.833-4.182-5.8-4.182h-.269c-4.047.134-6.071,2.83-8.229,5.394a24.462,24.462,0,0,1-3.642,3.912,6.4,6.4,0,0,1-4.856.81,18.094,18.094,0,0,1-10.927-6.879c-.539-.809-1.214-2.024-2.023-3.372-1.888-3.372-4.317-7.555-6.879-9.982l-.945.945c2.429,2.292,4.856,6.608,6.61,9.711C850.362,4894.623,851.037,4895.836,851.577,4896.646Z" transform="translate(-707.321 -4728.767)" fill="#e8e8e8"/>
</svg>
