<svg id="icon-fb" xmlns="http://www.w3.org/2000/svg" width="31.032" height="31.136" viewBox="0 0 31.032 31.136">
  <path id="Path_444" data-name="Path 444" d="M1734.195,4791.938h-4.67v-3.218a1.778,1.778,0,0,1,.1-.726,1.437,1.437,0,0,1,1.35-1.142,3.521,3.521,0,0,1,1.038-.1h2.075c.208,0,.208,0,.208-.207v-3.736c0-.208,0-.208-.208-.208a23.691,23.691,0,0,0-3.84-.1,5.272,5.272,0,0,0-3.632,1.349,5.984,5.984,0,0,0-1.765,3.01,7.5,7.5,0,0,0-.207,1.765v3.321H1720.6v4.566c0,.208,0,.208.208.208h3.632c.208,0,.208,0,.208.208v11.831h-14.842a1.693,1.693,0,0,1-1.764-1.453V4779.38a1.708,1.708,0,0,1,1.453-1.765h27.815a1.717,1.717,0,0,1,1.764,1.349v27.919a1.7,1.7,0,0,1-1.349,1.764h-8.3v-11.831c0-.208.1-.208.207-.208h3.633c.208,0,.208,0,.208-.207.1-.727.207-1.557.311-2.284s.208-1.349.311-2.075C1734.195,4792.145,1734.195,4792.042,1734.195,4791.938Z" transform="translate(-1708.041 -4777.615)" fill="#1e1e1d"/>
</svg>
