<svg id="icon-search" xmlns="http://www.w3.org/2000/svg" width="28" height="27.796" viewBox="0 0 28 27.796">
  <path id="Path_106" data-name="Path 106" d="M1786.628,46.407a11.64,11.64,0,0,0-.993-15.522,11.705,11.705,0,1,0-8.258,19.9,11.6,11.6,0,0,0,7.264-2.531l6.933,6.933,1.987-2.084Zm-15.522-.994h0a8.93,8.93,0,0,1,6.271-15.21,8.489,8.489,0,0,1,6.291,2.649,8.971,8.971,0,0,1,0,12.542,8.275,8.275,0,0,1-6.271,2.532A7.935,7.935,0,0,1,1771.106,45.413Z" transform="translate(-1765.561 -27.394)" fill="#e8e8e8"/>
</svg>
