<svg id="icon-link" xmlns="http://www.w3.org/2000/svg" width="54.127" height="54.124" viewBox="0 0 54.127 54.124">
  <path id="Path_107" data-name="Path 107" d="M984.071,693.615l-2.407-2.407a10.213,10.213,0,0,0-14.443,0l-8.424,8.424,2.407,2.406,8.424-8.423a6.973,6.973,0,0,1,9.629,0l2.407,2.406a6.8,6.8,0,0,1,0,9.627l-13.237,13.24a6.974,6.974,0,0,1-9.63,0l-2.407-2.406-2.406,2.406,2.406,2.407a10.213,10.213,0,0,0,14.444,0l13.237-13.24a10.208,10.208,0,0,0,0-14.443Z" transform="translate(-932.937 -688.217)" fill="#fff"/>
  <path id="Path_108" data-name="Path 108" d="M950.371,736.942a6.966,6.966,0,0,1-9.627,0l-2.407-2.407a6.808,6.808,0,0,1,0-9.63l13.237-13.237a6.819,6.819,0,0,1,9.63,0l2.407,2.407,2.406-2.407-2.406-2.407a10.225,10.225,0,0,0-14.443,0L935.93,722.5a10.21,10.21,0,0,0,0,14.444l2.407,2.406a10.206,10.206,0,0,0,14.441,0l8.426-8.423-2.407-2.407Z" transform="translate(-932.937 -688.217)" fill="#fff"/>
</svg>
