<svg id="icon-youtube" xmlns="http://www.w3.org/2000/svg" width="41.506" height="31.136" viewBox="0 0 41.506 31.136">
  <g id="Group_496" data-name="Group 496">
    <path id="Path_443" data-name="Path 443" d="M1806.125,4783.394a6.3,6.3,0,0,0-6-6.584c-4.491-.211-9.072-.292-13.751-.292h-1.459c-4.67,0-9.259.081-13.751.292-3.308,0-5.992,2.951-5.992,6.6q-.3,4.329-.283,8.659-.014,4.331.275,8.667c0,3.649,2.684,6.608,5.992,6.608,4.719.219,9.559.317,14.481.309q7.394.024,14.48-.309c3.316,0,6-2.959,6-6.608.2-2.894.284-5.78.276-8.675Q1806.417,4787.732,1806.125,4783.394Zm-24.453,16.629v-15.932l11.756,7.962Z" transform="translate(-1764.888 -4776.518)" fill="#1e1e1d"/>
  </g>
</svg>
