<svg id="footer-brain" xmlns="http://www.w3.org/2000/svg" width="606.062" height="297.944" viewBox="0 0 606.062 297.944">
  <path id="Path_123" data-name="Path 123" d="M1159.24,4814c-7.061,1.672-11.52,6.875-15.794,11.891-2.787,3.345-5.76,6.69-9.29,8.919-3.716,2.416-7.99,2.973-12.449,3.716-1.673.372-3.531.558-5.2.929l.372,1.673a50.592,50.592,0,0,1,5.2-.929c4.46-.744,9.1-1.487,13.193-4.088,3.716-2.416,6.689-5.946,9.662-9.291,4.273-5.016,8.361-9.847,14.864-11.334,8.548-2.044,22.112,2.973,27.872,10.22,8.361,10.033,3.9,28.243-4.274,41.807l1.486.929c8.362-14.122,13.007-33.074,4.088-43.851C1182.652,4817.161,1168.159,4811.773,1159.24,4814Z" transform="translate(-656.186 -4670.651)" fill="#e2e2f7"/>
  <path id="Path_124" data-name="Path 124" d="M1113.9,4750.828l-.186,1.672a61.857,61.857,0,0,0,9.662-.557c13.192-1.3,31.216-2.973,45.337,15.05,8.733,10.963,13.564,26.385,12.264,39.02l1.672.186c1.115-13.193-3.716-28.986-12.635-40.321-14.679-18.766-33.26-16.908-47.01-15.608A54.081,54.081,0,0,1,1113.9,4750.828Z" transform="translate(-656.186 -4670.651)" fill="#e2e2f7"/>
  <path id="Path_125" data-name="Path 125" d="M1083.43,4721.47c12.449-5.946,24.341-6.875,33.26-2.973a21.064,21.064,0,0,1,12.077,13.378l1.673-.557a22.93,22.93,0,0,0-13.007-14.493c-9.476-4.088-21.74-2.973-34.746,2.973Z" transform="translate(-656.186 -4670.651)" fill="#e2e2f7"/>
  <path id="Path_126" data-name="Path 126" d="M1068.751,4675.947c10.777,4.831,18.953,14.679,23.412,28.429l1.672-.558c-4.645-14.121-13.192-24.341-24.341-29.543a43.007,43.007,0,0,0-34.56,0l.743,1.672C1046.64,4671.487,1058.717,4671.487,1068.751,4675.947Z" transform="translate(-656.186 -4670.651)" fill="#e2e2f7"/>
  <path id="Path_127" data-name="Path 127" d="M1191.571,4922.329c-5.2-4.459-10.963-8.919-19.139-10.591-8.733-1.672-17.094,0-23.412,5.017-6.689,5.388-10.591,13.935-10.776,23.6-.186,8.919-7.8,11.521-14.493,13.75-4.646,1.487-8.548,2.973-9.477,6.132-.743,2.23.186,4.831,2.787,8.361l1.487-1.114c-2.23-2.973-2.973-5.2-2.416-6.875.744-2.416,4.274-3.531,8.362-5.017,6.875-2.416,15.422-5.2,15.608-15.422.185-9.1,3.9-17.1,10.219-22.112,5.946-4.831,13.564-6.317,21.925-4.645,7.433,1.487,12.635,5.2,18.4,10.22Z" transform="translate(-656.186 -4670.651)" fill="#e2e2f7"/>
  <path id="Path_128" data-name="Path 128" d="M1204.206,4860.269c2.6,2.044,4.831,3.345,6.5,4.459,2.973,1.673,4.459,2.6,4.831,5.017l1.672-.186c-.557-3.158-2.415-4.459-5.574-6.317-1.672-1.115-3.9-2.416-6.318-4.274-3.344-2.787-1.858-6.317-.185-10.4.929-2.415,2.043-5.017,1.858-7.246h-1.673c.186,1.858-.743,4.087-1.858,6.5C1201.79,4852.093,1199.746,4856.739,1204.206,4860.269Z" transform="translate(-656.186 -4670.651)" fill="#e2e2f7"/>
  <path id="Path_129" data-name="Path 129" d="M1157.939,4844.661l-1.115-1.486c-9.662,7.432-15.05,15.793-15.422,24.712-.743,8.547,2.416,14.865,5.76,21.554.744,1.486,1.487,2.973,2.044,4.274l1.673-.744q-1.116-2.229-2.23-4.459c-3.159-6.5-6.318-12.635-5.574-20.625C1143.632,4859.712,1148.649,4851.722,1157.939,4844.661Z" transform="translate(-656.186 -4670.651)" fill="#e2e2f7"/>
  <path id="Path_130" data-name="Path 130" d="M1055,4704.19a17.576,17.576,0,0,1,4.274,13.75c-.743,7.06-5.389,14.864-12.078,19.881-4.645,3.716-9.476,4.645-15.422,3.159l-.371,1.672a18.769,18.769,0,0,0,5.388.743,17.771,17.771,0,0,0,11.52-4.273c7.061-5.389,11.892-13.564,12.635-21.182a19.482,19.482,0,0,0-4.831-15.051c-8.547-10.219-17.094-10.777-27.314-8.547l.372,1.672C1039.208,4694.156,1046.826,4694.714,1055,4704.19Z" transform="translate(-656.186 -4670.651)" fill="#e2e2f7"/>
  <path id="Path_131" data-name="Path 131" d="M845.967,4855.81c15.05-1.115,26.942,7.432,32.7,12.449,7.061,6.5,12.821,11.148,21,10.033l-.185-1.672c-7.433.929-12.821-3.53-19.7-9.662-5.946-5.2-18.4-13.936-34-12.821-12.449.929-24.155,7.8-35.118,20.439a8.9,8.9,0,0,0-2.044,7.061c1.3,9.848,17.466,21.182,26.2,27.128.743.557,1.487.929,2.23,1.487-17.094-4.46-21,4.087-24.527,11.891-1.486,3.345-2.973,6.689-5.574,8.919a3.272,3.272,0,0,0-.743.929l1.3,1.3.744-.743c2.787-2.416,4.273-5.946,5.945-9.477,3.717-7.989,7.061-15.608,24.341-10.219,1.115.371,2.23.743,2.6-.186.557-.929-.186-1.486-5.2-5.017-7.8-5.388-24.341-16.908-25.456-26.013a7.659,7.659,0,0,1,1.673-5.574C822.741,4863.428,834.075,4856.739,845.967,4855.81Z" transform="translate(-656.186 -4670.651)" fill="#e2e2f7"/>
  <path id="Path_132" data-name="Path 132" d="M978.448,4722.585c-2.415-10.034-3.716-23.784,3.531-33.632,3.344-4.645,10.776-8.547,18.4-9.476,5.574-.557,10.4.558,13.378,3.345,2.044,1.486,2.415,4.459,1.115,7.8a13.274,13.274,0,0,1-13.379,8.175l-.185,1.673a14.6,14.6,0,0,0,15.236-9.291c1.486-3.9.929-7.8-1.672-9.848-3.531-3.158-8.733-4.459-14.865-3.716-7.99.929-15.98,5.017-19.51,10.22-7.618,10.219-6.317,24.712-3.716,34.932Z" transform="translate(-656.186 -4670.651)" fill="#e2e2f7"/>
  <path id="Path_133" data-name="Path 133" d="M1014.495,4717.2c-5.2.929-10.219,1.858-14.307,5.76-7.618,7.061-10.591,19.139-6.875,29.358a63.538,63.538,0,0,0,2.415,6.318c3.159,7.8,5.76,14.679,2.787,23.226-.185.557-.557,1.3-.743,2.044-1.3,3.344-3.159,7.432-1.3,10.777,2.043,3.344,6.5,3.716,10.219,4.087.743,0,1.486.186,2.044.186,11.334,1.858,17.838,8.547,19.324,19.51l1.672-.186c-1.672-11.706-8.919-18.952-20.81-21-.744,0-1.487-.186-2.23-.186-3.159-.372-7.247-.557-8.733-3.159-1.3-2.6.186-6.317,1.3-9.29.371-.743.557-1.487.929-2.23,3.158-9.29.371-16.537-2.787-24.527-.744-2.043-1.673-4.087-2.416-6.317-3.53-9.662-.929-21,6.318-27.5,3.716-3.53,8.547-4.459,13.564-5.388.929-.186,1.672-.372,2.6-.558a26.054,26.054,0,0,0,10.405-4.459l-1.115-1.486a23.776,23.776,0,0,1-9.662,4.273A18.822,18.822,0,0,1,1014.495,4717.2Z" transform="translate(-656.186 -4670.651)" fill="#e2e2f7"/>
  <path id="Path_134" data-name="Path 134" d="M972.874,4921.214c-10.777-32.516-10.034-65.219,2.044-89.56l-1.672-.743c-12.264,24.713-13.007,57.973-2.23,90.861Z" transform="translate(-656.186 -4670.651)" fill="#e2e2f7"/>
  <path id="Path_135" data-name="Path 135" d="M980.306,4769.966l1.673-.372c-1.115-4.273-4.088-7.989-7.061-11.706-5.017-6.131-9.662-12.077-5.574-19.7l-1.487-.743c-4.459,8.733.743,15.236,5.76,21.553C976.4,4762.534,979.377,4766.064,980.306,4769.966Z" transform="translate(-656.186 -4670.651)" fill="#e2e2f7"/>
  <path id="Path_136" data-name="Path 136" d="M1220.185,4889.441c4.274,5.2,6.689,12.263,9.29,18.952,3.717,10.034,7.433,20.439,16.909,24.9,7.618,3.53,12.078,7.246,13.564,11.52s-.186,8.919-3.159,14.865l1.487.743c3.159-6.318,5.017-11.335,3.344-16.351-1.672-4.646-6.131-8.733-14.493-12.45-8.733-4.087-12.263-13.749-15.979-23.969-2.416-6.875-5.017-14.121-9.477-19.51-6.5-8.175-11.891-10.219-20.81-7.99l.372,1.673C1209.408,4879.965,1214.239,4881.823,1220.185,4889.441Z" transform="translate(-656.186 -4670.651)" fill="#e2e2f7"/>
  <path id="Path_137" data-name="Path 137" d="M1082.129,4907.279c-5.016,3.53-5.76,3.9-5.2,5.016.371.929,1.672.558,2.6.186,17.28-5.388,20.625,2.23,24.341,10.22,1.486,3.344,3.159,6.875,5.946,9.476l.743.743,1.3-1.3c-.186-.372-.558-.558-.929-.93-2.416-2.229-3.9-5.388-5.389-8.918-3.53-7.619-7.432-16.352-24.526-11.892.743-.558,1.486-.929,2.229-1.487,8.733-6.131,24.9-17.28,26.2-27.128a8.9,8.9,0,0,0-2.044-7.06c-10.962-12.635-22.668-19.7-35.117-20.439-15.608-1.115-28.058,7.618-34,13.006-6.875,6.132-12.264,10.591-19.7,9.662l-.186,1.673c8.176.929,13.936-3.531,21-10.034,5.761-5.017,17.652-13.564,32.7-12.449,11.891.743,23.226,7.432,33.817,19.881a6.338,6.338,0,0,1,1.672,5.575C1106.284,4890.37,1089.933,4901.89,1082.129,4907.279Z" transform="translate(-656.186 -4670.651)" fill="#e2e2f7"/>
  <path id="Path_138" data-name="Path 138" d="M1195.473,4962.65l.371,1.672c8.547-2.044,15.422-6.5,19.324-12.635,8.547-13.378,15.422-27.314,9.477-39.577-5.946-11.521-26.757-15.237-38.277-15.608v1.672c14.307.557,31.773,5.388,36.6,14.679,5.76,11.334-1.115,24.9-9.29,37.719C1209.966,4956.332,1203.462,4960.606,1195.473,4962.65Z" transform="translate(-656.186 -4670.651)" fill="#e2e2f7"/>
  <path id="Path_139" data-name="Path 139" d="M1103.869,4798.581c6.132-6.875,7.618-14.122,4.088-19.882-4.274-6.875-14.493-9.662-24.9-6.689l.558,1.672c9.476-2.787,18.952-.371,22.854,5.946,3.159,5.2,1.858,11.706-3.716,17.838Z" transform="translate(-656.186 -4670.651)" fill="#e2e2f7"/>
  <path id="Path_140" data-name="Path 140" d="M1147.906,4808.057c-4.088,2.787-9.848,3.53-16.537,2.229l-.372,1.673a38.935,38.935,0,0,0,6.317.743,20.5,20.5,0,0,0,11.521-3.159,15.579,15.579,0,0,0,6.5-10.962c2.787-16.909-18.024-24.341-34.932-30.287-5.2-1.858-10.22-3.531-13.564-5.389-5.2-2.973-6.689-7.06-8.361-11.52-1.3-3.716-2.788-7.618-6.132-10.963-6.689-7.246-14.493-6.689-22.855-6.317h-.557l.186,1.672h.557c8.362-.557,15.422-.929,21.554,5.76,3.159,3.159,4.645,6.875,5.76,10.406,1.672,4.459,3.345,9.29,9.1,12.449a94.779,94.779,0,0,0,13.75,5.574c16.165,5.76,36.418,12.821,33.817,28.243C1152.922,4802.668,1151.064,4806.013,1147.906,4808.057Z" transform="translate(-656.186 -4670.651)" fill="#e2e2f7"/>
  <path id="Path_141" data-name="Path 141" d="M1012.265,4763.834l.744,1.673a58.954,58.954,0,0,1,17.28-4.274l-.186-1.672A52.325,52.325,0,0,0,1012.265,4763.834Z" transform="translate(-656.186 -4670.651)" fill="#e2e2f7"/>
  <path id="Path_142" data-name="Path 142" d="M1027.687,4935.15l.372-1.672c-31.959-5.2-50.168,5.016-57.229,31.959l1.672.371C979.191,4939.981,996.657,4930.133,1027.687,4935.15Z" transform="translate(-656.186 -4670.651)" fill="#e2e2f7"/>
  <path id="Path_143" data-name="Path 143" d="M1012.823,4851.35c11.148-9.662,25.827-21,39.949-22.483,13.935-1.672,32.888,11.335,38.276,15.422l1.115-1.486c-5.574-4.088-25.084-17.28-39.577-15.608-14.679,1.487-29.544,13.007-40.878,23.04Z" transform="translate(-656.186 -4670.651)" fill="#e2e2f7"/>
  <path id="Path_144" data-name="Path 144" d="M968.229,4815.675a6.981,6.981,0,0,0,4.273,5.017,7.9,7.9,0,0,0,2.044.371c4.645,0,10.591-3.9,15.98-7.989l-1.115-1.487c-3.53,2.6-12.078,8.919-16.537,7.432-1.486-.557-2.416-1.672-3.159-3.716-1.3-3.9-.743-6.875-.371-10.405a30.235,30.235,0,0,0,.557-7.247c-.186-1.858.186-5.388.929-10.591l-1.672-.185a83.464,83.464,0,0,0-.929,10.962,41.811,41.811,0,0,1-.558,7.061A24.217,24.217,0,0,0,968.229,4815.675Z" transform="translate(-656.186 -4670.651)" fill="#e2e2f7"/>
  <path id="Path_145" data-name="Path 145" d="M1043.481,4772.753c10.591-3.159,18.953-5.574,19.882-10.777.557-3.53-2.416-7.618-9.477-12.821l-1.114,1.487c6.317,4.645,9.1,8.361,8.733,10.963-.744,4.087-9.1,6.5-18.767,9.29-9.29,2.787-19.7,5.76-27.128,11.334l1.115,1.487C1023.971,4778.513,1034.377,4775.54,1043.481,4772.753Z" transform="translate(-656.186 -4670.651)" fill="#e2e2f7"/>
  <path id="Path_146" data-name="Path 146" d="M1074.883,4883.681l-1.3-1.3c-3.53,3.345-6.689,9.1-9.476,13.75-1.115,2.044-2.044,3.716-2.787,4.831-2.973,4.459-9.476,8.547-15.051,9.476-2.044.372-4.831.372-6.689-1.115a34.5,34.5,0,0,1-5.017-5.388c-2.787-3.53-5.76-7.247-11.334-7.432h-.372c-4.087,0-6.131,2.973-7.989,5.76-1.487,2.415-2.973,4.645-5.575,5.2-5.76,1.487-11.334-.557-16.351-5.945l-1.3,1.3c5.388,5.76,11.705,7.99,18.023,6.318,3.159-.929,5.017-3.531,6.689-5.946,1.858-2.787,3.53-5.2,6.875-5.017,4.645.186,7.061,3.159,9.848,6.689a36.333,36.333,0,0,0,5.2,5.574,9.227,9.227,0,0,0,5.761,1.673,10.578,10.578,0,0,0,2.415-.186,26.785,26.785,0,0,0,16.351-10.22c.743-1.115,1.858-2.787,2.973-4.831C1068.194,4892.786,1071.538,4886.84,1074.883,4883.681Z" transform="translate(-656.186 -4670.651)" fill="#e2e2f7"/>
  <path id="Path_147" data-name="Path 147" d="M1069.309,4807.128c2.973.557,5.76,1.3,8.361,1.858,17.28,4.831,28.243,15.794,31.773,32.145a38.634,38.634,0,0,1,.558,14.493l1.672.371a41.61,41.61,0,0,0-.558-15.05c-3.53-16.909-14.864-28.429-32.888-33.446-2.787-.743-5.574-1.3-8.547-2.044-12.077-2.6-24.527-5.2-28.429-16.165l-1.672.558C1043.853,4801.739,1057.417,4804.526,1069.309,4807.128Z" transform="translate(-656.186 -4670.651)" fill="#e2e2f7"/>
  <path id="Path_148" data-name="Path 148" d="M861.575,4703.075a19.477,19.477,0,0,0-4.831,15.05c.743,7.619,5.574,15.794,12.635,21.183a18.056,18.056,0,0,0,11.52,4.273,18.8,18.8,0,0,0,5.388-.743l-.371-1.672c-5.761,1.486-10.777.557-15.423-3.159-6.689-5.2-11.334-12.821-12.077-19.882a17.038,17.038,0,0,1,4.459-13.749c7.99-9.662,15.608-10.22,25.456-7.99l.372-1.672C878.669,4692.3,870.122,4692.855,861.575,4703.075Z" transform="translate(-656.186 -4670.651)" fill="#e2e2f7"/>
  <path id="Path_149" data-name="Path 149" d="M661.459,4959.862c-3.159-5.945-4.645-10.591-3.159-14.864,1.487-4.088,5.76-7.8,13.564-11.52,9.476-4.46,13.193-14.865,16.909-24.9,2.415-6.875,5.017-13.75,9.29-19.138,5.946-7.618,10.777-9.476,19.138-7.247l.372-1.672c-9.1-2.23-14.493-.186-20.811,7.99-4.459,5.388-7.06,12.635-9.476,19.51-3.716,10.219-7.06,19.881-15.979,23.969-8.176,3.9-12.821,7.8-14.493,12.449-1.673,4.831.185,10.034,3.344,16.351Z" transform="translate(-656.186 -4670.651)" fill="#e2e2f7"/>
  <path id="Path_150" data-name="Path 150" d="M849.125,4675.947c10.034-4.645,22.3-4.645,33.26,0l.743-1.672a43.007,43.007,0,0,0-34.56,0c-11.334,5.2-19.7,15.236-24.341,29.543l1.672.558C830.173,4690.812,838.349,4680.964,849.125,4675.947Z" transform="translate(-656.186 -4670.651)" fill="#e2e2f7"/>
  <path id="Path_151" data-name="Path 151" d="M801.373,4718.5c8.918-3.9,20.81-2.787,33.259,2.973l.744-1.672c-13.007-6.132-25.27-7.247-34.747-2.973a22.444,22.444,0,0,0-13.006,14.493l1.672.557A20.59,20.59,0,0,1,801.373,4718.5Z" transform="translate(-656.186 -4670.651)" fill="#e2e2f7"/>
  <path id="Path_152" data-name="Path 152" d="M736.711,4806.2c-1.115-12.635,3.716-28.057,12.264-39.02,14.121-18.024,32.145-16.165,45.337-15.051a61.749,61.749,0,0,0,9.662.558l-.186-1.672a57.445,57.445,0,0,1-9.29-.558c-13.564-1.3-32.331-3.159-47.01,15.608-8.919,11.334-13.935,27.128-12.635,40.321Z" transform="translate(-656.186 -4670.651)" fill="#e2e2f7"/>
  <path id="Path_153" data-name="Path 153" d="M707.168,4864.914a59.3,59.3,0,0,0,6.5-4.459c4.459-3.531,2.416-8.362.743-12.449-.929-2.416-1.858-4.646-1.858-6.5h-1.672c-.186,2.416.929,4.831,1.858,7.247,1.672,4.088,3.159,7.8-.186,10.4a47.29,47.29,0,0,1-6.317,4.274c-3.159,1.858-5.017,3.158-5.575,6.317l1.673.186C702.708,4867.516,704.2,4866.586,707.168,4864.914Z" transform="translate(-656.186 -4670.651)" fill="#e2e2f7"/>
  <path id="Path_154" data-name="Path 154" d="M734.667,4867.887c-8.175-13.564-12.635-31.773-4.273-41.807,5.76-7.246,19.324-12.263,27.871-10.219,6.5,1.486,10.591,6.317,14.865,11.334,2.973,3.345,5.946,6.875,9.662,9.29,4.088,2.6,8.733,3.345,13.192,4.088,1.672.372,3.531.558,5.2.929l.371-1.672a50.858,50.858,0,0,0-5.2-.929c-4.46-.743-8.733-1.486-12.449-3.716-3.531-2.23-6.5-5.76-9.291-8.919-4.273-5.017-8.733-10.219-15.793-11.892-9.1-2.229-23.412,3.159-29.73,10.777-8.919,10.777-4.459,29.73,4.088,43.851Z" transform="translate(-656.186 -4670.651)" fill="#e2e2f7"/>
  <path id="Path_155" data-name="Path 155" d="M864.919,4750.642l-1.115-1.487c-7.06,5.2-10.033,9.291-9.476,12.821.929,5.2,9.291,7.618,19.882,10.777,9.1,2.6,19.509,5.76,26.57,11.149l1.115-1.487c-7.432-5.574-17.838-8.547-27.128-11.334-9.662-2.787-18.023-5.389-18.767-9.291Q855.723,4757.609,864.919,4750.642Z" transform="translate(-656.186 -4670.651)" fill="#e2e2f7"/>
  <path id="Path_156" data-name="Path 156" d="M825.9,4842.8l1.115,1.486c5.389-4.087,24.341-16.908,38.277-15.422,14.121,1.487,28.8,12.821,39.949,22.483l1.115-1.3c-11.335-9.848-26.2-21.368-40.878-23.041C850.8,4825.523,831.474,4838.715,825.9,4842.8Z" transform="translate(-656.186 -4670.651)" fill="#e2e2f7"/>
  <path id="Path_157" data-name="Path 157" d="M839.649,4807.314c-18.023,5.016-29.358,16.537-32.888,33.445a41.713,41.713,0,0,0-.557,15.051l1.672-.372a38.654,38.654,0,0,1,.557-14.493c3.345-16.165,14.308-27.314,31.774-32.145,2.6-.743,5.388-1.3,8.361-1.858,11.892-2.6,25.456-5.389,29.729-17.28l-1.672-.558c-3.9,10.963-16.351,13.564-28.429,16.166C845.224,4806.013,842.436,4806.57,839.649,4807.314Z" transform="translate(-656.186 -4670.651)" fill="#e2e2f7"/>
  <path id="Path_158" data-name="Path 158" d="M834.447,4773.5l.557-1.672c-10.219-2.973-20.439-.186-24.9,6.689-3.716,5.946-2.23,13.193,4.087,19.882l1.3-1.115c-5.574-6.132-7.061-12.635-3.716-17.838C815.494,4773.311,824.97,4770.709,834.447,4773.5Z" transform="translate(-656.186 -4670.651)" fill="#e2e2f7"/>
  <path id="Path_159" data-name="Path 159" d="M905.611,4763.834a57.225,57.225,0,0,0-17.837-4.459l-.186,1.672a53.656,53.656,0,0,1,17.28,4.274Z" transform="translate(-656.186 -4670.651)" fill="#e2e2f7"/>
  <path id="Path_160" data-name="Path 160" d="M731.694,4898.36v-1.673c-11.334.372-32.144,4.088-38.276,15.608-6.132,12.078.929,26.2,9.476,39.578,3.9,5.946,10.777,10.4,19.324,12.449l.372-1.672c-8.176-2.044-14.493-6.132-18.209-11.706-8.176-12.821-15.051-26.385-9.291-37.72C699.921,4903.562,717.387,4898.917,731.694,4898.36Z" transform="translate(-656.186 -4670.651)" fill="#e2e2f7"/>
  <path id="Path_161" data-name="Path 161" d="M903.2,4718.869c5.017.929,9.662,1.858,13.564,5.388,7.246,6.5,9.848,17.838,6.317,27.5a63.667,63.667,0,0,1-2.415,6.317c-3.159,7.8-5.946,15.237-2.787,24.527a19.153,19.153,0,0,0,.929,2.23c1.3,2.973,2.787,6.689,1.486,9.29-1.486,2.6-5.574,2.973-8.919,3.159-.743,0-1.486.186-2.229.186-11.892,2.044-19.139,9.29-20.811,21l1.672.186c1.487-10.963,7.99-17.466,19.324-19.51.558,0,1.3-.186,2.044-.186,3.716-.371,8.176-.743,10.22-4.088,1.858-3.344,0-7.432-1.3-10.777a14.188,14.188,0,0,1-.743-2.043c-2.973-8.548-.372-15.423,2.787-23.226.743-2.044,1.672-4.088,2.416-6.318,3.716-10.4.929-22.483-6.875-29.358-4.088-3.9-9.1-4.831-14.308-5.76-.929-.186-1.672-.371-2.6-.557a23.77,23.77,0,0,1-9.662-4.274l-1.115,1.487a26.067,26.067,0,0,0,10.4,4.459A14.555,14.555,0,0,1,903.2,4718.869Z" transform="translate(-656.186 -4670.651)" fill="#e2e2f7"/>
  <path id="Path_162" data-name="Path 162" d="M797.842,4769.966a94.779,94.779,0,0,0,13.75-5.574c5.76-3.159,7.432-7.99,9.105-12.449,1.3-3.531,2.6-7.247,5.946-10.406,6.131-6.689,13.192-6.131,21.553-5.76h.558l.186-1.672h-.558c-8.361-.557-16.351-.929-22.854,6.317-3.531,3.531-4.831,7.433-6.318,11.149-1.672,4.459-3.158,8.547-8.361,11.52-3.345,1.858-8.176,3.53-13.564,5.389-16.723,5.945-37.719,13.378-34.932,30.286.929,4.831,3.159,8.548,6.5,10.963a20.5,20.5,0,0,0,11.52,3.159,25.454,25.454,0,0,0,6.318-.743l-.372-1.673c-6.689,1.3-12.635.558-16.537-2.229-3.159-2.23-5.017-5.389-5.946-9.848C761.61,4782.787,781.677,4775.726,797.842,4769.966Z" transform="translate(-656.186 -4670.651)" fill="#e2e2f7"/>
  <path id="Path_163" data-name="Path 163" d="M767,4893.157l1.672.743c.744-1.486,1.487-2.973,2.044-4.273,3.345-6.689,6.5-13.007,5.76-21.554-.557-8.919-5.76-17.28-15.422-24.713l-1.115,1.487c9.291,7.246,14.308,15.05,14.865,23.6.743,7.989-2.415,14.121-5.574,20.624A40.6,40.6,0,0,0,767,4893.157Z" transform="translate(-656.186 -4670.651)" fill="#e2e2f7"/>
  <path id="Path_164" data-name="Path 164" d="M745.816,4913.41c8.361-1.672,15.979,0,21.925,4.645,6.318,5.017,10.034,13.193,10.22,22.112.186,10.219,8.733,13.006,15.608,15.422,4.088,1.486,7.618,2.6,8.361,5.017.558,1.672-.371,3.9-2.415,6.875L801,4968.6c2.6-3.53,3.345-6.131,2.787-8.361-.929-3.159-5.017-4.459-9.476-6.132-6.689-2.229-14.307-4.831-14.493-13.75-.186-9.662-4.088-18.209-10.777-23.6-6.317-5.017-14.493-6.875-23.412-5.017-8.175,1.672-14.121,6.132-19.138,10.591l1.115,1.3C732.438,4919.356,738.012,4915.083,745.816,4913.41Z" transform="translate(-656.186 -4670.651)" fill="#e2e2f7"/>
  <path id="Path_165" data-name="Path 165" d="M942.959,4757.888c-2.973,3.717-5.946,7.433-7.061,11.706l1.672.372c1.115-3.9,3.9-7.432,6.689-10.963,5.017-6.317,10.406-13.006,5.76-21.553l-1.486.743C952.621,4745.811,947.79,4751.757,942.959,4757.888Z" transform="translate(-656.186 -4670.651)" fill="#e2e2f7"/>
  <path id="Path_166" data-name="Path 166" d="M944.817,4819.019c-4.645,1.487-13.007-4.645-16.537-7.432l-1.115,1.487c5.388,4.087,11.334,7.989,15.98,7.989a6.666,6.666,0,0,0,2.043-.371c2.044-.743,3.345-2.416,4.274-4.831,1.487-4.274.929-7.618.372-11.149a27.861,27.861,0,0,1-.558-6.875c.186-2.044-.186-5.574-.929-10.962l-1.672.185a79.381,79.381,0,0,1,.929,10.592,29.467,29.467,0,0,0,.557,7.246c.558,3.53.929,6.689-.371,10.405A4.792,4.792,0,0,1,944.817,4819.019Z" transform="translate(-656.186 -4670.651)" fill="#e2e2f7"/>
  <path id="Path_167" data-name="Path 167" d="M916.574,4700.659l-.186-1.672a12.955,12.955,0,0,1-13.378-8.175c-1.3-3.159-.743-6.132,1.3-7.8,3.158-2.788,7.8-3.9,13.378-3.345,7.432.929,15.05,4.645,18.395,9.476,7.246,9.662,5.946,23.6,3.53,33.632l1.672.371c2.416-10.219,3.717-24.712-3.716-34.932-3.53-5.017-11.706-9.29-19.51-10.219-6.131-.743-11.334.557-14.678,3.716-2.6,2.044-3.345,5.76-1.673,9.848A14.34,14.34,0,0,0,916.574,4700.659Z" transform="translate(-656.186 -4670.651)" fill="#e2e2f7"/>
  <path id="Path_168" data-name="Path 168" d="M944.631,4830.911l-1.672.743C955.036,4856,955.78,4888.7,945,4921.214l1.672.558C957.638,4888.884,956.709,4855.624,944.631,4830.911Z" transform="translate(-656.186 -4670.651)" fill="#e2e2f7"/>
  <path id="Path_169" data-name="Path 169" d="M945.56,4965.808l1.672-.371c-7.06-26.943-25.27-36.976-57.229-31.959l.372,1.672C921.219,4930.133,938.685,4939.981,945.56,4965.808Z" transform="translate(-656.186 -4670.651)" fill="#e2e2f7"/>
  <path id="Path_170" data-name="Path 170" d="M854.886,4901.89c3.344,5.017,10.219,9.291,16.351,10.22a11.47,11.47,0,0,0,2.415.185,9.6,9.6,0,0,0,5.76-1.672,36.342,36.342,0,0,0,5.2-5.574c2.787-3.53,5.2-6.5,9.848-6.689,3.344-.186,5.017,2.229,6.875,5.017,1.672,2.6,3.344,5.2,6.689,5.945,6.317,1.487,12.635-.557,18.023-6.317l-1.3-1.3c-5.017,5.389-10.591,7.247-16.352,5.946-2.6-.743-4.087-2.973-5.574-5.2-1.858-2.788-3.9-5.76-7.99-5.76h-.371c-5.574.185-8.362,3.9-11.335,7.432a33.829,33.829,0,0,1-5.016,5.388,8.815,8.815,0,0,1-6.689,1.115c-5.575-.929-12.078-5.017-15.051-9.476-.743-1.115-1.672-2.787-2.787-4.645-2.6-4.645-5.946-10.406-9.476-13.75l-1.3,1.3c3.345,3.158,6.689,9.1,9.105,13.378C853.213,4899.1,854.142,4900.775,854.886,4901.89Z" transform="translate(-656.186 -4670.651)" fill="#e2e2f7"/>
</svg>
