<svg xmlns="http://www.w3.org/2000/svg" width="28.441" height="26" viewBox="0 0 28.441 26">
  <g id="Group_193" data-name="Group 193" transform="translate(-1140.531 -1098.935)" opacity="0.4">
    <path id="Path_115" data-name="Path 115" d="M1153.109,1124.935h0a1.427,1.427,0,0,1-1.421-1.429v-11.4l-10.75-10.768a1.413,1.413,0,0,1-.3-1.543,1.375,1.375,0,0,1,1.289-.864h25.623a1.4,1.4,0,0,1,.992,2.407l-10.75,10.768v9.216a1.392,1.392,0,0,1-.632,1.191l-3.287,2.181A1.345,1.345,0,0,1,1153.109,1124.935Zm-11.179-24.819a.2.2,0,0,0-.2.135.234.234,0,0,0,.04.255l11.1,11.115v11.885a.231.231,0,0,0,.347.213l3.3-2.187a.223.223,0,0,0,.106-.206v-9.705l11.1-11.115a.221.221,0,0,0-.158-.39Zm15.686,9.872a.966.966,0,0,1-.7-.3.989.989,0,0,1,0-1.411l7.392-7.4a1.009,1.009,0,0,1,1.409,0,.989.989,0,0,1,0,1.411l-7.391,7.4A.953.953,0,0,1,1157.616,1109.988Z" fill="#e2e2f7"/>
  </g>
</svg>
