<svg id="icon-library" xmlns="http://www.w3.org/2000/svg" width="22" height="26" viewBox="0 0 22 26">
  <g id="Group_191" data-name="Group 191" transform="translate(-475.9 -1098.864)" opacity="0.4">
    <path id="Path_110" data-name="Path 110" d="M481.2,1124.823h-3.168a2.129,2.129,0,0,1-2.127-2.127V1107.17a2.129,2.129,0,0,1,2.127-2.127H481.2a2.129,2.129,0,0,1,2.127,2.127V1122.7A2.129,2.129,0,0,1,481.2,1124.823Zm-3.168-18.537a.885.885,0,0,0-.884.884V1122.7a.885.885,0,0,0,.884.884H481.2a.884.884,0,0,0,.884-.884V1107.17a.884.884,0,0,0-.884-.884Z" transform="translate(0 -0.098)" fill="#e2e2f7"/>
    <path id="Path_111" data-name="Path 111" d="M492.631,1124.962a2.132,2.132,0,0,1-2.109-1.853l-1.994-15.4a2.13,2.13,0,0,1,1.836-2.382l3.143-.407a2.132,2.132,0,0,1,2.382,1.836l1.993,15.4a2.131,2.131,0,0,1-1.836,2.382l-3.142.407A2.07,2.07,0,0,1,492.631,1124.962Zm1.148-18.815-3.255.414a.884.884,0,0,0-.763.99l1.993,15.4a.89.89,0,0,0,.991.763l3.142-.407a.888.888,0,0,0,.763-.99l-1.994-15.4A.886.886,0,0,0,493.779,1106.147Z" transform="translate(0 -0.098)" fill="#e2e2f7"/>
    <path id="Path_112" data-name="Path 112" d="M487.375,1124.725h-3.169a2.126,2.126,0,0,1-2.127-2.119v-21.623a2.126,2.126,0,0,1,2.127-2.119h3.169a2.125,2.125,0,0,1,2.126,2.119v21.623A2.125,2.125,0,0,1,487.375,1124.725Zm-3.169-24.624a.884.884,0,0,0-.884.882v21.623a.883.883,0,0,0,.884.881h3.169a.883.883,0,0,0,.884-.881v-21.623a.884.884,0,0,0-.884-.882Z" fill="#e2e2f7"/>
  </g>
</svg>
