<svg xmlns="http://www.w3.org/2000/svg" width="25" height="25" viewBox="0 0 25 25">
  <g id="link" transform="translate(-11.505 -963.867)">
    <path id="Path_3040" data-name="Path 3040" d="M21.479,987.159a5.845,5.845,0,1,1-8.266-8.266l4.592-4.592a5.854,5.854,0,0,1,8.266,0,.974.974,0,1,1-1.378,1.378,3.867,3.867,0,0,0-5.511,0l-4.592,4.592a3.9,3.9,0,1,0,5.511,5.51l4.363-4.363a.974.974,0,1,1,1.378,1.378l-4.363,4.363Zm8.725-8.725a5.854,5.854,0,0,1-8.266,0,.974.974,0,1,1,1.378-1.378,3.867,3.867,0,0,0,5.511,0l4.592-4.592a3.9,3.9,0,1,0-5.511-5.511l-4.363,4.363a.974.974,0,1,1-1.378-1.378l4.363-4.363a5.845,5.845,0,1,1,8.266,8.266L30.2,978.434Z" transform="translate(0 0)" fill="#fff"/>
  </g>
</svg>
