<svg id="icon-lock" xmlns="http://www.w3.org/2000/svg" width="26" height="35.747" viewBox="0 0 26 35.747">
  <path id="Path_119" data-name="Path 119" d="M462.02,1544.808H460.4v-6.5a8.937,8.937,0,0,0-17.875,0v6.5h-1.626a2.441,2.441,0,0,0-2.437,2.437v15.437a2.441,2.441,0,0,0,2.437,2.437H462.02a2.441,2.441,0,0,0,2.437-2.437v-15.437A2.441,2.441,0,0,0,462.02,1544.808Zm-17.875-6.5a7.312,7.312,0,0,1,14.625,0v6.5H444.144Zm18.686,24.374a.814.814,0,0,1-.813.813H440.894a.814.814,0,0,1-.813-.813v-15.437a.814.814,0,0,1,.813-.813H462.02a.814.814,0,0,1,.813.813v15.437Z" transform="translate(-438.457 -1529.373)" fill="#1e1e1d"/>
  <path id="Path_120" data-name="Path 120" d="M455.992,1552.39a4.6,4.6,0,0,0-3.94-.868,4.579,4.579,0,0,0-1.664,8.117v2.771a2.753,2.753,0,0,0,5.506,0v-2.771a4.572,4.572,0,0,0,.1-7.249Zm-1.479,5.963a.921.921,0,0,0-.456.794v3.261a.919.919,0,1,1-1.837,0v-3.261a.919.919,0,0,0-.456-.794,2.744,2.744,0,0,1,.7-5.044,2.758,2.758,0,0,1,3.426,2.675A2.717,2.717,0,0,1,454.513,1558.353Z" transform="translate(-440.141 -1534.004)" fill="#1e1e1d"/>
</svg>
