<svg id="Group_189" data-name="Group 189" xmlns="http://www.w3.org/2000/svg" width="75" height="63.968" viewBox="0 0 75 63.968">
  <g id="Group_2" data-name="Group 2" transform="translate(0 29.204)">
    <g id="Group_1" data-name="Group 1">
      <path id="Path_1" data-name="Path 1" d="M103.754,78.564c0,1.164-.857,1.746-2.588,1.746H99.573A3.755,3.755,0,0,1,97.919,80,1.482,1.482,0,0,1,97,78.564v-3c0-1.18.857-1.762,2.588-1.762h1.592a4.078,4.078,0,0,1,1.7.245,1.5,1.5,0,0,1,.888,1.516v3Zm-1.026-.031v-2.94c0-.551-.521-.827-1.547-.827H99.573q-1.562,0-1.562.827v2.94c0,.536.52.8,1.562.8H101.2C102.222,79.329,102.728,79.07,102.728,78.533Z" transform="translate(-97 -73.725)" fill="#fff"/>
      <path id="Path_2" data-name="Path 2" d="M116.373,79.575c0,.49-.184.751-.567.751a.9.9,0,0,1-.581-.322l-4.748-4.717v4.579a.383.383,0,0,1-.214.4c-.046,0-.107.016-.169.016s-.169.016-.26.016c-.245,0-.352-.138-.352-.429V74.429c0-.475.169-.7.521-.7a.978.978,0,0,1,.674.337l4.7,4.656V74.185a.384.384,0,0,1,.214-.4c.046,0,.107-.016.169-.016s.169-.015.26-.015q.367,0,.367.413v5.406Z" transform="translate(-101.992 -73.694)" fill="#fff"/>
      <path id="Path_3" data-name="Path 3" d="M128.262,79.907c0,.275-.122.429-.352.429h-3.262a5.225,5.225,0,0,1-1.745-.23,1.46,1.46,0,0,1-.965-1.486V74.24c0-.275.122-.413.352-.413a2.244,2.244,0,0,1,.444.031c.153.046.214.184.214.383v4.38c0,.337.23.566.7.674a4.594,4.594,0,0,0,1.042.077h3.216C128.154,79.34,128.262,79.524,128.262,79.907Z" transform="translate(-107.083 -73.735)" fill="#fff"/>
      <path id="Path_4" data-name="Path 4" d="M134.647,79.886c0,.275-.122.429-.352.429a1.22,1.22,0,0,1-.26-.016.739.739,0,0,0-.169-.016c-.153-.046-.214-.184-.214-.4V74.205a.384.384,0,0,1,.214-.4c.031,0,.092-.016.154-.016s.168-.015.291-.015c.245,0,.352.138.352.413v5.7Z" transform="translate(-111.808 -73.715)" fill="#fff"/>
      <path id="Path_5" data-name="Path 5" d="M143.479,79.575c0,.49-.184.751-.566.751A.9.9,0,0,1,142.33,80l-4.748-4.717v4.579a.383.383,0,0,1-.214.4c-.046,0-.107.016-.169.016s-.168.016-.26.016c-.245,0-.352-.138-.352-.429V74.429c0-.475.169-.7.521-.7a.978.978,0,0,1,.674.337l4.7,4.656V74.185a.384.384,0,0,1,.214-.4c.046,0,.107-.016.169-.016.077,0,.169-.015.26-.015q.367,0,.368.413v5.406Z" transform="translate(-113.008 -73.694)" fill="#fff"/>
      <path id="Path_6" data-name="Path 6" d="M155.3,77.048c0,.352-.123.521-.383.521h-4.9v1.072c0,.46.429.689,1.3.689h3.6c.245,0,.352.138.352.429,0,.368-.123.551-.352.551h-3.645a3.146,3.146,0,0,1-1.47-.337,1.377,1.377,0,0,1-.812-1.3V75.455a1.389,1.389,0,0,1,.275-.842,2.443,2.443,0,0,1,2.1-.812h1c.23,0,.352.184.352.551,0,.276-.122.429-.352.429h-.352a.794.794,0,0,1-.2-.016h-.137c-1.118,0-1.67.23-1.67.7V76.6h4.931C155.179,76.589,155.3,76.742,155.3,77.048Z" transform="translate(-118.022 -73.725)" fill="#fff"/>
      <path id="Path_7" data-name="Path 7" d="M165.914,79.886c0,.275-.122.429-.352.429a1.22,1.22,0,0,1-.26-.016.739.739,0,0,0-.169-.016c-.153-.046-.214-.184-.214-.4V74.205a.384.384,0,0,1,.214-.4c.031,0,.092-.016.153-.016.077,0,.169-.015.291-.015.245,0,.352.138.352.413v5.7Z" transform="translate(-124.441 -73.715)" fill="#fff"/>
      <path id="Path_8" data-name="Path 8" d="M173.847,79.907c0,.275-.122.429-.352.429h-3.262a5.226,5.226,0,0,1-1.746-.23,1.46,1.46,0,0,1-.965-1.486V74.24c0-.275.122-.413.352-.413a2.244,2.244,0,0,1,.444.031c.154.046.215.184.215.383v4.38c0,.337.23.566.7.674a4.584,4.584,0,0,0,1.041.077h3.216C173.724,79.34,173.847,79.524,173.847,79.907Z" transform="translate(-125.514 -73.735)" fill="#fff"/>
      <path id="Path_9" data-name="Path 9" d="M180.233,79.886c0,.275-.123.429-.352.429a1.22,1.22,0,0,1-.26-.016.739.739,0,0,0-.169-.016c-.153-.046-.214-.184-.214-.4V74.205a.384.384,0,0,1,.214-.4c.031,0,.092-.016.153-.016.077,0,.169-.015.291-.015.245,0,.352.138.352.413v5.7Z" transform="translate(-130.226 -73.715)" fill="#fff"/>
      <path id="Path_10" data-name="Path 10" d="M189.585,79.815a.613.613,0,0,1-.138.413.458.458,0,0,1-.352.169.536.536,0,0,1-.475-.322l-.9-1.532h-4.288l-.9,1.532c-.092.168-.2.245-.322.245a.562.562,0,0,1-.322-.122.38.38,0,0,1-.169-.322.225.225,0,0,1,.031-.107l3.216-5.743a.72.72,0,0,1,.674-.352.473.473,0,0,1,.475.23c0,.015.015.031.015.046a.265.265,0,0,0,.031.077l3.415,5.636A.336.336,0,0,1,189.585,79.815Zm-2.466-2.251L185.572,74.9l-1.547,2.665Z" transform="translate(-131.26 -73.674)" fill="#fff"/>
      <path id="Path_11" data-name="Path 11" d="M202.541,78.462c0,1.241-1.011,1.853-3.047,1.853h-.23a2.442,2.442,0,0,1-.322-.016,2.018,2.018,0,0,1-.322-.016,1.164,1.164,0,0,0-.23,0c-1.424,0-2.3-.306-2.588-.934a2.056,2.056,0,0,1-.154-.889V74.205c0-.276.122-.414.352-.414a2.437,2.437,0,0,1,.445.031.354.354,0,0,1,.229.383v4.181a.816.816,0,0,0,.643.827,2.839,2.839,0,0,0,.46.076c.169.016.383.031.628.031h1.409a3.315,3.315,0,0,0,1.072-.107.815.815,0,0,0,.643-.827v-4.2c0-.214.077-.337.215-.383a2.128,2.128,0,0,1,.444-.031c.245,0,.352.138.352.413Z" transform="translate(-136.959 -73.715)" fill="#fff"/>
      <path id="Path_12" data-name="Path 12" d="M215.3,79.575c0,.49-.184.751-.567.751a.9.9,0,0,1-.581-.322l-4.748-4.717v4.579a.383.383,0,0,1-.214.4c-.046,0-.107.016-.169.016-.077,0-.169.016-.26.016-.245,0-.352-.138-.352-.429V74.429c0-.475.169-.7.521-.7a.978.978,0,0,1,.674.337l4.7,4.656V74.185a.384.384,0,0,1,.214-.4c.046,0,.107-.016.169-.016.077,0,.169-.015.26-.015q.367,0,.367.413v5.406Z" transform="translate(-142.064 -73.694)" fill="#fff"/>
      <path id="Path_13" data-name="Path 13" d="M222.143,79.886c0,.275-.123.429-.353.429a1.217,1.217,0,0,1-.26-.016.742.742,0,0,0-.169-.016c-.153-.046-.215-.184-.215-.4V74.205a.384.384,0,0,1,.215-.4c.031,0,.092-.016.153-.016.077,0,.169-.015.291-.015.245,0,.352.138.352.413v5.7Z" transform="translate(-147.158 -73.715)" fill="#fff"/>
    </g>
  </g>
  <g id="Group_4" data-name="Group 4" transform="translate(9.878 0.268)">
    <g id="Group_3" data-name="Group 3">
      <path id="Path_14" data-name="Path 14" d="M123.16,74.583a.863.863,0,0,0,.683.367,1.4,1.4,0,0,1,.395.107,2.375,2.375,0,0,1,.759.536l.091-.107a2.935,2.935,0,0,0-.8-.567,1.737,1.737,0,0,0-.425-.107.691.691,0,0,1-.577-.306c-.213-.306-.091-.628.061-1a1.885,1.885,0,0,0,.2-.95.941.941,0,0,0-1.427-.827l.061.138a.974.974,0,0,1,.85-.016.914.914,0,0,1,.394.72,1.828,1.828,0,0,1-.182.888A1.037,1.037,0,0,0,123.16,74.583Zm33.948-37.321a2.517,2.517,0,0,0-1.29.98,3.462,3.462,0,0,1-.759.735,2.536,2.536,0,0,1-1.017.306c-.136.031-.288.046-.424.077l.03.138a4.206,4.206,0,0,1,.424-.077,2.77,2.77,0,0,0,1.078-.337,4.177,4.177,0,0,0,.789-.766,2.354,2.354,0,0,1,1.214-.934,2.614,2.614,0,0,1,2.276.842c.683.827.319,2.328-.349,3.446l.121.077c.683-1.164,1.062-2.726.334-3.614A2.856,2.856,0,0,0,157.107,37.262Zm-3.7-5.207-.015.138a5.044,5.044,0,0,0,.789-.046,3.665,3.665,0,0,1,3.7,1.241,4.745,4.745,0,0,1,1,3.216l.137.015a5.025,5.025,0,0,0-1.032-3.323,3.791,3.791,0,0,0-3.839-1.286A4.352,4.352,0,0,1,153.4,32.055Zm-2.489-2.42a3.289,3.289,0,0,1,2.717-.245,1.729,1.729,0,0,1,.986,1.1l.137-.046a1.884,1.884,0,0,0-1.062-1.195,3.508,3.508,0,0,0-2.838.245Zm-1.2-3.752a3.678,3.678,0,0,1,1.912,2.343l.137-.046a3.912,3.912,0,0,0-1.988-2.435,3.486,3.486,0,0,0-2.822,0l.061.138A3.448,3.448,0,0,1,149.717,25.883ZM159.748,46.19a3.4,3.4,0,0,0-1.563-.873,2.3,2.3,0,0,0-1.912.413,2.528,2.528,0,0,0-.88,1.945c-.015.736-.637.95-1.184,1.133-.379.122-.7.245-.774.505-.061.184.015.4.228.689l.121-.092c-.182-.245-.243-.429-.2-.567.061-.2.349-.29.683-.413.562-.2,1.26-.428,1.275-1.271a2.357,2.357,0,0,1,.835-1.822,2.082,2.082,0,0,1,1.791-.383,3.151,3.151,0,0,1,1.5.842Zm-4.431,33.6a1.711,1.711,0,0,0,1.427-.766,1.416,1.416,0,0,0,.106-1.24l-.137.046a1.3,1.3,0,0,1-.091,1.118,1.6,1.6,0,0,1-1.32.689,3.236,3.236,0,0,1-2.626-.919l-.106.107a3.36,3.36,0,0,0,2.382.98A2.951,2.951,0,0,0,155.317,79.789Zm5.463-38.714c.212.168.394.275.531.367.243.138.364.215.395.413l.137-.015c-.046-.26-.2-.368-.455-.521-.137-.092-.319-.2-.516-.352-.273-.23-.152-.521-.015-.857a1.514,1.514,0,0,0,.152-.6h-.137a1.158,1.158,0,0,1-.152.536C160.583,40.4,160.416,40.784,160.78,41.075ZM157,39.789l-.091-.123a2.806,2.806,0,0,0-1.259,2.037,3.179,3.179,0,0,0,.47,1.777c.061.122.121.245.167.352l.137-.061-.183-.368a3.1,3.1,0,0,1-.455-1.7A2.725,2.725,0,0,1,157,39.789Zm5.4,28.346a5.257,5.257,0,0,0-.819,1.026l.121.061a4.958,4.958,0,0,1,.789-1,4.728,4.728,0,0,0,.9-1.164,2.8,2.8,0,0,0,.106-1.9l-.137.046A2.586,2.586,0,0,1,163.269,67,4.4,4.4,0,0,1,162.4,68.135Zm-7.36,9.985a2.917,2.917,0,0,0-.7-2.389l-.091.107a2.718,2.718,0,0,1,.652,2.251Zm-6.45-49.909a1.454,1.454,0,0,1,.349,1.133,2.514,2.514,0,0,1-.986,1.639,1.329,1.329,0,0,1-1.259.26l-.03.138a1.511,1.511,0,0,0,.44.061,1.441,1.441,0,0,0,.941-.352,2.646,2.646,0,0,0,1.032-1.746,1.613,1.613,0,0,0-.395-1.24,1.976,1.976,0,0,0-2.231-.7l.03.138A1.917,1.917,0,0,1,148.594,28.211ZM134.876,82.163l-.137-.061a2.274,2.274,0,0,1-2.019,1.271v.138A2.388,2.388,0,0,0,134.876,82.163Zm1.017,1.654a2.711,2.711,0,0,0-2.489,1.164l.121.077a2.558,2.558,0,0,1,2.337-1.1,1.225,1.225,0,0,1,1.108.766l.137-.046A1.358,1.358,0,0,0,135.892,83.817Zm-2.458-3.154c-1.2.046-2.368-.107-2.792-1.577a2.5,2.5,0,0,1-.076-.889,3.648,3.648,0,0,0-.015-.7,2.052,2.052,0,0,0-1.108-1.394c-.121-.076-.243-.137-.364-.214a2.482,2.482,0,0,1-.986-.8,1.683,1.683,0,0,1-.228-.674,2.374,2.374,0,0,0-.182-.613,4.986,4.986,0,0,0-2.884-1.93l-.046.138a4.9,4.9,0,0,1,2.793,1.868,2.688,2.688,0,0,1,.167.566,1.928,1.928,0,0,0,.258.735,2.731,2.731,0,0,0,1.032.842c.121.061.243.138.364.214a1.89,1.89,0,0,1,1.032,1.3,3.357,3.357,0,0,1,.015.674,2.469,2.469,0,0,0,.076.934c.455,1.577,1.73,1.73,2.929,1.669a2.431,2.431,0,0,1,1.624.413,2.284,2.284,0,0,0,1.214.337v-.137a2.2,2.2,0,0,1-1.153-.322A2.444,2.444,0,0,0,133.434,80.663Zm-1.912-39.955a3.744,3.744,0,0,1,2.671,1.026c.577.536,1.047.919,1.715.827l-.015-.137c-.607.076-1.047-.291-1.609-.8a3.908,3.908,0,0,0-2.777-1.057,4.265,4.265,0,0,0-2.868,1.685.738.738,0,0,0-.167.582c.106.812,1.426,1.746,2.14,2.236.061.046.121.077.182.123-1.4-.368-1.715.337-2,.98a2.005,2.005,0,0,1-.455.735.275.275,0,0,0-.061.077l.106.107.061-.061a2.258,2.258,0,0,0,.486-.781c.3-.659.576-1.286,1.988-.842.091.031.182.061.212-.016.046-.076-.015-.122-.425-.413-.637-.444-1.988-1.393-2.079-2.144a.637.637,0,0,1,.137-.46A4.077,4.077,0,0,1,131.522,40.707Zm6.4,45.606a1.31,1.31,0,0,1-.926.965,6.814,6.814,0,0,1-5.22-.812l-.091.122a7.253,7.253,0,0,0,3.869,1.057,4.48,4.48,0,0,0,1.5-.23,1.463,1.463,0,0,0,1.017-1.072,3.141,3.141,0,0,1,.653-1.317,2.042,2.042,0,0,0,.546-1.761,4.155,4.155,0,0,0-.455-1.271l-.121.061a4.809,4.809,0,0,1,.44,1.225,1.871,1.871,0,0,1-.516,1.654A2.938,2.938,0,0,0,137.926,86.313Zm4.416-56.586a3.441,3.441,0,0,1,.288-2.772,2.281,2.281,0,0,1,1.5-.781,1.376,1.376,0,0,1,1.093.275.53.53,0,0,1,.091.643,1.084,1.084,0,0,1-1.093.674l-.015.137a1.192,1.192,0,0,0,1.244-.766.7.7,0,0,0-.137-.812,1.5,1.5,0,0,0-1.214-.306,2.328,2.328,0,0,0-1.593.842,3.519,3.519,0,0,0-.3,2.879ZM139.5,74.506a2.343,2.343,0,0,0,.44-2.465,5.272,5.272,0,0,0-.288-.521,1.24,1.24,0,0,1-.258-1.087,4.6,4.6,0,0,1,.243-.827c.03-.076.061-.168.091-.245l-.136-.046c-.03.077-.061.169-.091.245a4.11,4.11,0,0,0-.258.842,1.416,1.416,0,0,0,.288,1.194,3.809,3.809,0,0,1,.273.49,2.237,2.237,0,0,1-.425,2.328Zm5.782-45.223a2.079,2.079,0,0,0-1.168.475,2.32,2.32,0,0,0-.562,2.419,5.321,5.321,0,0,0,.2.521,2.551,2.551,0,0,1,.228,1.915c-.015.046-.046.107-.061.168-.106.276-.258.613-.106.889.167.275.532.306.835.337.061,0,.121.016.167.016a1.744,1.744,0,0,1,1.578,1.608l.137-.016a1.917,1.917,0,0,0-1.7-1.73c-.061,0-.121-.015-.182-.015-.258-.031-.592-.046-.713-.26-.106-.215.015-.521.106-.766.03-.061.046-.122.076-.184a2.726,2.726,0,0,0-.228-2.021c-.061-.169-.137-.337-.2-.521a2.136,2.136,0,0,1,.516-2.266,2.031,2.031,0,0,1,1.108-.444l.212-.046a2.114,2.114,0,0,0,.85-.368l-.091-.122a1.93,1.93,0,0,1-.79.352A1.493,1.493,0,0,1,145.286,29.283Zm-3.4,16.815a9.972,9.972,0,0,1,.167-7.381l-.137-.061a10.173,10.173,0,0,0-.182,7.489Zm.607-12.466.136-.031a2.769,2.769,0,0,0-.576-.965c-.41-.505-.79-1-.455-1.623l-.121-.062c-.364.72.061,1.256.47,1.777A2.577,2.577,0,0,1,142.494,33.632Zm19.591,9.847a5.724,5.724,0,0,1,.759,1.562,3.269,3.269,0,0,0,1.381,2.052,1.922,1.922,0,0,1,1.108.95,1.633,1.633,0,0,1-.258,1.225l.121.061a1.78,1.78,0,0,0,.273-1.348,1.992,1.992,0,0,0-1.184-1.026c-.713-.337-1-1.133-1.305-1.976a5.25,5.25,0,0,0-.774-1.608,1.432,1.432,0,0,0-1.7-.658l.03.137A1.32,1.32,0,0,1,162.085,43.479ZM145.6,83.817a1.4,1.4,0,0,0-1.229.858l.136.046a1.3,1.3,0,0,1,1.108-.766,2.543,2.543,0,0,1,2.337,1.1l.121-.077A2.691,2.691,0,0,0,145.6,83.817Zm3.157-.444a2.321,2.321,0,0,1-2.019-1.271l-.136.061a2.422,2.422,0,0,0,2.14,1.363ZM146.5,76.252a6.115,6.115,0,0,0-.531.352,2.454,2.454,0,0,1-1.624.674l-.015.137a.718.718,0,0,0,.182.016,2.977,2.977,0,0,0,1.548-.7c.182-.122.349-.245.516-.352a9.679,9.679,0,0,1,2.883-.95,15.186,15.186,0,0,0,1.867-.475,3.2,3.2,0,0,0,1.912-2.343c.121-.322.243-.643.394-.965l-.137-.061c-.152.322-.273.658-.394.98-.349.965-.7,1.868-1.837,2.251a14.2,14.2,0,0,1-1.851.475A9.719,9.719,0,0,0,146.5,76.252Zm4.31-31.3c-.41.291-.47.322-.425.413s.137.046.212.016c1.411-.444,1.685.184,1.988.842a2.32,2.32,0,0,0,.486.781l.061.061.106-.107c-.015-.031-.046-.046-.076-.077a2.049,2.049,0,0,1-.44-.735,1.433,1.433,0,0,0-2-.98c.061-.046.121-.076.182-.122.714-.505,2.033-1.424,2.14-2.236a.738.738,0,0,0-.167-.582,4.208,4.208,0,0,0-2.868-1.685,3.85,3.85,0,0,0-2.777,1.072c-.561.505-1,.873-1.608.8l-.015.138a2.144,2.144,0,0,0,1.715-.827,3.742,3.742,0,0,1,2.671-1.026,4.024,4.024,0,0,1,2.762,1.639.525.525,0,0,1,.137.459C152.783,43.556,151.447,44.505,150.81,44.949Zm-8,37.106-.121-.061a4.588,4.588,0,0,0-.455,1.271,2.041,2.041,0,0,0,.546,1.761,2.817,2.817,0,0,1,.652,1.317,1.437,1.437,0,0,0,1.017,1.072,4.422,4.422,0,0,0,1.5.23,7.3,7.3,0,0,0,3.87-1.057l-.091-.122a6.882,6.882,0,0,1-5.221.812,1.311,1.311,0,0,1-.926-.965,3.238,3.238,0,0,0-.683-1.378,1.871,1.871,0,0,1-.516-1.654A4.37,4.37,0,0,1,142.812,82.056ZM164.27,70.019a3.535,3.535,0,0,0-1.047.2,2.093,2.093,0,0,0-.986.934c-.364.521-.683.98-1.4.72-.455-.169-.395-.842-.349-1.439l-.137-.016c-.061.613-.121,1.378.44,1.577a1.261,1.261,0,0,0,.441.092c.531,0,.834-.428,1.123-.857a1.97,1.97,0,0,1,.926-.873,3.149,3.149,0,0,1,1.017-.184,3.913,3.913,0,0,0,1.078-.2,1.947,1.947,0,0,0,1.108-1.225l-.137-.046a1.831,1.831,0,0,1-1.017,1.149A5.351,5.351,0,0,1,164.27,70.019Zm-22.535-4.962a3.348,3.348,0,0,0-.2,1.9l.136-.031a3.051,3.051,0,0,1,.183-1.807Zm18.332-15.544.03.138a2.517,2.517,0,0,0,1.579-1.042c.7-1.1,1.259-2.251.774-3.262-.485-.95-2.185-1.256-3.126-1.286V44.2c1.168.046,2.595.445,2.989,1.21.47.934-.091,2.052-.759,3.109A2.46,2.46,0,0,1,160.067,49.513ZM152.13,76.236c.122-.076.243-.138.364-.214a2.7,2.7,0,0,0,1.032-.827,1.927,1.927,0,0,0,.258-.736,1.874,1.874,0,0,1,.167-.566,4.949,4.949,0,0,1,2.793-1.868l-.046-.138a4.945,4.945,0,0,0-2.884,1.945,2.869,2.869,0,0,0-.182.613,1.683,1.683,0,0,1-.228.674,2.578,2.578,0,0,1-.986.781c-.121.076-.243.137-.364.214a2.106,2.106,0,0,0-1.108,1.409,2.753,2.753,0,0,0-.015.7,2.217,2.217,0,0,1-.076.889c-.424,1.47-1.593,1.623-2.792,1.577a2.63,2.63,0,0,0-1.7.428,2.2,2.2,0,0,1-1.153.322v.138a2.387,2.387,0,0,0,1.214-.337,2.431,2.431,0,0,1,1.624-.413c1.2.061,2.474-.107,2.929-1.669a2.468,2.468,0,0,0,.076-.934,3.387,3.387,0,0,1,.015-.674A2.017,2.017,0,0,1,152.13,76.236Zm6.374-4.38a.972.972,0,0,1,.85.016l.061-.138a1.079,1.079,0,0,0-.972,0,1.027,1.027,0,0,0-.455.827,1.852,1.852,0,0,0,.2.95c.152.368.273.689.061,1a.711.711,0,0,1-.577.306,1.737,1.737,0,0,0-.425.107,2.934,2.934,0,0,0-.8.567l.091.107a2.376,2.376,0,0,1,.759-.536,2.191,2.191,0,0,1,.395-.107.908.908,0,0,0,.683-.367,1.126,1.126,0,0,0-.046-1.133,1.83,1.83,0,0,1-.182-.889A.812.812,0,0,1,158.5,71.856Zm-16.541-.26a1.439,1.439,0,0,0,.288-1.194,4.262,4.262,0,0,0-.258-.858c-.03-.076-.061-.168-.091-.245l-.136.046c.03.077.061.169.091.245a3.236,3.236,0,0,1,.243.827,1.271,1.271,0,0,1-.273,1.087,4.014,4.014,0,0,0-.288.521,2.373,2.373,0,0,0,.44,2.465l.121-.092a2.237,2.237,0,0,1-.425-2.327C141.765,71.9,141.871,71.75,141.962,71.6Zm10.623-35.605a1.365,1.365,0,0,0,.334-1.639,1.777,1.777,0,0,0-2.034-.551l.046.138a1.622,1.622,0,0,1,1.866.49,1.218,1.218,0,0,1-.3,1.471Zm3.6.781a1.764,1.764,0,0,1-1.35.184l-.031.137a3.1,3.1,0,0,0,.516.062,1.668,1.668,0,0,0,.941-.26,1.287,1.287,0,0,0,.531-.9c.228-1.394-1.472-2.006-2.853-2.5a8.372,8.372,0,0,1-1.108-.444,1.548,1.548,0,0,1-.683-.949,2.24,2.24,0,0,0-.5-.9,2.071,2.071,0,0,0-1.867-.521h-.045l.015.138h.046a1.891,1.891,0,0,1,1.76.475,2.006,2.006,0,0,1,.471.857,1.66,1.66,0,0,0,.743,1.026,7.661,7.661,0,0,0,1.123.46c1.321.475,2.975,1.057,2.762,2.328A1.13,1.13,0,0,1,156.182,36.771ZM145.1,33.127l.061.138a4.79,4.79,0,0,1,1.412-.353l-.015-.137A4.233,4.233,0,0,0,145.1,33.127Zm1.259,14.12.03-.138c-2.61-.429-4.1.413-4.674,2.634l.137.031C142.4,47.645,143.829,46.833,146.363,47.247Zm5.463,18.407-.076.122a5.844,5.844,0,0,1,1.063.95,3.882,3.882,0,0,0,1.745,1.424,2.628,2.628,0,0,0,1.244.015,4.385,4.385,0,0,1,2.914.413l.061-.137a4.575,4.575,0,0,0-3-.429,2.509,2.509,0,0,1-1.168,0,3.865,3.865,0,0,1-1.684-1.378A6.182,6.182,0,0,0,151.827,65.654ZM145.149,40.34a6.775,6.775,0,0,1,3.263-1.853c1.138-.138,2.686.934,3.126,1.271l.091-.123c-.455-.337-2.049-1.424-3.233-1.286a6.722,6.722,0,0,0-3.338,1.9ZM141.507,37.4a.574.574,0,0,0,.349.413.626.626,0,0,0,.167.031,2.632,2.632,0,0,0,1.305-.658l-.092-.123c-.288.215-.986.736-1.35.613a.445.445,0,0,1-.258-.306,1.833,1.833,0,0,1-.03-.857,2.5,2.5,0,0,0,.045-.6,4.719,4.719,0,0,1,.076-.873l-.137-.015a6.926,6.926,0,0,0-.076.9,3.491,3.491,0,0,1-.046.582A2.01,2.01,0,0,0,141.507,37.4Zm6.146-3.538c.865-.26,1.548-.46,1.624-.888.045-.291-.2-.628-.774-1.057l-.091.123c.516.383.744.689.713.9-.061.337-.744.536-1.533.766a7.172,7.172,0,0,0-2.216.934l.091.122A7.746,7.746,0,0,1,147.653,33.862Zm-.486,36.295c.607-.521,1.123-.98,1.988-.076l.106-.107c-.971-1.011-1.593-.46-2.185.061-.47.413-.9.8-1.5.521l-.061.138a1.041,1.041,0,0,0,.455.107A1.875,1.875,0,0,0,147.168,70.157ZM150.218,43l-.106-.107a5.691,5.691,0,0,0-.774,1.133c-.091.168-.167.306-.228.4a2.034,2.034,0,0,1-1.229.781.7.7,0,0,1-.546-.092,2.835,2.835,0,0,1-.41-.444,1.221,1.221,0,0,0-.926-.613h-.03c-.334,0-.5.245-.653.475-.121.2-.243.383-.455.429a1.319,1.319,0,0,1-1.335-.49l-.106.107a1.456,1.456,0,0,0,1.472.52,1.073,1.073,0,0,0,.546-.49c.152-.23.288-.429.562-.414.379.016.577.26.8.551a2.992,2.992,0,0,0,.425.46.749.749,0,0,0,.47.138.843.843,0,0,0,.2-.016,2.183,2.183,0,0,0,1.335-.842c.061-.092.152-.229.243-.4A5.465,5.465,0,0,1,150.218,43Zm-.455-6.31c.243.046.47.107.683.153a3.4,3.4,0,0,1,2.6,2.65,3.214,3.214,0,0,1,.045,1.195l.137.031a3.452,3.452,0,0,0-.046-1.241,3.508,3.508,0,0,0-2.686-2.756c-.228-.061-.455-.107-.7-.169-.986-.214-2-.429-2.322-1.332l-.137.046C147.684,36.251,148.791,36.481,149.763,36.7ZM132.8,28.119a1.617,1.617,0,0,0-.395,1.24,2.65,2.65,0,0,0,1.032,1.746,1.466,1.466,0,0,0,.941.352,1.537,1.537,0,0,0,.44-.061l-.03-.138a1.342,1.342,0,0,1-1.26-.26,2.551,2.551,0,0,1-.986-1.639,1.414,1.414,0,0,1,.364-1.133,1.8,1.8,0,0,1,2.079-.658l.031-.138A1.929,1.929,0,0,0,132.8,28.119ZM120.626,75.271a2.887,2.887,0,0,0,2.565,1.608l.015-.138a2.8,2.8,0,0,1-2.473-1.546c-.759-1.256-1.411-1.9-2.884-1.9h-.106c-1.791.046-2.914-.6-3.384-1.93a4.322,4.322,0,0,1-.106-1.762A4.782,4.782,0,0,0,114.191,68c-.076-.229-.167-.459-.243-.674a3.946,3.946,0,0,1-.349-1.286,3.288,3.288,0,0,1,.425-1.5l-.121-.061a3.366,3.366,0,0,0-.44,1.562,3.787,3.787,0,0,0,.364,1.333c.092.214.167.444.243.674a4.513,4.513,0,0,1,.061,1.562,4.328,4.328,0,0,0,.121,1.807c.5,1.409,1.654,2.068,3.521,2.037C119.23,73.419,119.882,74.046,120.626,75.271Zm3.111,4.028-.106-.107a2.165,2.165,0,0,1-2,.842c-1.048-.031-2.17-.444-2.155-1.5h-.136c-.015,1.148,1.168,1.608,2.291,1.639h.166A2.25,2.25,0,0,0,123.736,79.3Zm-7.284-30.016a1.565,1.565,0,0,1-.258-1.225,1.976,1.976,0,0,1,1.108-.949,3.27,3.27,0,0,0,1.381-2.052,5.411,5.411,0,0,1,.759-1.577,1.28,1.28,0,0,1,1.563-.6l.03-.137a1.418,1.418,0,0,0-1.7.658,5.25,5.25,0,0,0-.774,1.608c-.3.842-.577,1.639-1.305,1.976a2.092,2.092,0,0,0-1.184,1.026,1.787,1.787,0,0,0,.273,1.348Zm3.111,28.331a1.587,1.587,0,0,1,1.26.46l.091-.107a1.8,1.8,0,0,0-1.366-.505h-.121c-1.29.077-1.988.122-2.626-1.118a1.416,1.416,0,0,1,.106-1.7l-.106-.092a1.531,1.531,0,0,0-.137,1.868c.683,1.317,1.5,1.271,2.762,1.195ZM131.78,25.883a3.355,3.355,0,0,1,2.717,0l.061-.138a3.487,3.487,0,0,0-2.823,0,3.826,3.826,0,0,0-1.988,2.435l.136.046A3.693,3.693,0,0,1,131.78,25.883Zm-3.9,3.507a3.348,3.348,0,0,1,2.717.245l.061-.137a3.387,3.387,0,0,0-2.838-.245,1.843,1.843,0,0,0-1.062,1.195l.136.046A1.692,1.692,0,0,1,127.879,29.39Zm-1,53.876c.44.153,1.123.566,1.229,1.1l.137-.031c-.121-.6-.865-1.041-1.321-1.21a4.1,4.1,0,0,0-1.973-.031,4.545,4.545,0,0,1-1.927,0,1.473,1.473,0,0,1-1.153-1.93l-.137-.046a1.611,1.611,0,0,0,1.244,2.114,4.6,4.6,0,0,0,1.988.015A3.838,3.838,0,0,1,126.878,83.266ZM122.6,36.618a4.909,4.909,0,0,1,1-3.216,3.693,3.693,0,0,1,3.7-1.24,4.976,4.976,0,0,0,.79.046l-.015-.137a4.689,4.689,0,0,1-.759-.046,3.8,3.8,0,0,0-3.84,1.286,4.946,4.946,0,0,0-1.032,3.323Zm-2.413,4.84a4.811,4.811,0,0,0,.531-.368c.364-.291.2-.689.061-1.026a1.719,1.719,0,0,1-.152-.536h-.137a1.451,1.451,0,0,0,.152.6c.136.337.257.643-.015.858a3.9,3.9,0,0,1-.516.352c-.258.153-.41.26-.455.52l.136.016C119.821,41.672,119.943,41.6,120.186,41.458Zm2.246.245c-.668-1.118-1.032-2.618-.349-3.446a2.615,2.615,0,0,1,2.277-.842,2.357,2.357,0,0,1,1.214.934,4.16,4.16,0,0,0,.789.766,2.77,2.77,0,0,0,1.077.337c.137.031.288.046.425.077l.03-.138a4.217,4.217,0,0,0-.425-.077,2.818,2.818,0,0,1-1.017-.306,3.839,3.839,0,0,1-.759-.735,2.518,2.518,0,0,0-1.29-.98,2.807,2.807,0,0,0-2.428.889c-.729.888-.364,2.45.334,3.614Zm-6.3,28.255a3.714,3.714,0,0,0,1.077.2,3.153,3.153,0,0,1,1.017.2,2.016,2.016,0,0,1,.911.873c.288.429.592.857,1.123.857a1.261,1.261,0,0,0,.441-.092c.561-.2.485-.965.44-1.577l-.137.016c.061.6.121,1.256-.349,1.424-.713.26-1.032-.2-1.4-.719a2.061,2.061,0,0,0-.986-.919,3.543,3.543,0,0,0-1.062-.2,3.974,3.974,0,0,1-1.032-.184,1.813,1.813,0,0,1-1.032-1.148l-.137.046A2.019,2.019,0,0,0,116.134,69.957Zm43.478,11.21a1.474,1.474,0,0,1-1.139,1.93,4.307,4.307,0,0,1-1.927,0,4.1,4.1,0,0,0-1.973.031c-.471.153-1.214.613-1.32,1.21l.137.031c.106-.536.789-.949,1.229-1.1a3.958,3.958,0,0,1,1.9-.031,4.365,4.365,0,0,0,1.988-.016,1.6,1.6,0,0,0,1.244-2.113Zm-6.252,5.13a2.672,2.672,0,0,1-2.17-.475,2.485,2.485,0,0,1-.911-1.7,1.864,1.864,0,0,1,.441-1.47,3.725,3.725,0,0,1,1.988-.95,7.088,7.088,0,0,0,1.29-.429c.182-.092.334-.184.455-.245a2.147,2.147,0,0,1,1.624-.367h.092v-.138h-.092a2.4,2.4,0,0,0-1.684.383c-.121.061-.273.153-.455.245a7.121,7.121,0,0,1-1.26.429,4.026,4.026,0,0,0-2.064,1,2.013,2.013,0,0,0-.47,1.577,2.622,2.622,0,0,0,.956,1.807,2.811,2.811,0,0,0,2.276.505,4.844,4.844,0,0,0,3.066-2.174l-.121-.077A4.684,4.684,0,0,1,153.359,86.3Zm6.51-6.248a2.2,2.2,0,0,1-2-.842l-.106.107a2.3,2.3,0,0,0,1.942.889h.167c1.123-.031,2.307-.49,2.292-1.639h-.137C162.039,79.59,160.932,80,159.869,80.05Zm7.709-15.575-.121.061a3.29,3.29,0,0,1,.425,1.5,3.962,3.962,0,0,1-.349,1.286c-.091.215-.167.445-.243.674a4.8,4.8,0,0,0-.061,1.608,4.353,4.353,0,0,1-.106,1.762c-.47,1.332-1.579,1.975-3.384,1.93-1.533-.031-2.2.613-2.975,1.9a2.807,2.807,0,0,1-2.473,1.546l.015.138a2.956,2.956,0,0,0,2.58-1.608c.743-1.24,1.4-1.868,2.853-1.822h.152c1.791,0,2.884-.659,3.369-2.037a4.329,4.329,0,0,0,.122-1.807,4.385,4.385,0,0,1,.061-1.547c.076-.229.152-.459.243-.674a4.569,4.569,0,0,0,.364-1.332A3.919,3.919,0,0,0,167.578,64.475Zm-3,10.184a1.394,1.394,0,0,1,.106,1.7c-.637,1.241-1.335,1.195-2.625,1.118h-.121a1.743,1.743,0,0,0-1.366.505l.091.107a1.6,1.6,0,0,1,1.259-.46h.121c1.26.076,2.079.122,2.762-1.195a1.532,1.532,0,0,0-.137-1.868Zm-27.559.077-.061-.016a7.23,7.23,0,0,1-1.912-1.195,4.221,4.221,0,0,0-2.929-1.3,1.379,1.379,0,0,1-1.062-.169c-.288-.26-.288-.8-.3-1.547V70.4h-.136v.107c0,.781,0,1.363.349,1.654a1.5,1.5,0,0,0,1.168.214,4.046,4.046,0,0,1,2.822,1.271,7.222,7.222,0,0,0,1.942,1.21l.061.016c1.927.658,3.46,1.194,3.232,3.583a2.651,2.651,0,0,1-1.32,2.19,1.808,1.808,0,0,1-1.9-.291,4.105,4.105,0,0,1-1.017-1.148,7.632,7.632,0,0,0-.683-.889,3.261,3.261,0,0,0-1.836-.857l-.03.138a3.148,3.148,0,0,1,1.761.827,5.3,5.3,0,0,1,.668.873,4.05,4.05,0,0,0,1.047,1.179,2.177,2.177,0,0,0,1.305.46,1.781,1.781,0,0,0,.744-.169,2.763,2.763,0,0,0,1.4-2.312C140.6,75.961,139.018,75.424,137.015,74.736Zm2.883,6.6a12.38,12.38,0,0,1,.03,3.017A5.674,5.674,0,0,1,137.9,88.4a3.05,3.05,0,0,1-2.626.505,7.256,7.256,0,0,1-1.366-.536,5.2,5.2,0,0,0-2.033-.628,9.149,9.149,0,0,0-.941.016,1.565,1.565,0,0,1-1.488-.4l-.106.107a1.7,1.7,0,0,0,1.608.444,8.955,8.955,0,0,1,.926-.015,5.223,5.223,0,0,1,1.973.613,7.454,7.454,0,0,0,1.381.536,3.338,3.338,0,0,0,.865.107,3.239,3.239,0,0,0,1.9-.628,5.8,5.8,0,0,0,2.094-4.15,11.889,11.889,0,0,0-.03-3.047Zm-8.544,2.8a2.013,2.013,0,0,0-.47-1.577,3.913,3.913,0,0,0-2.064-1,6.086,6.086,0,0,1-1.26-.428c-.182-.092-.319-.184-.455-.245a2.257,2.257,0,0,0-1.684-.383h-.092v.138h.092a2.251,2.251,0,0,1,1.624.368c.121.076.273.153.455.245a6.1,6.1,0,0,0,1.29.429,3.96,3.96,0,0,1,1.988.949,1.924,1.924,0,0,1,.441,1.47,2.431,2.431,0,0,1-.911,1.7,2.62,2.62,0,0,1-2.17.475,4.669,4.669,0,0,1-2.959-2.1l-.121.077a4.844,4.844,0,0,0,3.066,2.174,2.8,2.8,0,0,0,.607.061,2.624,2.624,0,0,0,1.669-.566A2.53,2.53,0,0,0,131.355,84.138Zm19.228,3.614a9.249,9.249,0,0,0-.941-.016,5.467,5.467,0,0,0-2.033.628,8.418,8.418,0,0,1-1.366.536,2.982,2.982,0,0,1-2.626-.505,5.621,5.621,0,0,1-2.033-4.043,11.716,11.716,0,0,1,.03-3.017l-.136-.016a12.634,12.634,0,0,0-.03,3.047,5.858,5.858,0,0,0,2.094,4.15,3.1,3.1,0,0,0,1.9.628,3.418,3.418,0,0,0,.865-.107,8.193,8.193,0,0,0,1.381-.536,5.223,5.223,0,0,1,1.973-.613,8.954,8.954,0,0,1,.926.015,1.7,1.7,0,0,0,1.608-.444l-.106-.107A1.656,1.656,0,0,1,150.582,87.753Zm-8.028-6.968a1.781,1.781,0,0,0,.743.168,2.359,2.359,0,0,0,1.306-.459,4.069,4.069,0,0,0,1.047-1.18,5.962,5.962,0,0,1,.668-.872,3.161,3.161,0,0,1,1.76-.827l-.03-.137a3.257,3.257,0,0,0-1.836.857,5.344,5.344,0,0,0-.683.888,3.879,3.879,0,0,1-1.017,1.149,1.8,1.8,0,0,1-1.9.275,2.65,2.65,0,0,1-1.321-2.19c-.227-2.4,1.29-2.925,3.233-3.583l.061-.016a7.222,7.222,0,0,0,1.942-1.21,4.143,4.143,0,0,1,2.822-1.271,1.429,1.429,0,0,0,1.169-.214c.334-.307.334-.873.349-1.654V70.4h-.137v.107c0,.751,0,1.286-.3,1.547a1.318,1.318,0,0,1-1.062.169,4.249,4.249,0,0,0-2.929,1.3,7.239,7.239,0,0,1-1.912,1.195l-.061.016c-1.988.689-3.566,1.225-3.324,3.737A2.81,2.81,0,0,0,142.554,80.785ZM133.069,32.04l-.091-.123c-.577.429-.819.766-.774,1.057.076.428.759.628,1.624.888a6.743,6.743,0,0,1,2.17.919l.091-.122a7.172,7.172,0,0,0-2.216-.934c-.789-.23-1.472-.444-1.533-.766Q132.319,32.614,133.069,32.04Zm-3.186,7.6.091.123c.44-.337,1.988-1.394,3.126-1.271a6.774,6.774,0,0,1,3.262,1.853l.091-.107a6.956,6.956,0,0,0-3.338-1.9C131.916,38.211,130.338,39.3,129.883,39.635Zm1.123-2.925a3.51,3.51,0,0,0-2.686,2.757,3.459,3.459,0,0,0-.046,1.24l.137-.031a3.215,3.215,0,0,1,.045-1.195,3.378,3.378,0,0,1,2.6-2.649c.212-.062.44-.107.683-.154.972-.214,2.079-.444,2.428-1.424l-.137-.046c-.319.9-1.335,1.118-2.322,1.333C131.461,36.6,131.233,36.649,131.006,36.71Zm-.425-2.787.045-.138a1.793,1.793,0,0,0-2.033.551,1.318,1.318,0,0,0,.334,1.639l.106-.092a1.2,1.2,0,0,1-.3-1.47A1.614,1.614,0,0,1,130.581,33.923Zm-3.673,34.09a2.511,2.511,0,0,1-1.168,0,4.488,4.488,0,0,0-3,.429l.061.137a4.391,4.391,0,0,1,2.913-.413,2.566,2.566,0,0,0,1.23-.015,3.882,3.882,0,0,0,1.745-1.424,5.329,5.329,0,0,1,1.062-.95l-.076-.122a6.18,6.18,0,0,0-1.093.98A3.842,3.842,0,0,1,126.908,68.013Zm-.728,11.777a2.833,2.833,0,0,0,.349.015,3.334,3.334,0,0,0,2.382-.98l-.106-.107a3.285,3.285,0,0,1-2.625.919,1.6,1.6,0,0,1-1.321-.689,1.3,1.3,0,0,1-.091-1.118l-.137-.046a1.414,1.414,0,0,0,.106,1.24A1.836,1.836,0,0,0,126.18,79.789Zm10.213-46.663a4.637,4.637,0,0,0-1.457-.368l-.015.138a4.351,4.351,0,0,1,1.411.352ZM118,65.164a2.636,2.636,0,0,0,.106,1.9,4.683,4.683,0,0,0,.88,1.164,4.856,4.856,0,0,1,.79,1l.121-.061a4.776,4.776,0,0,0-.819-1.026,4.6,4.6,0,0,1-.865-1.118,2.428,2.428,0,0,1-.091-1.792Zm4.189-20.95v-.138c-.926.031-2.626.337-3.126,1.286-.5,1,.076,2.159.774,3.262a2.561,2.561,0,0,0,1.578,1.026l.03-.138a2.441,2.441,0,0,1-1.487-.965c-.668-1.057-1.229-2.174-.759-3.109C119.594,44.643,121.02,44.261,122.189,44.214ZM136.2,29.421a2.084,2.084,0,0,1,1.108.444,2.138,2.138,0,0,1,.515,2.267,5.379,5.379,0,0,1-.2.521,2.717,2.717,0,0,0-.228,2.021,1.558,1.558,0,0,0,.076.184,1.013,1.013,0,0,1,.122.766c-.122.215-.455.245-.729.26-.061,0-.121.016-.182.016a1.917,1.917,0,0,0-1.7,1.73l.137.015a1.758,1.758,0,0,1,1.579-1.608c.045,0,.106-.015.166-.015.3-.031.668-.061.835-.337.152-.275,0-.613-.106-.888a1.2,1.2,0,0,1-.061-.169,2.55,2.55,0,0,1,.228-1.914c.061-.169.137-.337.2-.521a2.277,2.277,0,0,0-.561-2.42,2.081,2.081,0,0,0-1.169-.475l-.212-.046a1.924,1.924,0,0,1-.789-.352l-.091.122a2.112,2.112,0,0,0,.85.368A1.2,1.2,0,0,1,136.2,29.421Zm-8.6,4.211a7.605,7.605,0,0,0,1.123-.46,1.663,1.663,0,0,0,.744-1.026,2.044,2.044,0,0,1,.486-.857,1.932,1.932,0,0,1,1.76-.475h.046l.015-.138h-.045a2.019,2.019,0,0,0-1.867.521,2.448,2.448,0,0,0-.515.919,1.548,1.548,0,0,1-.683.95,7.575,7.575,0,0,1-1.108.444c-1.366.49-3.08,1.1-2.853,2.5a1.4,1.4,0,0,0,.532.9,1.661,1.661,0,0,0,.941.26,2.047,2.047,0,0,0,.516-.061l-.03-.138a1.751,1.751,0,0,1-1.351-.184,1.231,1.231,0,0,1-.485-.812C124.632,34.689,126.271,34.107,127.591,33.632Zm-2.519,10.153.137.061c.061-.122.121-.245.167-.352a3.176,3.176,0,0,0,.47-1.776,2.853,2.853,0,0,0-1.259-2.037l-.091.122a2.75,2.75,0,0,1,1.214,1.945,3.1,3.1,0,0,1-.455,1.7A3.469,3.469,0,0,0,125.072,43.785Zm-1.73,1.669a2.132,2.132,0,0,1,1.791.383,2.381,2.381,0,0,1,.834,1.822c.015.842.713,1.072,1.275,1.271.334.123.622.215.683.413.046.138-.03.322-.2.567l.121.092a.842.842,0,0,0,.228-.689c-.076-.26-.41-.367-.774-.505-.546-.184-1.168-.4-1.183-1.133a2.53,2.53,0,0,0-.881-1.945,2.24,2.24,0,0,0-1.912-.413,3.322,3.322,0,0,0-1.563.873l.091.107A3.235,3.235,0,0,1,123.342,45.454Zm3.915,30.4-.091-.107a2.85,2.85,0,0,0-.7,2.389l.136-.031A2.669,2.669,0,0,1,127.257,75.854Zm12.7-8.9a3.108,3.108,0,0,0-.2-1.9l-.136.061a3.178,3.178,0,0,1,.182,1.807Zm-.516-34.319a2.768,2.768,0,0,0-.576.965l.136.031a2.82,2.82,0,0,1,.546-.9c.41-.521.85-1.072.47-1.777l-.121.062C140.233,31.641,139.838,32.132,139.443,32.637Zm.152,5.038c-.379.123-1.062-.383-1.351-.613l-.091.123a2.63,2.63,0,0,0,1.305.658.536.536,0,0,0,.167-.031.615.615,0,0,0,.349-.4A1.739,1.739,0,0,0,140,36.5a2.335,2.335,0,0,1-.046-.566,4.912,4.912,0,0,0-.076-.9l-.137.015a6.628,6.628,0,0,1,.076.873,2.443,2.443,0,0,0,.045.6,1.647,1.647,0,0,1-.03.857A.393.393,0,0,1,139.6,37.675Zm-2.307-9.755-.015-.138a1.057,1.057,0,0,1-1.093-.674.54.54,0,0,1,.106-.643,1.39,1.39,0,0,1,1.092-.275,2.248,2.248,0,0,1,1.5.781,3.431,3.431,0,0,1,.288,2.772l.137.031a3.64,3.64,0,0,0-.3-2.879,2.426,2.426,0,0,0-1.593-.842,1.446,1.446,0,0,0-1.2.306.672.672,0,0,0-.137.812A1.171,1.171,0,0,0,137.288,27.92Zm2.291,10.735-.137.061a9.969,9.969,0,0,1,.167,7.381l.137.046A10.181,10.181,0,0,0,139.58,38.655Zm.076,11.118.137-.031c-.577-2.221-2.064-3.047-4.674-2.634l.03.138C137.668,46.833,139.094,47.645,139.656,49.773Zm-7.406-5.268a2.123,2.123,0,0,0,1.335.842.946.946,0,0,0,.2.015.779.779,0,0,0,.47-.137,2.989,2.989,0,0,0,.425-.46c.228-.291.425-.536.8-.551.273-.016.41.184.561.413a.915.915,0,0,0,.546.49,1.488,1.488,0,0,0,1.472-.521l-.106-.107a1.347,1.347,0,0,1-1.335.49.891.891,0,0,1-.455-.428c-.152-.23-.319-.475-.652-.475h-.03a1.248,1.248,0,0,0-.926.613,2.784,2.784,0,0,1-.41.444.714.714,0,0,1-.546.092,2.038,2.038,0,0,1-1.23-.781c-.061-.092-.136-.23-.227-.383a5.128,5.128,0,0,0-.774-1.133l-.106.107a5.171,5.171,0,0,1,.744,1.1C132.113,44.275,132.189,44.413,132.25,44.505Zm3.187,32.206a2.91,2.91,0,0,0,1.548.7.746.746,0,0,0,.182-.015l-.015-.138a2.455,2.455,0,0,1-1.624-.674,3.563,3.563,0,0,0-.531-.352,9.536,9.536,0,0,0-2.929-.965,14.3,14.3,0,0,1-1.851-.475c-1.138-.4-1.472-1.3-1.836-2.251-.122-.322-.243-.659-.395-.98l-.137.062c.152.306.274.643.395.965a3.2,3.2,0,0,0,1.912,2.343,14.5,14.5,0,0,0,1.866.475,9.528,9.528,0,0,1,2.884.949C135.088,76.466,135.255,76.589,135.437,76.711Zm-1.108-6.554a1.97,1.97,0,0,0,1.214.659,1.083,1.083,0,0,0,.455-.107l-.061-.138c-.606.26-1.047-.122-1.5-.52-.607-.521-1.214-1.072-2.186-.062l.106.107C133.206,69.177,133.738,69.636,134.329,70.157Z" transform="translate(-113.463 -25.447)" fill="#fff"/>
    </g>
  </g>
  <g id="Group_5" data-name="Group 5" transform="translate(34.804 7.856)">
    <circle id="Ellipse_1" data-name="Ellipse 1" cx="0.551" cy="0.551" r="0.551" fill="#fff"/>
  </g>
  <g id="Group_6" data-name="Group 6" transform="translate(35.716 5.161)">
    <path id="Path_15" data-name="Path 15" d="M157.726,33.6l-.8.536.536.8.8-.536Z" transform="translate(-156.93 -33.602)" fill="#fff"/>
  </g>
  <g id="Group_7" data-name="Group 7" transform="translate(35.078 3.997)">
    <circle id="Ellipse_2" data-name="Ellipse 2" cx="0.551" cy="0.551" r="0.551" fill="#fff"/>
  </g>
  <g id="Group_8" data-name="Group 8" transform="translate(33.085 2.083)">
    <path id="Path_16" data-name="Path 16" d="M153.678,29.405l-.23-.934-.934.23.23.934Z" transform="translate(-152.514 -28.471)" fill="#fff"/>
  </g>
  <g id="Group_9" data-name="Group 9" transform="translate(30.834 1.761)">
    <circle id="Ellipse_3" data-name="Ellipse 3" cx="0.551" cy="0.551" r="0.551" fill="#fff"/>
  </g>
  <g id="Group_10" data-name="Group 10" transform="translate(30.575 5.544)">
    <path id="Path_17" data-name="Path 17" d="M149.528,35.143l-.306-.9-.919.306.322.9Z" transform="translate(-148.303 -34.24)" fill="#fff"/>
  </g>
  <g id="Group_11" data-name="Group 11" transform="translate(28.856 6.279)">
    <circle id="Ellipse_4" data-name="Ellipse 4" cx="0.551" cy="0.551" r="0.551" fill="#fff"/>
  </g>
  <g id="Group_12" data-name="Group 12" transform="translate(31.761 8.852)">
    <path id="Path_18" data-name="Path 18" d="M151.013,41.1l.643-.7-.72-.643-.643.72Z" transform="translate(-150.294 -39.753)" fill="#fff"/>
  </g>
  <g id="Group_13" data-name="Group 13" transform="translate(29.936 9.541)">
    <circle id="Ellipse_5" data-name="Ellipse 5" cx="0.551" cy="0.551" r="0.551" fill="#fff"/>
  </g>
  <g id="Group_14" data-name="Group 14" transform="translate(24.156 14.931)">
    <path id="Path_19" data-name="Path 19" d="M137.746,51.034l.934-.214-.214-.934-.934.2Z" transform="translate(-137.532 -49.886)" fill="#fff"/>
  </g>
  <g id="Group_15" data-name="Group 15" transform="translate(32.233 14.549)">
    <circle id="Ellipse_6" data-name="Ellipse 6" cx="0.551" cy="0.551" r="0.551" fill="#fff"/>
  </g>
  <g id="Group_16" data-name="Group 16" transform="translate(25.661 13.844)">
    <path id="Path_20" data-name="Path 20" d="M140.059,48.64l.582.766.766-.567-.582-.766Z" transform="translate(-140.059 -48.073)" fill="#fff"/>
  </g>
  <g id="Group_17" data-name="Group 17" transform="translate(31.047 3.231)">
    <circle id="Ellipse_7" data-name="Ellipse 7" cx="0.551" cy="0.551" r="0.551" fill="#fff"/>
  </g>
  <g id="Group_18" data-name="Group 18" transform="translate(30.94 11.914)">
    <path id="Path_21" data-name="Path 21" d="M148.915,45.807l.965.077.077-.949-.965-.077Z" transform="translate(-148.915 -44.857)" fill="#fff"/>
  </g>
  <g id="Group_19" data-name="Group 19" transform="translate(32.188 7.458)">
    <circle id="Ellipse_8" data-name="Ellipse 8" cx="0.551" cy="0.551" r="0.551" fill="#fff"/>
  </g>
  <g id="Group_20" data-name="Group 20" transform="translate(30.834 7.136)">
    <path id="Path_22" data-name="Path 22" d="M148.737,37l.092.949.965-.107-.107-.949Z" transform="translate(-148.737 -36.894)" fill="#fff"/>
  </g>
  <g id="Group_21" data-name="Group 21" transform="translate(34.089 11.409)">
    <circle id="Ellipse_9" data-name="Ellipse 9" cx="0.551" cy="0.551" r="0.551" fill="#fff"/>
  </g>
  <g id="Group_22" data-name="Group 22" transform="translate(35.701 9.311)">
    <path id="Path_23" data-name="Path 23" d="M157.869,40.518l-.965.138.138.949.949-.138Z" transform="translate(-156.904 -40.518)" fill="#fff"/>
  </g>
  <g id="Group_23" data-name="Group 23" transform="translate(23.638 13.66)">
    <path id="Path_24" data-name="Path 24" d="M137.583,48.962l.291-.9-.919-.291-.291.919Z" transform="translate(-136.664 -47.767)" fill="#fff"/>
  </g>
  <g id="Group_24" data-name="Group 24" transform="translate(23.867 6.34)">
    <path id="Path_25" data-name="Path 25" d="M138.241,36.486l-.276-.919-.919.276.276.919Z" transform="translate(-137.047 -35.567)" fill="#fff"/>
  </g>
  <g id="Group_25" data-name="Group 25" transform="translate(27.578 5.008)">
    <circle id="Ellipse_10" data-name="Ellipse 10" cx="0.551" cy="0.551" r="0.551" fill="#fff"/>
  </g>
  <g id="Group_26" data-name="Group 26" transform="translate(22.467 11.271)">
    <path id="Path_26" data-name="Path 26" d="M135.862,44.7l-.245-.919-.919.23.23.934Z" transform="translate(-134.699 -43.785)" fill="#fff"/>
  </g>
  <g id="Group_27" data-name="Group 27" transform="translate(24.795 10.184)">
    <circle id="Ellipse_11" data-name="Ellipse 11" cx="0.551" cy="0.551" r="0.551" fill="#fff"/>
  </g>
  <g id="Group_28" data-name="Group 28" transform="translate(26.346 8.055)">
    <path id="Path_27" data-name="Path 27" d="M142.111,39.666l.337-.9-.9-.337-.337.9Z" transform="translate(-141.207 -38.425)" fill="#fff"/>
  </g>
  <g id="Group_29" data-name="Group 29" transform="translate(22.665 4.717)">
    <circle id="Ellipse_12" data-name="Ellipse 12" cx="0.551" cy="0.551" r="0.551" fill="#fff"/>
  </g>
  <g id="Group_30" data-name="Group 30" transform="translate(26.346 3.737)">
    <path id="Path_28" data-name="Path 28" d="M142.065,32.53l.429-.858-.842-.444-.444.858Z" transform="translate(-141.207 -31.228)" fill="#fff"/>
  </g>
  <g id="Group_31" data-name="Group 31" transform="translate(25.647 2.45)">
    <circle id="Ellipse_13" data-name="Ellipse 13" cx="0.551" cy="0.551" r="0.551" fill="#fff"/>
  </g>
  <g id="Group_32" data-name="Group 32" transform="translate(30.255)">
    <path id="Path_29" data-name="Path 29" d="M148.624,26.286l.413-.873L148.18,25l-.413.858Z" transform="translate(-147.767 -25)" fill="#fff"/>
  </g>
  <g id="Group_33" data-name="Group 33" transform="translate(35.382 12.986)">
    <circle id="Ellipse_14" data-name="Ellipse 14" cx="0.551" cy="0.551" r="0.551" fill="#fff"/>
  </g>
  <g id="Group_34" data-name="Group 34" transform="translate(38.424 7.856)">
    <circle id="Ellipse_15" data-name="Ellipse 15" cx="0.551" cy="0.551" r="0.551" fill="#fff"/>
  </g>
  <g id="Group_35" data-name="Group 35" transform="translate(37.283 5.161)">
    <path id="Path_30" data-name="Path 30" d="M160.891,34.138l-.8-.536-.536.8.8.536Z" transform="translate(-159.559 -33.602)" fill="#fff"/>
  </g>
  <g id="Group_36" data-name="Group 36" transform="translate(38.15 3.997)">
    <circle id="Ellipse_16" data-name="Ellipse 16" cx="0.551" cy="0.551" r="0.551" fill="#fff"/>
  </g>
  <g id="Group_37" data-name="Group 37" transform="translate(40.082 2.083)">
    <path id="Path_31" data-name="Path 31" d="M164.485,28.471l-.23.934.934.23.23-.934Z" transform="translate(-164.255 -28.471)" fill="#fff"/>
  </g>
  <g id="Group_38" data-name="Group 38" transform="translate(42.394 1.761)">
    <circle id="Ellipse_17" data-name="Ellipse 17" cx="0.551" cy="0.551" r="0.551" fill="#fff"/>
  </g>
  <g id="Group_39" data-name="Group 39" transform="translate(42.531 5.544)">
    <path id="Path_32" data-name="Path 32" d="M168.686,34.24l-.322.9.9.306.322-.9Z" transform="translate(-168.364 -34.24)" fill="#fff"/>
  </g>
  <g id="Group_40" data-name="Group 40" transform="translate(44.372 6.279)">
    <circle id="Ellipse_18" data-name="Ellipse 18" cx="0.551" cy="0.551" r="0.551" fill="#fff"/>
  </g>
  <g id="Group_41" data-name="Group 41" transform="translate(42.181 3.231)">
    <circle id="Ellipse_19" data-name="Ellipse 19" cx="0.551" cy="0.551" r="0.551" fill="#fff"/>
  </g>
  <g id="Group_42" data-name="Group 42" transform="translate(41.041 7.458)">
    <circle id="Ellipse_20" data-name="Ellipse 20" cx="0.551" cy="0.551" r="0.551" fill="#fff"/>
  </g>
  <g id="Group_43" data-name="Group 43" transform="translate(42.455 7.136)">
    <path id="Path_33" data-name="Path 33" d="M169.186,37.951l.092-.949-.949-.107-.092.949Z" transform="translate(-168.237 -36.894)" fill="#fff"/>
  </g>
  <g id="Group_44" data-name="Group 44" transform="translate(39.139 11.409)">
    <circle id="Ellipse_21" data-name="Ellipse 21" cx="0.551" cy="0.551" r="0.551" fill="#fff"/>
  </g>
  <g id="Group_45" data-name="Group 45" transform="translate(37.542 9.311)">
    <path id="Path_34" data-name="Path 34" d="M161.08,40.656l-.949-.138-.138.949.949.138Z" transform="translate(-159.993 -40.518)" fill="#fff"/>
  </g>
  <g id="Group_46" data-name="Group 46" transform="translate(54.868 10.858)">
    <circle id="Ellipse_22" data-name="Ellipse 22" cx="0.551" cy="0.551" r="0.551" fill="#fff"/>
  </g>
  <g id="Group_47" data-name="Group 47" transform="translate(49.27 6.34)">
    <path id="Path_35" data-name="Path 35" d="M179.947,35.567l-.276.919.919.276.276-.919Z" transform="translate(-179.671 -35.567)" fill="#fff"/>
  </g>
  <g id="Group_48" data-name="Group 48" transform="translate(45.65 5.008)">
    <circle id="Ellipse_23" data-name="Ellipse 23" cx="0.551" cy="0.551" r="0.551" fill="#fff"/>
  </g>
  <g id="Group_49" data-name="Group 49" transform="translate(50.7 11.271)">
    <path id="Path_36" data-name="Path 36" d="M182.316,43.785l-.245.919.934.245.245-.934Z" transform="translate(-182.071 -43.785)" fill="#fff"/>
  </g>
  <g id="Group_50" data-name="Group 50" transform="translate(48.433 10.184)">
    <circle id="Ellipse_24" data-name="Ellipse 24" cx="0.551" cy="0.551" r="0.551" fill="#fff"/>
  </g>
  <g id="Group_51" data-name="Group 51" transform="translate(46.744 8.055)">
    <path id="Path_37" data-name="Path 37" d="M175.434,38.762l.337.9.9-.337-.337-.9Z" transform="translate(-175.434 -38.425)" fill="#fff"/>
  </g>
  <g id="Group_52" data-name="Group 52" transform="translate(50.563 4.717)">
    <circle id="Ellipse_25" data-name="Ellipse 25" cx="0.551" cy="0.551" r="0.551" fill="#fff"/>
  </g>
  <g id="Group_53" data-name="Group 53" transform="translate(46.698 3.737)">
    <path id="Path_38" data-name="Path 38" d="M175.358,31.672l.429.858.858-.444-.429-.858Z" transform="translate(-175.358 -31.228)" fill="#fff"/>
  </g>
  <g id="Group_54" data-name="Group 54" transform="translate(47.582 2.45)">
    <circle id="Ellipse_26" data-name="Ellipse 26" cx="0.551" cy="0.551" r="0.551" fill="#fff"/>
  </g>
  <g id="Group_55" data-name="Group 55" transform="translate(42.804)">
    <path id="Path_39" data-name="Path 39" d="M168.824,25.413l.413.873.858-.429L169.681,25Z" transform="translate(-168.824 -25)" fill="#fff"/>
  </g>
  <g id="Group_56" data-name="Group 56" transform="translate(37.846 12.986)">
    <circle id="Ellipse_27" data-name="Ellipse 27" cx="0.551" cy="0.551" r="0.551" fill="#fff"/>
  </g>
  <g id="Group_57" data-name="Group 57" transform="translate(47.703 40.001)">
    <circle id="Ellipse_28" data-name="Ellipse 28" cx="0.551" cy="0.551" r="0.551" fill="#fff"/>
  </g>
  <g id="Group_58" data-name="Group 58" transform="translate(54.517 42.665)">
    <path id="Path_40" data-name="Path 40" d="M189.335,97.411l.444-.858-.858-.444-.444.858Z" transform="translate(-188.477 -96.109)" fill="#fff"/>
  </g>
  <g id="Group_59" data-name="Group 59" transform="translate(59.355 39.495)">
    <circle id="Ellipse_29" data-name="Ellipse 29" cx="0.551" cy="0.551" r="0.551" fill="#fff"/>
  </g>
  <g id="Group_60" data-name="Group 60" transform="translate(57.514 43.37)">
    <path id="Path_41" data-name="Path 41" d="M193.505,98.171l.888.368.368-.888-.888-.368Z" transform="translate(-193.505 -97.283)" fill="#fff"/>
  </g>
  <g id="Group_61" data-name="Group 61" transform="translate(63.392 38.806)">
    <circle id="Ellipse_30" data-name="Ellipse 30" cx="0.551" cy="0.551" r="0.551" fill="#fff"/>
  </g>
  <g id="Group_62" data-name="Group 62" transform="translate(54.229 51.088)">
    <path id="Path_42" data-name="Path 42" d="M187.992,110.285l.138.949.949-.138-.138-.949Z" transform="translate(-187.992 -110.147)" fill="#fff"/>
  </g>
  <g id="Group_63" data-name="Group 63" transform="translate(62.228 43.002)">
    <circle id="Ellipse_31" data-name="Ellipse 31" cx="0.551" cy="0.551" r="0.551" fill="#fff"/>
  </g>
  <g id="Group_64" data-name="Group 64" transform="translate(56.389 44.748)">
    <path id="Path_43" data-name="Path 43" d="M192.627,99.657l-.949-.077-.061.965.949.061Z" transform="translate(-191.617 -99.58)" fill="#fff"/>
  </g>
  <g id="Group_65" data-name="Group 65" transform="translate(52.373 49.802)">
    <circle id="Ellipse_32" data-name="Ellipse 32" cx="0.551" cy="0.551" r="0.551" fill="#fff"/>
  </g>
  <g id="Group_66" data-name="Group 66" transform="translate(55.156 45.973)">
    <path id="Path_44" data-name="Path 44" d="M190.391,102.909l.459-.842-.858-.444-.444.842Z" transform="translate(-189.549 -101.622)" fill="#fff"/>
  </g>
  <g id="Group_67" data-name="Group 67" transform="translate(52.586 46.249)">
    <circle id="Ellipse_33" data-name="Ellipse 33" cx="0.551" cy="0.551" r="0.551" fill="#fff"/>
  </g>
  <g id="Group_68" data-name="Group 68" transform="translate(50.213 50.078)">
    <circle id="Ellipse_34" data-name="Ellipse 34" cx="0.551" cy="0.551" r="0.551" fill="#fff"/>
  </g>
  <g id="Group_69" data-name="Group 69" transform="translate(50.836 52.313)">
    <path id="Path_45" data-name="Path 45" d="M182.3,113.108l.919.26.26-.919-.934-.26Z" transform="translate(-182.3 -112.189)" fill="#fff"/>
  </g>
  <g id="Group_70" data-name="Group 70" transform="translate(52.693 52.099)">
    <circle id="Ellipse_35" data-name="Ellipse 35" cx="0.551" cy="0.551" r="0.551" fill="#fff"/>
  </g>
  <g id="Group_71" data-name="Group 71" transform="translate(48.417 52.941)">
    <path id="Path_46" data-name="Path 46" d="M178.962,113.236l-.72.628.628.72.72-.628Z" transform="translate(-178.242 -113.236)" fill="#fff"/>
  </g>
  <g id="Group_72" data-name="Group 72" transform="translate(60.482 48.898)">
    <circle id="Ellipse_36" data-name="Ellipse 36" cx="0.551" cy="0.551" r="0.551" fill="#fff"/>
  </g>
  <g id="Group_73" data-name="Group 73" transform="translate(56.433 52.16)">
    <path id="Path_47" data-name="Path 47" d="M191.693,112.608l.674.674.674-.674-.674-.674Z" transform="translate(-191.693 -111.934)" fill="#fff"/>
  </g>
  <g id="Group_74" data-name="Group 74" transform="translate(58.017 52.849)">
    <circle id="Ellipse_37" data-name="Ellipse 37" cx="0.551" cy="0.551" r="0.551" fill="#fff"/>
  </g>
  <g id="Group_75" data-name="Group 75" transform="translate(53.619 53.401)">
    <path id="Path_48" data-name="Path 48" d="M187.645,114l-.674.674.674.689.674-.674Z" transform="translate(-186.971 -114.001)" fill="#fff"/>
  </g>
  <g id="Group_76" data-name="Group 76" transform="translate(43.916 51.823)">
    <circle id="Ellipse_38" data-name="Ellipse 38" cx="0.551" cy="0.551" r="0.551" fill="#fff"/>
  </g>
  <g id="Group_77" data-name="Group 77" transform="translate(46.761 44.764)">
    <path id="Path_49" data-name="Path 49" d="M176.425,99.621l-.965-.015v.965h.949Z" transform="translate(-175.46 -99.606)" fill="#fff"/>
  </g>
  <g id="Group_78" data-name="Group 78" transform="translate(49.453 45.897)">
    <circle id="Ellipse_39" data-name="Ellipse 39" cx="0.551" cy="0.551" r="0.551" fill="#fff"/>
  </g>
  <g id="Group_79" data-name="Group 79" transform="translate(40.188 51.563)">
    <path id="Path_50" data-name="Path 50" d="M164.74,110.938l-.306.9.9.306.306-.9Z" transform="translate(-164.434 -110.938)" fill="#fff"/>
  </g>
  <g id="Group_80" data-name="Group 80" transform="translate(45.072 44.289)">
    <circle id="Ellipse_40" data-name="Ellipse 40" cx="0.551" cy="0.551" r="0.551" fill="#fff"/>
  </g>
  <g id="Group_81" data-name="Group 81" transform="translate(41.329 44.809)">
    <path id="Path_51" data-name="Path 51" d="M166.838,99.682l-.49.827.827.49.49-.827Z" transform="translate(-166.348 -99.682)" fill="#fff"/>
  </g>
  <g id="Group_82" data-name="Group 82" transform="translate(25.54 40.001)">
    <circle id="Ellipse_41" data-name="Ellipse 41" cx="0.551" cy="0.551" r="0.551" fill="#fff"/>
  </g>
  <g id="Group_83" data-name="Group 83" transform="translate(18.512 42.665)">
    <path id="Path_52" data-name="Path 52" d="M128.062,96.553l.444.858.858-.444-.444-.858Z" transform="translate(-128.062 -96.109)" fill="#fff"/>
  </g>
  <g id="Group_84" data-name="Group 84" transform="translate(13.986 39.495)">
    <circle id="Ellipse_42" data-name="Ellipse 42" cx="0.551" cy="0.551" r="0.551" fill="#fff"/>
  </g>
  <g id="Group_85" data-name="Group 85" transform="translate(15.561 43.37)">
    <path id="Path_53" data-name="Path 53" d="M123.478,98.539l.888-.368L124,97.283l-.888.368Z" transform="translate(-123.111 -97.283)" fill="#fff"/>
  </g>
  <g id="Group_86" data-name="Group 86" transform="translate(9.832 38.806)">
    <circle id="Ellipse_43" data-name="Ellipse 43" cx="0.551" cy="0.551" r="0.551" fill="#fff"/>
  </g>
  <g id="Group_87" data-name="Group 87" transform="translate(19.03 51.088)">
    <path id="Path_54" data-name="Path 54" d="M129.88,111.235l.138-.949-.949-.138-.138.949Z" transform="translate(-128.93 -110.147)" fill="#fff"/>
  </g>
  <g id="Group_88" data-name="Group 88" transform="translate(10.996 43.002)">
    <circle id="Ellipse_44" data-name="Ellipse 44" cx="0.551" cy="0.551" r="0.551" fill="#fff"/>
  </g>
  <g id="Group_89" data-name="Group 89" transform="translate(16.931 44.748)">
    <path id="Path_55" data-name="Path 55" d="M126.357,99.58l-.949.077.061.949.965-.061Z" transform="translate(-125.408 -99.58)" fill="#fff"/>
  </g>
  <g id="Group_90" data-name="Group 90" transform="translate(20.855 49.802)">
    <circle id="Ellipse_45" data-name="Ellipse 45" cx="0.551" cy="0.551" r="0.551" fill="#fff"/>
  </g>
  <g id="Group_91" data-name="Group 91" transform="translate(17.873 45.973)">
    <path id="Path_56" data-name="Path 56" d="M126.99,102.066l.459.842.842-.444-.444-.842Z" transform="translate(-126.99 -101.622)" fill="#fff"/>
  </g>
  <g id="Group_92" data-name="Group 92" transform="translate(20.642 46.249)">
    <circle id="Ellipse_46" data-name="Ellipse 46" cx="0.551" cy="0.551" r="0.551" fill="#fff"/>
  </g>
  <g id="Group_93" data-name="Group 93" transform="translate(32.188 55.82)">
    <path id="Path_57" data-name="Path 57" d="M151.958,119l.015-.949-.965-.015V119Z" transform="translate(-151.008 -118.034)" fill="#fff"/>
  </g>
  <g id="Group_94" data-name="Group 94" transform="translate(23.015 50.078)">
    <circle id="Ellipse_47" data-name="Ellipse 47" cx="0.551" cy="0.551" r="0.551" fill="#fff"/>
  </g>
  <g id="Group_95" data-name="Group 95" transform="translate(22.33 52.313)">
    <path id="Path_58" data-name="Path 58" d="M134.714,113.368l.934-.26-.26-.919-.919.26Z" transform="translate(-134.469 -112.189)" fill="#fff"/>
  </g>
  <g id="Group_96" data-name="Group 96" transform="translate(20.536 52.099)">
    <circle id="Ellipse_48" data-name="Ellipse 48" cx="0.551" cy="0.551" r="0.551" fill="#fff"/>
  </g>
  <g id="Group_97" data-name="Group 97" transform="translate(24.566 52.941)">
    <path id="Path_59" data-name="Path 59" d="M139.569,113.863l-.72-.628-.628.72.72.628Z" transform="translate(-138.221 -113.236)" fill="#fff"/>
  </g>
  <g id="Group_98" data-name="Group 98" transform="translate(12.741 48.898)">
    <circle id="Ellipse_49" data-name="Ellipse 49" cx="0.551" cy="0.551" r="0.551" fill="#fff"/>
  </g>
  <g id="Group_99" data-name="Group 99" transform="translate(16.55 52.16)">
    <path id="Path_60" data-name="Path 60" d="M125.444,113.282l.674-.674-.674-.674-.674.674Z" transform="translate(-124.77 -111.934)" fill="#fff"/>
  </g>
  <g id="Group_100" data-name="Group 100" transform="translate(15.211 52.849)">
    <circle id="Ellipse_50" data-name="Ellipse 50" cx="0.551" cy="0.551" r="0.551" fill="#fff"/>
  </g>
  <g id="Group_101" data-name="Group 101" transform="translate(19.364 53.401)">
    <path id="Path_61" data-name="Path 61" d="M130.855,114.675l-.689-.674-.674.689.674.674Z" transform="translate(-129.492 -114.001)" fill="#fff"/>
  </g>
  <g id="Group_102" data-name="Group 102" transform="translate(17.645 55.438)">
    <circle id="Ellipse_51" data-name="Ellipse 51" cx="0.551" cy="0.551" r="0.551" fill="#fff"/>
  </g>
  <g id="Group_103" data-name="Group 103" transform="translate(24.05 58.623)">
    <path id="Path_62" data-name="Path 62" d="M137.353,123.67l.949.077.077-.965-.949-.077Z" transform="translate(-137.353 -122.705)" fill="#fff"/>
  </g>
  <g id="Group_104" data-name="Group 104" transform="translate(20.961 58.531)">
    <circle id="Ellipse_52" data-name="Ellipse 52" cx="0.551" cy="0.551" r="0.551" fill="#fff"/>
  </g>
  <g id="Group_105" data-name="Group 105" transform="translate(21.266 54.917)">
    <path id="Path_63" data-name="Path 63" d="M132.682,116.528v.965l.965-.015-.015-.949Z" transform="translate(-132.682 -116.528)" fill="#fff"/>
  </g>
  <g id="Group_106" data-name="Group 106" transform="translate(28.613 57.704)">
    <circle id="Ellipse_53" data-name="Ellipse 53" cx="0.551" cy="0.551" r="0.551" fill="#fff"/>
  </g>
  <g id="Group_107" data-name="Group 107" transform="translate(30.575 56.356)">
    <path id="Path_64" data-name="Path 64" d="M149.543,119.264l-.9-.337-.337.9.9.337Z" transform="translate(-148.303 -118.927)" fill="#fff"/>
  </g>
  <g id="Group_108" data-name="Group 108" transform="translate(25.236 61.686)">
    <circle id="Ellipse_54" data-name="Ellipse 54" cx="0.551" cy="0.551" r="0.551" fill="#fff"/>
  </g>
  <g id="Group_109" data-name="Group 109" transform="translate(27.609 60.813)">
    <circle id="Ellipse_55" data-name="Ellipse 55" cx="0.551" cy="0.551" r="0.551" fill="#fff"/>
  </g>
  <g id="Group_110" data-name="Group 110" transform="translate(29.343 59.281)">
    <circle id="Ellipse_56" data-name="Ellipse 56" cx="0.551" cy="0.551" r="0.551" fill="#fff"/>
  </g>
  <g id="Group_111" data-name="Group 111" transform="translate(32.902 58.945)">
    <path id="Path_65" data-name="Path 65" d="M152.376,124.359l.934-.168-.168-.949-.934.168Z" transform="translate(-152.208 -123.241)" fill="#fff"/>
  </g>
  <g id="Group_112" data-name="Group 112" transform="translate(29.313 51.823)">
    <circle id="Ellipse_57" data-name="Ellipse 57" cx="0.551" cy="0.551" r="0.551" fill="#fff"/>
  </g>
  <g id="Group_113" data-name="Group 113" transform="translate(26.605 44.764)">
    <path id="Path_66" data-name="Path 66" d="M142.606,99.606l-.965.015.015.949h.965Z" transform="translate(-141.641 -99.606)" fill="#fff"/>
  </g>
  <g id="Group_114" data-name="Group 114" transform="translate(23.776 45.897)">
    <circle id="Ellipse_58" data-name="Ellipse 58" cx="0.551" cy="0.551" r="0.551" fill="#fff"/>
  </g>
  <g id="Group_115" data-name="Group 115" transform="translate(32.933 51.563)">
    <path id="Path_67" data-name="Path 67" d="M153.469,111.842l-.306-.9-.9.306.306.9Z" transform="translate(-152.259 -110.938)" fill="#fff"/>
  </g>
  <g id="Group_116" data-name="Group 116" transform="translate(35.321 48.715)">
    <circle id="Ellipse_59" data-name="Ellipse 59" cx="0.551" cy="0.551" r="0.551" fill="#fff"/>
  </g>
  <g id="Group_117" data-name="Group 117" transform="translate(35.473 43.584)">
    <path id="Path_68" data-name="Path 68" d="M157.731,97.916l-.919-.276-.291.919.919.276Z" transform="translate(-156.521 -97.641)" fill="#fff"/>
  </g>
  <g id="Group_118" data-name="Group 118" transform="translate(28.156 44.289)">
    <circle id="Ellipse_60" data-name="Ellipse 60" cx="0.551" cy="0.551" r="0.551" fill="#fff"/>
  </g>
  <g id="Group_119" data-name="Group 119" transform="translate(31.685 44.809)">
    <path id="Path_69" data-name="Path 69" d="M151.483,100.509l-.49-.827-.827.49.49.827Z" transform="translate(-150.166 -99.682)" fill="#fff"/>
  </g>
  <g id="Group_120" data-name="Group 120" transform="translate(35.564 39.373)">
    <circle id="Ellipse_61" data-name="Ellipse 61" cx="0.551" cy="0.551" r="0.551" fill="#fff"/>
  </g>
  <g id="Group_121" data-name="Group 121" transform="translate(35.701 41.134)">
    <path id="Path_70" data-name="Path 70" d="M156.9,94.476l.919.276.276-.919-.919-.276Z" transform="translate(-156.904 -93.557)" fill="#fff"/>
  </g>
  <g id="Group_122" data-name="Group 122" transform="translate(37.907 48.715)">
    <circle id="Ellipse_62" data-name="Ellipse 62" cx="0.551" cy="0.551" r="0.551" fill="#fff"/>
  </g>
  <g id="Group_123" data-name="Group 123" transform="translate(37.663 43.584)">
    <path id="Path_71" data-name="Path 71" d="M161.1,97.641l-.9.276.276.919.919-.276Z" transform="translate(-160.197 -97.641)" fill="#fff"/>
  </g>
  <g id="Group_124" data-name="Group 124" transform="translate(37.664 39.373)">
    <circle id="Ellipse_63" data-name="Ellipse 63" cx="0.551" cy="0.551" r="0.551" fill="#fff"/>
  </g>
  <g id="Group_125" data-name="Group 125" transform="translate(37.435 41.134)">
    <path id="Path_72" data-name="Path 72" d="M160.1,94.751l.9-.276-.276-.919-.919.276Z" transform="translate(-159.814 -93.557)" fill="#fff"/>
  </g>
  <g id="Group_126" data-name="Group 126" transform="translate(41.178 55.82)">
    <path id="Path_73" data-name="Path 73" d="M166.108,119h.965l-.015-.965-.965.015" transform="translate(-166.093 -118.034)" fill="#fff"/>
  </g>
  <g id="Group_127" data-name="Group 127" transform="translate(35.838 55.637)">
    <path id="Path_74" data-name="Path 74" d="M158.083,117.728l-.949.138.138.949.949-.138Z" transform="translate(-157.134 -117.728)" fill="#fff"/>
  </g>
  <g id="Group_128" data-name="Group 128" transform="translate(34.514 56.219)">
    <path id="Path_75" data-name="Path 75" d="M155.74,118.7l-.827.49.49.812.827-.475Z" transform="translate(-154.913 -118.698)" fill="#fff"/>
  </g>
  <g id="Group_129" data-name="Group 129" transform="translate(55.583 55.438)">
    <circle id="Ellipse_64" data-name="Ellipse 64" cx="0.551" cy="0.551" r="0.551" fill="#fff"/>
  </g>
  <g id="Group_130" data-name="Group 130" transform="translate(49.255 58.623)">
    <path id="Path_76" data-name="Path 76" d="M179.722,123.746l.965-.077-.092-.965-.949.077Z" transform="translate(-179.646 -122.705)" fill="#fff"/>
  </g>
  <g id="Group_131" data-name="Group 131" transform="translate(52.267 58.531)">
    <circle id="Ellipse_65" data-name="Ellipse 65" cx="0.551" cy="0.551" r="0.551" fill="#fff"/>
  </g>
  <g id="Group_132" data-name="Group 132" transform="translate(52.115 54.917)">
    <path id="Path_77" data-name="Path 77" d="M185.394,117.493v-.965h-.949v.949Z" transform="translate(-184.444 -116.528)" fill="#fff"/>
  </g>
  <g id="Group_133" data-name="Group 133" transform="translate(44.631 57.704)">
    <circle id="Ellipse_66" data-name="Ellipse 66" cx="0.551" cy="0.551" r="0.551" fill="#fff"/>
  </g>
  <g id="Group_134" data-name="Group 134" transform="translate(42.516 56.356)">
    <path id="Path_78" data-name="Path 78" d="M169.242,118.927l-.9.337.337.9.9-.337Z" transform="translate(-168.339 -118.927)" fill="#fff"/>
  </g>
  <g id="Group_135" data-name="Group 135" transform="translate(47.992 61.686)">
    <circle id="Ellipse_67" data-name="Ellipse 67" cx="0.551" cy="0.551" r="0.551" fill="#fff"/>
  </g>
  <g id="Group_136" data-name="Group 136" transform="translate(37.405 55.637)">
    <path id="Path_79" data-name="Path 79" d="M160.85,117.866l-.949-.138-.138.949.949.138Z" transform="translate(-159.763 -117.728)" fill="#fff"/>
  </g>
  <g id="Group_137" data-name="Group 137" transform="translate(45.634 60.813)">
    <circle id="Ellipse_68" data-name="Ellipse 68" cx="0.551" cy="0.551" r="0.551" fill="#fff"/>
  </g>
  <g id="Group_138" data-name="Group 138" transform="translate(38.5 56.219)">
    <path id="Path_80" data-name="Path 80" d="M162.918,119.188l-.827-.49-.49.827.827.475Z" transform="translate(-161.601 -118.698)" fill="#fff"/>
  </g>
  <g id="Group_139" data-name="Group 139" transform="translate(43.9 59.281)">
    <circle id="Ellipse_69" data-name="Ellipse 69" cx="0.551" cy="0.551" r="0.551" fill="#fff"/>
  </g>
  <g id="Group_140" data-name="Group 140" transform="translate(40.326 58.945)">
    <path id="Path_81" data-name="Path 81" d="M164.663,124.19l.949.168.168-.949-.949-.168Z" transform="translate(-164.663 -123.241)" fill="#fff"/>
  </g>
  <g id="Group_141" data-name="Group 141" transform="translate(31.731 16.769)">
    <circle id="Ellipse_70" data-name="Ellipse 70" cx="0.551" cy="0.551" r="0.551" fill="#fff"/>
  </g>
  <g id="Group_142" data-name="Group 142" transform="translate(24.049 21.149)">
    <path id="Path_82" data-name="Path 82" d="M137.353,60.937l.7.674.659-.7-.7-.659Z" transform="translate(-137.353 -60.248)" fill="#fff"/>
  </g>
  <g id="Group_143" data-name="Group 143" transform="translate(27.183 17.259)">
    <circle id="Ellipse_71" data-name="Ellipse 71" cx="0.551" cy="0.551" r="0.551" fill="#fff"/>
  </g>
  <g id="Group_144" data-name="Group 144" transform="translate(33.723 18.714)">
    <path id="Path_83" data-name="Path 83" d="M154.949,56.787l-.75-.6-.613.735.75.613Z" transform="translate(-153.586 -56.19)" fill="#fff"/>
  </g>
  <g id="Group_145" data-name="Group 145" transform="translate(31.001 21.44)">
    <circle id="Ellipse_72" data-name="Ellipse 72" cx="0.551" cy="0.551" r="0.551" fill="#fff"/>
  </g>
  <g id="Group_146" data-name="Group 146" transform="translate(35.534 23.967)">
    <path id="Path_84" data-name="Path 84" d="M156.868,66.124l.919-.245-.245-.934-.919.245Z" transform="translate(-156.623 -64.945)" fill="#fff"/>
  </g>
  <g id="Group_147" data-name="Group 147" transform="translate(12.267 23.553)">
    <circle id="Ellipse_73" data-name="Ellipse 73" cx="0.551" cy="0.551" r="0.551" fill="#fff"/>
  </g>
  <g id="Group_148" data-name="Group 148" transform="translate(16.748 17.029)">
    <path id="Path_85" data-name="Path 85" d="M126.02,54.577l.276-.919-.919-.276-.276.9Z" transform="translate(-125.102 -53.382)" fill="#fff"/>
  </g>
  <g id="Group_149" data-name="Group 149" transform="translate(17.98 18.408)">
    <circle id="Ellipse_74" data-name="Ellipse 74" cx="0.551" cy="0.551" r="0.551" fill="#fff"/>
  </g>
  <g id="Group_150" data-name="Group 150" transform="translate(17.204 23.829)">
    <path id="Path_86" data-name="Path 86" d="M126.817,65.833l.168-.934-.934-.184-.184.949Z" transform="translate(-125.867 -64.715)" fill="#fff"/>
  </g>
  <g id="Group_152" data-name="Group 152" transform="translate(18.132 22.374)">
    <g id="Group_151" data-name="Group 151">
      <circle id="Ellipse_75" data-name="Ellipse 75" cx="0.551" cy="0.551" r="0.551" fill="#fff"/>
    </g>
  </g>
  <g id="Group_153" data-name="Group 153" transform="translate(23.639 24.212)">
    <circle id="Ellipse_76" data-name="Ellipse 76" cx="0.551" cy="0.551" r="0.551" fill="#fff"/>
  </g>
  <g id="Group_154" data-name="Group 154" transform="translate(17.508 20.368)">
    <path id="Path_87" data-name="Path 87" d="M126.378,59.59l.643.72.72-.643-.643-.72Z" transform="translate(-126.378 -58.947)" fill="#fff"/>
  </g>
  <g id="Group_155" data-name="Group 155" transform="translate(20.992 18.071)">
    <circle id="Ellipse_77" data-name="Ellipse 77" cx="0.551" cy="0.551" r="0.551" fill="#fff"/>
  </g>
  <g id="Group_156" data-name="Group 156" transform="translate(20.261 13.905)">
    <path id="Path_88" data-name="Path 88" d="M131.58,48.176l-.582.766.766.567.582-.766Z" transform="translate(-130.998 -48.176)" fill="#fff"/>
  </g>
  <g id="Group_157" data-name="Group 157" transform="translate(18.178 15.988)">
    <circle id="Ellipse_78" data-name="Ellipse 78" cx="0.551" cy="0.551" r="0.551" fill="#fff"/>
  </g>
  <g id="Group_158" data-name="Group 158" transform="translate(15.546 16.095)">
    <circle id="Ellipse_79" data-name="Ellipse 79" cx="0.551" cy="0.551" r="0.551" fill="#fff"/>
  </g>
  <g id="Group_159" data-name="Group 159" transform="translate(16.276 13.706)">
    <path id="Path_89" data-name="Path 89" d="M125.627,48.318l-.827-.475-.49.827.827.475Z" transform="translate(-124.31 -47.844)" fill="#fff"/>
  </g>
  <g id="Group_160" data-name="Group 160" transform="translate(18.36 10.858)">
    <circle id="Ellipse_80" data-name="Ellipse 80" cx="0.551" cy="0.551" r="0.551" fill="#fff"/>
  </g>
  <g id="Group_161" data-name="Group 161" transform="translate(35.488 20.307)">
    <path id="Path_90" data-name="Path 90" d="M156.547,59.763l.919.291.291-.9-.919-.306Z" transform="translate(-156.547 -58.844)" fill="#fff"/>
  </g>
  <g id="Group_162" data-name="Group 162" transform="translate(41.207 8.852)">
    <path id="Path_91" data-name="Path 91" d="M166.144,40.4l.643.7.72-.628-.643-.72Z" transform="translate(-166.144 -39.753)" fill="#fff"/>
  </g>
  <g id="Group_163" data-name="Group 163" transform="translate(43.292 9.541)">
    <circle id="Ellipse_81" data-name="Ellipse 81" cx="0.551" cy="0.551" r="0.551" fill="#fff"/>
  </g>
  <g id="Group_164" data-name="Group 164" transform="translate(49.026 14.931)">
    <path id="Path_92" data-name="Path 92" d="M179.263,50.82l.934.214.214-.949-.934-.2Z" transform="translate(-179.263 -49.886)" fill="#fff"/>
  </g>
  <g id="Group_165" data-name="Group 165" transform="translate(40.995 14.549)">
    <circle id="Ellipse_82" data-name="Ellipse 82" cx="0.551" cy="0.551" r="0.551" fill="#fff"/>
  </g>
  <g id="Group_166" data-name="Group 166" transform="translate(47.322 13.844)">
    <path id="Path_93" data-name="Path 93" d="M177.185,49.406l.567-.766-.766-.567-.582.766Z" transform="translate(-176.404 -48.073)" fill="#fff"/>
  </g>
  <g id="Group_167" data-name="Group 167" transform="translate(42.349 11.914)">
    <path id="Path_94" data-name="Path 94" d="M168.135,45.884l.965-.077-.077-.949-.965.077Z" transform="translate(-168.058 -44.857)" fill="#fff"/>
  </g>
  <g id="Group_168" data-name="Group 168" transform="translate(41.497 16.769)">
    <circle id="Ellipse_83" data-name="Ellipse 83" cx="0.551" cy="0.551" r="0.551" fill="#fff"/>
  </g>
  <g id="Group_169" data-name="Group 169" transform="translate(48.919 21.149)">
    <path id="Path_95" data-name="Path 95" d="M179.758,61.611l.689-.674-.659-.689-.7.659Z" transform="translate(-179.084 -60.248)" fill="#fff"/>
  </g>
  <g id="Group_170" data-name="Group 170" transform="translate(46.045 17.259)">
    <circle id="Ellipse_84" data-name="Ellipse 84" cx="0.551" cy="0.551" r="0.551" fill="#fff"/>
  </g>
  <g id="Group_171" data-name="Group 171" transform="translate(39.26 18.714)">
    <path id="Path_96" data-name="Path 96" d="M163.612,56.19l-.735.6.6.75.75-.613Z" transform="translate(-162.877 -56.19)" fill="#fff"/>
  </g>
  <g id="Group_172" data-name="Group 172" transform="translate(42.227 21.44)">
    <circle id="Ellipse_85" data-name="Ellipse 85" cx="0.551" cy="0.551" r="0.551" fill="#fff"/>
  </g>
  <g id="Group_173" data-name="Group 173" transform="translate(37.633 23.967)">
    <path id="Path_97" data-name="Path 97" d="M160.146,65.879l.934.245.23-.934-.919-.245Z" transform="translate(-160.146 -64.945)" fill="#fff"/>
  </g>
  <g id="Group_174" data-name="Group 174" transform="translate(60.957 23.553)">
    <circle id="Ellipse_86" data-name="Ellipse 86" cx="0.551" cy="0.551" r="0.551" fill="#fff"/>
  </g>
  <g id="Group_175" data-name="Group 175" transform="translate(55.248 18.408)">
    <circle id="Ellipse_87" data-name="Ellipse 87" cx="0.551" cy="0.551" r="0.551" fill="#fff"/>
  </g>
  <g id="Group_176" data-name="Group 176" transform="translate(56.009 23.829)">
    <path id="Path_98" data-name="Path 98" d="M190.978,64.9l.168.934.949-.168-.184-.949Z" transform="translate(-190.978 -64.715)" fill="#fff"/>
  </g>
  <g id="Group_178" data-name="Group 178" transform="translate(55.096 22.374)">
    <g id="Group_177" data-name="Group 177">
      <circle id="Ellipse_88" data-name="Ellipse 88" cx="0.551" cy="0.551" r="0.551" fill="#fff"/>
    </g>
  </g>
  <g id="Group_179" data-name="Group 179" transform="translate(49.589 24.212)">
    <circle id="Ellipse_89" data-name="Ellipse 89" cx="0.551" cy="0.551" r="0.551" fill="#fff"/>
  </g>
  <g id="Group_180" data-name="Group 180" transform="translate(55.46 20.368)">
    <path id="Path_99" data-name="Path 99" d="M190.779,60.31l.643-.72-.72-.643-.643.72Z" transform="translate(-190.06 -58.947)" fill="#fff"/>
  </g>
  <g id="Group_181" data-name="Group 181" transform="translate(52.236 18.071)">
    <circle id="Ellipse_90" data-name="Ellipse 90" cx="0.551" cy="0.551" r="0.551" fill="#fff"/>
  </g>
  <g id="Group_182" data-name="Group 182" transform="translate(52.722 13.905)">
    <path id="Path_100" data-name="Path 100" d="M186.813,48.941l-.567-.766-.781.567.582.766Z" transform="translate(-185.465 -48.176)" fill="#fff"/>
  </g>
  <g id="Group_183" data-name="Group 183" transform="translate(55.05 15.988)">
    <circle id="Ellipse_91" data-name="Ellipse 91" cx="0.551" cy="0.551" r="0.551" fill="#fff"/>
  </g>
  <g id="Group_184" data-name="Group 184" transform="translate(49.482 13.66)">
    <path id="Path_101" data-name="Path 101" d="M180.029,48.058l.291.9.919-.276-.291-.919Z" transform="translate(-180.029 -47.767)" fill="#fff"/>
  </g>
  <g id="Group_185" data-name="Group 185" transform="translate(57.682 16.095)">
    <circle id="Ellipse_92" data-name="Ellipse 92" cx="0.551" cy="0.551" r="0.551" fill="#fff"/>
  </g>
  <g id="Group_186" data-name="Group 186" transform="translate(56.738 13.706)">
    <path id="Path_102" data-name="Path 102" d="M193.031,47.844l-.827.475.49.827.827-.475Z" transform="translate(-192.204 -47.844)" fill="#fff"/>
  </g>
  <g id="Group_187" data-name="Group 187" transform="translate(37.633 20.307)">
    <path id="Path_103" data-name="Path 103" d="M160.437,60.054l.919-.291-.291-.919-.919.306Z" transform="translate(-160.146 -58.844)" fill="#fff"/>
  </g>
  <g id="Group_188" data-name="Group 188" transform="translate(56.389 17.029)">
    <path id="Path_104" data-name="Path 104" d="M191.617,53.658l.276.919.919-.291-.276-.9Z" transform="translate(-191.617 -53.382)" fill="#fff"/>
  </g>
</svg>
