<svg id="Group_901" data-name="Group 901" xmlns="http://www.w3.org/2000/svg" width="436.66" height="372.429" viewBox="0 0 436.66 372.429">
  <g id="Group_2" data-name="Group 2" transform="translate(0 170.032)">
    <g id="Group_1" data-name="Group 1">
      <path id="Path_1" data-name="Path 1" d="M136.32,101.531c0,6.777-4.992,10.165-15.07,10.165h-9.271a21.862,21.862,0,0,1-9.631-1.782A8.627,8.627,0,0,1,97,101.531V84.057c0-6.868,4.992-10.256,15.07-10.256h9.271c4.636,0,8.024.447,9.9,1.429,3.479,1.516,5.17,4.545,5.17,8.828v17.473Zm-5.974-.178V84.235c0-3.21-3.032-4.817-9.006-4.817h-9.362q-9.1,0-9.093,4.817v17.117c0,3.123,3.029,4.636,9.093,4.636h9.453C127.406,105.988,130.347,104.475,130.347,101.352Z" transform="translate(-97 -73.357)" fill="#fff"/>
      <path id="Path_2" data-name="Path 2" d="M149.6,107.784c0,2.854-1.069,4.37-3.3,4.37a5.243,5.243,0,0,1-3.385-1.872L115.276,82.818v26.661a2.232,2.232,0,0,1-1.247,2.316c-.269,0-.625.091-.982.091s-.982.091-1.516.091c-1.425,0-2.051-.8-2.051-2.5V77.826c0-2.763.982-4.1,3.032-4.1a5.691,5.691,0,0,1,3.923,1.96l27.373,27.108V76.4a2.234,2.234,0,0,1,1.247-2.319c.269,0,.625-.091.982-.091.444,0,.982-.087,1.516-.087q2.138,0,2.138,2.407v31.474Z" transform="translate(-65.881 -73.547)" fill="#fff"/>
      <path id="Path_3" data-name="Path 3" d="M158.76,109.224c0,1.6-.713,2.5-2.051,2.5H137.716a30.417,30.417,0,0,1-10.162-1.338c-3.745-1.516-5.617-4.37-5.617-8.649v-25.5c0-1.6.713-2.407,2.051-2.407a13.065,13.065,0,0,1,2.585.178c.891.269,1.247,1.069,1.247,2.229v25.5c0,1.96,1.338,3.3,4.1,3.923a26.745,26.745,0,0,0,6.064.447h18.724C158.134,105.923,158.76,107,158.76,109.224Z" transform="translate(-35.454 -73.293)" fill="#fff"/>
      <path id="Path_4" data-name="Path 4" d="M139.447,109.352c0,1.6-.713,2.5-2.051,2.5a7.105,7.105,0,0,1-1.516-.091,4.3,4.3,0,0,0-.982-.091c-.891-.266-1.247-1.069-1.247-2.316V76.274a2.238,2.238,0,0,1,1.247-2.32c.178,0,.538-.091.894-.091.444,0,.978-.087,1.694-.087,1.425,0,2.051.8,2.051,2.407v33.169Z" transform="translate(-6.474 -73.42)" fill="#fff"/>
      <path id="Path_5" data-name="Path 5" d="M176.711,107.784c0,2.854-1.069,4.37-3.3,4.37a5.241,5.241,0,0,1-3.388-1.872L142.382,82.818v26.661a2.232,2.232,0,0,1-1.247,2.316c-.269,0-.625.091-.982.091s-.978.091-1.516.091c-1.425,0-2.051-.8-2.051-2.5V77.826c0-2.763.982-4.1,3.032-4.1a5.691,5.691,0,0,1,3.923,1.96l27.373,27.108V76.4a2.238,2.238,0,0,1,1.247-2.319c.269,0,.625-.091.982-.091.447,0,.982-.087,1.516-.087q2.138,0,2.141,2.407v31.474Z" transform="translate(0.695 -73.547)" fill="#fff"/>
      <path id="Path_6" data-name="Path 6" d="M185.727,92.7c0,2.051-.716,3.032-2.229,3.032H154.966v6.242c0,2.676,2.5,4.01,7.577,4.01H183.5c1.425,0,2.051.8,2.051,2.5,0,2.141-.716,3.21-2.051,3.21H162.277a18.315,18.315,0,0,1-8.559-1.963,8.015,8.015,0,0,1-4.726-7.577V83.432a8.088,8.088,0,0,1,1.6-4.9c2.32-3.12,6.33-4.726,12.216-4.726h5.8c1.338,0,2.051,1.072,2.051,3.21,0,1.607-.713,2.5-2.051,2.5h-2.051a4.624,4.624,0,0,1-1.16-.091h-.8c-6.512,0-9.722,1.338-9.722,4.1v6.6h28.711C185.011,90.031,185.727,90.922,185.727,92.7Z" transform="translate(31.32 -73.357)" fill="#fff"/>
      <path id="Path_7" data-name="Path 7" d="M170.714,109.352c0,1.6-.713,2.5-2.051,2.5a7.1,7.1,0,0,1-1.516-.091,4.3,4.3,0,0,0-.982-.091c-.891-.266-1.247-1.069-1.247-2.316V76.274a2.234,2.234,0,0,1,1.247-2.32c.178,0,.534-.091.891-.091.447,0,.982-.087,1.694-.087,1.429,0,2.05.8,2.05,2.407v33.169Z" transform="translate(70.751 -73.42)" fill="#fff"/>
      <path id="Path_8" data-name="Path 8" d="M204.345,109.224c0,1.6-.713,2.5-2.051,2.5H183.3a30.426,30.426,0,0,1-10.165-1.338c-3.745-1.516-5.617-4.37-5.617-8.649v-25.5c0-1.6.713-2.407,2.051-2.407a13.065,13.065,0,0,1,2.585.178c.894.269,1.251,1.069,1.251,2.229v25.5c0,1.96,1.338,3.3,4.1,3.923a26.683,26.683,0,0,0,6.061.447h18.724C203.632,105.923,204.345,107,204.345,109.224Z" transform="translate(77.053 -73.293)" fill="#fff"/>
      <path id="Path_9" data-name="Path 9" d="M185.033,109.352c0,1.6-.716,2.5-2.051,2.5a7.1,7.1,0,0,1-1.516-.091,4.3,4.3,0,0,0-.982-.091c-.891-.266-1.247-1.069-1.247-2.316V76.274a2.234,2.234,0,0,1,1.247-2.32c.178,0,.534-.091.891-.091.447,0,.982-.087,1.694-.087,1.425,0,2.05.8,2.05,2.407v33.169Z" transform="translate(106.117 -73.42)" fill="#fff"/>
      <path id="Path_10" data-name="Path 10" d="M227.545,109.428a3.571,3.571,0,0,1-.8,2.407,2.666,2.666,0,0,1-2.051.982,3.121,3.121,0,0,1-2.763-1.872l-5.261-8.918H191.7l-5.261,8.918c-.534.978-1.16,1.425-1.872,1.425a3.269,3.269,0,0,1-1.872-.713,2.214,2.214,0,0,1-.982-1.872,1.307,1.307,0,0,1,.178-.625l18.724-33.434a4.191,4.191,0,0,1,3.923-2.051c1.429,0,2.32.444,2.767,1.338,0,.087.087.178.087.266a1.543,1.543,0,0,0,.178.447l19.884,32.812A1.956,1.956,0,0,1,227.545,109.428ZM213.188,96.321l-9.006-15.514-9.006,15.514Z" transform="translate(112.029 -73.674)" fill="#fff"/>
      <path id="Path_11" data-name="Path 11" d="M235.773,101.059c0,7.224-5.886,10.791-17.742,10.791h-1.338a14.217,14.217,0,0,1-1.872-.091,11.749,11.749,0,0,1-1.872-.091,6.78,6.78,0,0,0-1.338,0c-8.293,0-13.376-1.782-15.067-5.436a11.968,11.968,0,0,1-.894-5.174V76.274c0-1.607.713-2.41,2.05-2.41a14.183,14.183,0,0,1,2.589.178,2.063,2.063,0,0,1,1.334,2.232v24.341q0,3.61,3.745,4.814a16.528,16.528,0,0,0,2.676.444c.982.091,2.229.178,3.657.178h8.2c3.12,0,5.17-.178,6.239-.622q3.746-1.205,3.745-4.814V76.183c0-1.247.447-1.963,1.251-2.229a12.39,12.39,0,0,1,2.585-.178c1.425,0,2.051.8,2.051,2.407Z" transform="translate(146.053 -73.42)" fill="#fff"/>
      <path id="Path_12" data-name="Path 12" d="M248.535,107.784c0,2.854-1.069,4.37-3.3,4.37a5.242,5.242,0,0,1-3.385-1.872L214.206,82.818v26.661a2.232,2.232,0,0,1-1.247,2.316c-.269,0-.625.091-.982.091-.447,0-.982.091-1.516.091-1.425,0-2.051-.8-2.051-2.5V77.826c0-2.763.982-4.1,3.032-4.1a5.691,5.691,0,0,1,3.923,1.96l27.373,27.108V76.4a2.233,2.233,0,0,1,1.247-2.319c.269,0,.625-.091.981-.091.447,0,.982-.087,1.516-.087q2.138,0,2.138,2.407v31.474Z" transform="translate(177.872 -73.547)" fill="#fff"/>
      <path id="Path_13" data-name="Path 13" d="M226.946,109.352c0,1.6-.716,2.5-2.054,2.5a7.086,7.086,0,0,1-1.513-.091,4.317,4.317,0,0,0-.982-.091c-.891-.266-1.251-1.069-1.251-2.316V76.274a2.236,2.236,0,0,1,1.251-2.32c.178,0,.534-.091.891-.091.447,0,.982-.087,1.694-.087,1.425,0,2.051.8,2.051,2.407v33.169Z" transform="translate(209.626 -73.42)" fill="#fff"/>
    </g>
  </g>
  <g id="Group_4" data-name="Group 4" transform="translate(57.51 1.561)">
    <g id="Group_3" data-name="Group 3">
      <path id="Path_14" data-name="Path 14" d="M169.919,311.523a5.023,5.023,0,0,0,3.977,2.138,8.157,8.157,0,0,1,2.3.625,13.827,13.827,0,0,1,4.417,3.12l.53-.622a17.084,17.084,0,0,0-4.684-3.3,10.113,10.113,0,0,0-2.472-.625,4.024,4.024,0,0,1-3.358-1.782c-1.239-1.782-.53-3.654.353-5.8a10.977,10.977,0,0,0,1.149-5.53,5.481,5.481,0,0,0-8.308-4.814l.353.8a5.672,5.672,0,0,1,4.95-.091c1.236.716,2.032,2.141,2.3,4.192.267,1.782-.44,3.476-1.059,5.17C169.3,307.152,168.42,309.381,169.919,311.523ZM367.567,94.234c-3.358.8-5.476,3.3-7.508,5.708a20.153,20.153,0,0,1-4.42,4.279c-1.765,1.16-3.8,1.425-5.919,1.782-.793.178-1.679.269-2.472.447l.177.8a24.483,24.483,0,0,1,2.472-.447,16.126,16.126,0,0,0,6.276-1.96,24.322,24.322,0,0,0,4.594-4.461c2.032-2.407,3.974-4.723,7.069-5.439,4.064-.978,10.513,1.429,13.251,4.9,3.977,4.817,1.855,13.554-2.032,20.062l.706.447c3.977-6.777,6.186-15.873,1.945-21.044C378.7,95.75,371.807,93.165,367.567,94.234ZM346.008,63.919l-.086.8a29.368,29.368,0,0,0,4.594-.269c6.273-.622,14.844-1.425,21.559,7.224,4.151,5.261,6.449,12.66,5.829,18.724l.8.087a29.255,29.255,0,0,0-6.009-19.346c-6.979-9.006-15.813-8.115-22.352-7.49A25.339,25.339,0,0,1,346.008,63.919Zm-14.49-14.088c5.923-2.851,11.576-3.3,15.816-1.425a10.064,10.064,0,0,1,5.743,6.421l.8-.269a10.972,10.972,0,0,0-6.186-6.955c-4.5-1.96-10.336-1.425-16.522,1.429Zm-6.979-21.843c5.123,2.32,9.011,7.042,11.133,13.641l.8-.265c-2.208-6.777-6.272-11.682-11.576-14.179a20.3,20.3,0,0,0-16.432,0l.353.8A20.074,20.074,0,0,1,324.539,27.987Zm58.4,118.23c-2.472-2.141-5.213-4.283-9.1-5.083a13.418,13.418,0,0,0-11.133,2.407,14.717,14.717,0,0,0-5.123,11.322c-.09,4.283-3.711,5.53-6.892,6.6-2.208.713-4.064,1.429-4.507,2.941-.353,1.072.09,2.32,1.326,4.014l.706-.534c-1.059-1.429-1.412-2.5-1.146-3.3.353-1.156,2.032-1.691,3.974-2.407,3.271-1.156,7.335-2.494,7.422-7.4a13.725,13.725,0,0,1,4.86-10.609,12.121,12.121,0,0,1,10.426-2.232c3.534.716,6.006,2.5,8.748,4.9Zm-25.8,195.62c4.95-.447,7.245-2.676,8.308-4.461a8.246,8.246,0,0,0,.616-7.221l-.8.269a7.587,7.587,0,0,1-.53,6.508c-.969,1.6-3.091,3.567-7.685,4.01a18.839,18.839,0,0,1-15.287-5.348l-.616.625a19.562,19.562,0,0,0,13.871,5.7A17.182,17.182,0,0,0,357.14,341.837Zm31.809-225.4c1.236.978,2.3,1.6,3.091,2.138,1.416.8,2.122,1.251,2.3,2.407l.8-.087c-.267-1.516-1.149-2.141-2.652-3.032-.8-.534-1.856-1.16-3-2.051-1.589-1.338-.883-3.032-.09-4.992a8.814,8.814,0,0,0,.886-3.479h-.8a6.745,6.745,0,0,1-.883,3.123C387.8,112.514,386.827,114.743,388.949,116.437Zm-22-7.49-.53-.716c-4.594,3.567-7.155,7.58-7.332,11.86-.353,4.1,1.149,7.133,2.738,10.344.353.713.706,1.425.973,2.051l.8-.356-1.063-2.141c-1.5-3.119-3-6.061-2.648-9.9C360.145,116.168,362.53,112.336,366.947,108.947ZM398.4,273.984a30.607,30.607,0,0,0-4.77,5.974l.706.356a28.862,28.862,0,0,1,4.594-5.8,27.53,27.53,0,0,0,5.213-6.777,16.3,16.3,0,0,0,.62-11.056l-.8.269a15.056,15.056,0,0,1-.53,10.431A25.65,25.65,0,0,1,398.4,273.984Zm-42.851,58.135c.706-4.461-.706-10.969-4.064-13.91l-.53.625c3.091,2.585,4.5,8.824,3.8,13.107ZM318,41.541a8.468,8.468,0,0,1,2.032,6.6,14.636,14.636,0,0,1-5.743,9.54,7.739,7.739,0,0,1-7.332,1.516l-.177.8a8.8,8.8,0,0,0,2.562.356,8.39,8.39,0,0,0,5.476-2.051,15.407,15.407,0,0,0,6.009-10.165,9.393,9.393,0,0,0-2.3-7.221c-4.064-4.9-8.128-5.17-12.988-4.1l.176.8C310.491,36.724,314.112,36.993,318,41.541ZM238.13,355.657l-.8-.356a13.241,13.241,0,0,1-11.752,7.4v.8A13.9,13.9,0,0,0,238.13,355.657Zm5.919,9.628a15.782,15.782,0,0,0-14.49,6.777l.706.447a14.894,14.894,0,0,1,13.608-6.421c3.268.356,5.566,1.963,6.449,4.457l.8-.265C250.235,367.516,247.583,365.731,244.049,365.284ZM229.735,346.92c-6.979.265-13.784-.625-16.256-9.184a14.571,14.571,0,0,1-.443-5.174,21.233,21.233,0,0,0-.087-4.1c-.62-3.3-2.742-5.974-6.452-8.115-.706-.444-1.412-.8-2.118-1.247-2.122-1.16-4.331-2.407-5.743-4.636a9.8,9.8,0,0,1-1.326-3.923,13.823,13.823,0,0,0-1.059-3.567c-3.448-6.064-11.046-9.453-16.789-11.234l-.267.8c5.566,1.782,12.988,5.079,16.259,10.878a15.652,15.652,0,0,1,.973,3.3,11.226,11.226,0,0,0,1.5,4.279c1.5,2.32,3.8,3.657,6.006,4.9.706.356,1.416.8,2.122,1.247,3.534,2.051,5.476,4.548,6.006,7.58a19.552,19.552,0,0,1,.09,3.923,14.374,14.374,0,0,0,.44,5.439c2.652,9.184,10.073,10.075,17.055,9.718a14.155,14.155,0,0,1,9.454,2.407,13.3,13.3,0,0,0,7.065,1.96v-.8a12.831,12.831,0,0,1-6.712-1.872A14.228,14.228,0,0,0,229.735,346.92ZM218.6,114.3c7.155-.534,12.811,3.567,15.55,5.973,3.358,3.12,6.1,5.352,9.983,4.814l-.087-.8c-3.534.444-6.1-1.694-9.367-4.636-2.825-2.5-8.744-6.69-16.166-6.155-5.923.447-11.489,3.745-16.7,9.809a4.3,4.3,0,0,0-.973,3.388c.616,4.726,8.3,10.165,12.458,13.016.353.269.706.447,1.059.716-8.128-2.141-9.983,1.96-11.662,5.7a11.677,11.677,0,0,1-2.652,4.279,1.6,1.6,0,0,0-.353.447l.62.622.353-.356a13.144,13.144,0,0,0,2.828-4.545c1.765-3.836,3.354-7.49,11.572-4.9.53.178,1.059.356,1.236-.091.267-.444-.087-.713-2.472-2.407-3.711-2.585-11.576-8.111-12.105-12.481a3.707,3.707,0,0,1,.8-2.676C207.56,117.953,212.95,114.743,218.6,114.3ZM255.888,379.82c-.53,2.585-2.3,4.457-5.39,5.617-8.394,3.21-24.207.087-30.393-4.726l-.53.713c4.507,3.479,14.224,6.152,22.528,6.152a26.086,26.086,0,0,0,8.748-1.338c3.358-1.247,5.3-3.385,5.919-6.239a18.291,18.291,0,0,1,3.8-7.668c2.032-2.676,3.974-5.261,3.181-10.253a24.191,24.191,0,0,0-2.652-7.4l-.706.356a27.994,27.994,0,0,1,2.562,7.133c.8,4.636-.973,6.955-3,9.631A17.106,17.106,0,0,0,255.888,379.82ZM281.6,50.369c-1.146-4.817-1.765-11.413,1.679-16.139,1.592-2.229,5.127-4.1,8.748-4.548,2.652-.269,4.95.269,6.362,1.6.973.716,1.149,2.141.53,3.745a6.312,6.312,0,0,1-6.362,3.926l-.087.8a6.938,6.938,0,0,0,7.245-4.457c.706-1.872.44-3.745-.8-4.726-1.679-1.516-4.15-2.138-7.069-1.782-3.8.444-7.6,2.407-9.277,4.9-3.621,4.9-3,11.856-1.765,16.761ZM265.078,311.075c2.738-3.745,5.123-8.38,2.562-14.354a30.723,30.723,0,0,0-1.679-3.032c-1.239-1.872-2.122-3.388-1.5-6.33a26.778,26.778,0,0,1,1.412-4.817c.177-.444.353-.978.53-1.425l-.793-.269c-.177.447-.353.982-.53,1.429a23.927,23.927,0,0,0-1.5,4.9c-.71,3.207.44,4.9,1.679,6.952a22.18,22.18,0,0,1,1.589,2.854c2.385,5.617.09,9.987-2.475,13.554Zm33.661-263.3c-2.475.447-4.86.894-6.8,2.767a13.51,13.51,0,0,0-3.271,14.085,31,31,0,0,0,1.149,3.032c1.5,3.745,2.738,7.046,1.326,11.147-.087.265-.267.622-.353.978-.62,1.607-1.5,3.567-.62,5.174.973,1.6,3.095,1.782,4.86,1.96.353,0,.706.091.973.091,5.39.891,8.481,4.1,9.187,9.362l.8-.091c-.8-5.617-4.24-9.093-9.9-10.075-.353,0-.706-.087-1.059-.087-1.5-.178-3.444-.269-4.154-1.516-.616-1.251.09-3.032.62-4.461.177-.356.266-.713.443-1.069,1.5-4.457.177-7.933-1.326-11.769-.353-.982-.8-1.96-1.149-3.032a12.437,12.437,0,0,1,3-13.194c1.765-1.694,4.064-2.141,6.449-2.585.443-.091.8-.178,1.236-.269a12.309,12.309,0,0,0,4.95-2.141l-.53-.713a11.239,11.239,0,0,1-4.6,2.051A8.694,8.694,0,0,1,298.739,47.78Zm-19.79,97.9c-5.127-15.6-4.77-31.293.973-42.974l-.8-.356c-5.833,11.86-6.186,27.817-1.059,43.6ZM282.483,73.1l.793-.178a16.118,16.118,0,0,0-3.354-5.617c-2.389-2.941-4.6-5.8-2.652-9.449l-.706-.36c-2.122,4.192.353,7.311,2.738,10.344C280.628,69.536,282.04,71.231,282.483,73.1Zm114.064,57.332c2.032,2.5,3.181,5.883,4.417,9.093,1.769,4.817,3.534,9.809,8.041,11.947,3.621,1.694,5.743,3.479,6.449,5.53s-.09,4.279-1.5,7.133l.706.356c1.5-3.032,2.385-5.439,1.592-7.846-.8-2.229-2.918-4.192-6.892-5.974-4.154-1.963-5.833-6.6-7.6-11.5-1.149-3.3-2.385-6.777-4.507-9.362-3.091-3.923-5.653-4.9-9.9-3.832l.177.8C391.424,125.886,393.719,126.777,396.547,130.435Zm-95.953,234.85c-3.534.447-6.186,2.232-7.155,5l.793.265c.886-2.407,3.271-4.01,6.453-4.457,4.24-.444,10.423,1.338,13.6,6.421l.706-.447C311.641,366.713,305.188,364.841,300.595,365.284Zm18.378-2.585a13.515,13.515,0,0,1-11.752-7.4l-.793.356a14.1,14.1,0,0,0,12.458,7.933Zm-13.165-41.458a35.61,35.61,0,0,0-3.091,2.051c-2.918,2.051-6.186,4.457-9.454,3.923l-.09.8a4.18,4.18,0,0,0,1.059.091c3.271,0,6.276-2.229,9.014-4.1,1.059-.713,2.032-1.425,3-2.051,5.476-3.12,11.042-4.279,16.785-5.53a88.421,88.421,0,0,0,10.87-2.763c6.979-2.407,9.011-7.846,11.132-13.641.706-1.872,1.412-3.745,2.3-5.617l-.8-.356c-.883,1.872-1.589,3.832-2.3,5.7-2.032,5.617-4.064,10.878-10.693,13.107a82.676,82.676,0,0,1-10.776,2.767C317.294,316.784,311.464,318.031,305.808,321.241ZM330.9,138.993c-2.385,1.694-2.738,1.872-2.475,2.407.176.447.8.269,1.236.091,8.218-2.585,9.81,1.069,11.576,4.9a13.5,13.5,0,0,0,2.828,4.545l.353.356.62-.622c-.09-.178-.266-.269-.443-.447a11.928,11.928,0,0,1-2.562-4.279c-1.679-3.654-3.534-7.846-11.662-5.708.353-.266.706-.444,1.059-.713,4.154-2.941,11.839-8.29,12.458-13.016a4.3,4.3,0,0,0-.973-3.388c-5.213-6.064-10.78-9.453-16.7-9.809-7.422-.534-13.341,3.657-16.169,6.243-3.268,2.941-5.829,5.083-9.364,4.636l-.09.8c3.887.447,6.626-1.694,9.983-4.814,2.742-2.407,8.394-6.511,15.55-5.974,5.656.356,11.046,3.567,16.083,9.54a3.057,3.057,0,0,1,.8,2.672C342.387,130.878,334.612,136.408,330.9,138.993ZM284.339,355.031l-.706-.356a26.712,26.712,0,0,0-2.651,7.4c-.8,4.992,1.149,7.577,3.181,10.253a16.4,16.4,0,0,1,3.8,7.668c.53,2.854,2.562,4.992,5.919,6.239a25.747,25.747,0,0,0,8.747,1.338c8.3,0,17.935-2.672,22.532-6.152l-.53-.713c-6.186,4.726-22,7.937-30.4,4.726-3.091-1.16-4.857-3.032-5.39-5.617a18.85,18.85,0,0,0-3.974-8.024c-2.032-2.676-3.8-5-3-9.631A25.44,25.44,0,0,1,284.339,355.031Zm124.93-70.079a20.582,20.582,0,0,0-6.1,1.156c-2.652.894-4.24,3.21-5.743,5.439-2.119,3.032-3.974,5.708-8.128,4.192-2.652-.982-2.3-4.9-2.032-8.38l-.8-.091c-.353,3.567-.706,8.024,2.562,9.184a7.339,7.339,0,0,0,2.565.534c3.091,0,4.857-2.494,6.536-4.992,1.416-2.141,3-4.279,5.39-5.083a18.335,18.335,0,0,1,5.919-1.069,22.783,22.783,0,0,0,6.276-1.16,11.337,11.337,0,0,0,6.449-7.133l-.8-.269a10.663,10.663,0,0,1-5.919,6.69A31.161,31.161,0,0,1,409.269,284.953Zm-131.2-28.889a19.5,19.5,0,0,0-1.149,11.056l.793-.178a17.765,17.765,0,0,1,1.063-10.522Zm106.729-90.5.177.8a14.656,14.656,0,0,0,9.191-6.064c4.064-6.417,7.332-13.107,4.5-18.989-2.825-5.53-12.722-7.311-18.2-7.49v.8c6.8.269,15.107,2.589,17.4,7.046,2.738,5.439-.53,11.947-4.417,18.1A14.322,14.322,0,0,1,384.8,165.563ZM338.586,321.15c.71-.444,1.416-.8,2.122-1.247,2.209-1.247,4.507-2.5,6.006-4.814a11.221,11.221,0,0,0,1.5-4.283,10.911,10.911,0,0,1,.973-3.3c3.358-5.8,10.693-9.093,16.259-10.878l-.267-.8c-5.743,1.785-13.341,5.174-16.789,11.325a16.7,16.7,0,0,0-1.059,3.567,9.8,9.8,0,0,1-1.326,3.923c-1.412,2.141-3.621,3.388-5.743,4.548-.706.444-1.412.8-2.119,1.247-3.711,2.229-5.833,4.9-6.452,8.2a16.033,16.033,0,0,0-.086,4.1,12.9,12.9,0,0,1-.443,5.174c-2.471,8.559-9.277,9.449-16.256,9.184a15.315,15.315,0,0,0-9.9,2.494,12.8,12.8,0,0,1-6.716,1.872v.8a13.9,13.9,0,0,0,7.069-1.963,14.155,14.155,0,0,1,9.454-2.407c6.982.356,14.4-.622,17.055-9.718a14.368,14.368,0,0,0,.44-5.439,19.719,19.719,0,0,1,.09-3.923C333.11,325.7,335.052,323.2,338.586,321.15Zm37.109-25.5a5.658,5.658,0,0,1,4.95.091l.353-.8a6.284,6.284,0,0,0-5.656,0q-2.254,1.336-2.652,4.814a10.783,10.783,0,0,0,1.149,5.53c.886,2.141,1.592,4.014.353,5.8a4.14,4.14,0,0,1-3.358,1.782,10.115,10.115,0,0,0-2.472.625,17.083,17.083,0,0,0-4.683,3.3l.53.622a13.83,13.83,0,0,1,4.417-3.12,12.757,12.757,0,0,1,2.3-.625,5.287,5.287,0,0,0,3.977-2.138c1.5-2.141.616-4.461-.267-6.6-.62-1.694-1.326-3.388-1.059-5.174A4.726,4.726,0,0,1,375.695,295.649Zm-96.306-1.516c1.239-1.96,2.3-3.654,1.679-6.952a24.805,24.805,0,0,0-1.5-5c-.177-.444-.353-.978-.53-1.425l-.793.266c.177.447.353.982.53,1.429a18.841,18.841,0,0,1,1.412,4.814c.62,2.854-.353,4.37-1.589,6.33a23.364,23.364,0,0,0-1.679,3.032c-2.562,5.974-.09,10.609,2.562,14.354l.706-.534c-2.562-3.567-4.86-7.933-2.475-13.55C278.243,295.918,278.859,295.027,279.389,294.133Zm61.849-207.3c2.915-3.3,3.624-6.777,1.945-9.54-2.032-3.3-6.892-4.639-11.842-3.21l.267.8c4.507-1.338,9.011-.178,10.866,2.851,1.5,2.5.886,5.617-1.765,8.562Zm20.939,4.545c-1.942,1.338-4.683,1.694-7.861,1.072l-.18.8a18.052,18.052,0,0,0,3,.36,9.712,9.712,0,0,0,5.48-1.516,7.492,7.492,0,0,0,3.091-5.261C367.037,78.72,357.14,75.153,349.1,72.3a48.743,48.743,0,0,1-6.453-2.585c-2.472-1.425-3.178-3.388-3.974-5.526a13.041,13.041,0,0,0-2.915-5.261c-3.181-3.479-6.892-3.21-10.869-3.032h-.263l.087.8h.266c3.974-.269,7.332-.447,10.246,2.763a11.68,11.68,0,0,1,2.742,4.992c.793,2.141,1.589,4.457,4.327,5.974a44.6,44.6,0,0,0,6.539,2.676c7.688,2.763,17.318,6.152,16.079,13.554A6.579,6.579,0,0,1,362.177,91.38Zm-64.5-21.218.353.8a27.886,27.886,0,0,1,8.218-2.054l-.09-.8A24.643,24.643,0,0,0,297.68,70.162Zm7.332,82.207.177-.8c-15.2-2.5-23.854,2.407-27.212,15.336l.8.178C281.954,154.685,290.258,149.962,305.012,152.369Zm31.809,107.17-.443.713a34.025,34.025,0,0,1,6.186,5.53c2.738,3.3,5.829,7.042,10.16,8.293,2.385.8,4.594.444,7.245.087a25.532,25.532,0,0,1,16.965,2.407l.353-.8a26.637,26.637,0,0,0-17.5-2.5c-2.475.356-4.683.713-6.8,0-4.064-1.16-7.069-4.814-9.807-8.024A35.99,35.99,0,0,0,336.821,259.539ZM297.943,112.158c5.3-4.639,12.282-10.078,19-10.791,6.625-.8,15.64,5.439,18.2,7.4l.53-.716c-2.651-1.96-11.929-8.29-18.821-7.49-6.979.716-14.047,6.242-19.437,11.056Zm-21.2-17.121a3.34,3.34,0,0,0,2.032,2.407,3.64,3.64,0,0,0,.973.178c2.208,0,5.033-1.872,7.6-3.832l-.533-.716c-1.679,1.251-5.743,4.283-7.861,3.567a2.588,2.588,0,0,1-1.5-1.782,10.674,10.674,0,0,1-.177-4.992,14.578,14.578,0,0,0,.263-3.479,27.463,27.463,0,0,1,.443-5.083l-.8-.087a40.325,40.325,0,0,0-.44,5.261,20.321,20.321,0,0,1-.266,3.389A11.705,11.705,0,0,0,276.741,95.037Zm35.783-20.6c5.037-1.516,9.01-2.676,9.454-5.17.263-1.694-1.149-3.657-4.507-6.155l-.53.716c3,2.229,4.33,4.01,4.154,5.261-.353,1.96-4.331,3.119-8.924,4.457-4.417,1.338-9.367,2.763-12.9,5.439l.53.713C303.246,77.2,308.193,75.779,312.524,74.441ZM309.7,285.753c3.534-3.032,6.539-5.7,11.576-.444l.616-.625c-5.653-5.886-9.277-2.676-12.721.356-2.738,2.407-5.213,4.636-8.748,3.032l-.353.8a6.061,6.061,0,0,0,2.652.622C305.365,289.588,307.573,287.625,309.7,285.753Zm17.758-158.081-.616-.625c-1.679,1.6-3.181,4.37-4.507,6.6-.529.978-.973,1.782-1.326,2.316a11.84,11.84,0,0,1-7.155,4.548,4.049,4.049,0,0,1-3.181-.534,16.5,16.5,0,0,1-2.385-2.585c-1.326-1.694-2.742-3.479-5.39-3.567h-.177c-1.945,0-2.918,1.425-3.8,2.763-.706,1.16-1.412,2.229-2.652,2.5-2.738.713-5.39-.269-7.775-2.854l-.616.625c2.562,2.763,5.566,3.832,8.567,3.029a6.245,6.245,0,0,0,3.181-2.851c.886-1.338,1.679-2.5,3.271-2.41,2.208.091,3.358,1.516,4.68,3.21a17.423,17.423,0,0,0,2.475,2.676,4.363,4.363,0,0,0,2.738.8,4.909,4.909,0,0,0,1.149-.091,12.708,12.708,0,0,0,7.775-4.9c.353-.534.886-1.334,1.416-2.316C324.272,132.038,325.865,129.188,327.453,127.671Zm-2.648-36.735c1.412.266,2.738.625,3.974.891,8.218,2.32,13.431,7.58,15.11,15.426a18.716,18.716,0,0,1,.263,6.955l.8.178a20.1,20.1,0,0,0-.267-7.224c-1.675-8.111-7.065-13.641-15.636-16.048-1.326-.356-2.652-.625-4.064-.982-5.743-1.247-11.662-2.5-13.518-7.755l-.8.266C312.7,88.351,319.149,89.689,324.805,90.936ZM226.024,41.007a9.415,9.415,0,0,0-2.3,7.221,15.429,15.429,0,0,0,6.009,10.165,8.537,8.537,0,0,0,5.48,2.051,8.95,8.95,0,0,0,2.562-.356l-.177-.8a7.811,7.811,0,0,1-7.335-1.516,14.85,14.85,0,0,1-5.743-9.54,8.233,8.233,0,0,1,2.122-6.6c3.8-4.636,7.422-4.9,12.1-3.832l.18-.8C234.152,35.833,230.089,36.1,226.024,41.007ZM155.165,315.533c4.417,7.224,8.128,8.471,14.933,9.362l.086-.8c-6.539-.891-10.16-2.051-14.4-9-4.417-7.311-8.218-11.056-16.789-11.056h-.616c-10.426.266-16.965-3.479-19.7-11.234-1.149-3.388-.886-6.868-.62-10.256a27.841,27.841,0,0,0-.353-9.362c-.443-1.334-.973-2.672-1.412-3.923a22.972,22.972,0,0,1-2.032-7.49,19.143,19.143,0,0,1,2.472-8.737l-.706-.356a19.6,19.6,0,0,0-2.562,9.093,22.047,22.047,0,0,0,2.119,7.759c.533,1.247.973,2.585,1.416,3.923a26.278,26.278,0,0,1,.353,9.093c-.266,3.388-.53,6.955.706,10.522,2.915,8.2,9.63,12.038,20.5,11.86C147.037,304.746,150.835,308.4,155.165,315.533Zm18.111,23.45-.616-.625c-3.448,3.567-5.656,5.174-11.662,4.9-6.1-.178-12.635-2.585-12.548-8.737h-.793c-.09,6.686,6.8,9.362,13.341,9.54h.969C167.534,344.153,169.919,342.459,173.276,338.983ZM130.868,164.225c-1.5-2.851-2.208-5.079-1.5-7.133.706-1.96,2.738-3.745,6.449-5.526,4.507-2.141,6.276-7.133,8.041-11.947,1.149-3.3,2.385-6.6,4.417-9.184,2.828-3.657,5.127-4.548,9.1-3.479l.177-.8c-4.327-1.072-6.892-.091-9.893,3.832-2.122,2.585-3.358,6.064-4.507,9.362-1.769,4.9-3.358,9.54-7.6,11.5-3.887,1.872-6.1,3.745-6.892,5.974-.8,2.32.087,4.814,1.589,7.846Zm18.111,164.949a9.242,9.242,0,0,1,7.335,2.676l.53-.625a10.48,10.48,0,0,0-7.951-2.941h-.706c-7.512.447-11.576.713-15.287-6.508-1.942-3.836-1.765-7.311.62-9.9l-.62-.534c-1.5,1.694-3.711,5.257-.8,10.875,3.977,7.668,8.747,7.4,16.083,6.955ZM220.105,27.987a19.535,19.535,0,0,1,15.816,0l.353-.8a20.3,20.3,0,0,0-16.436,0c-5.39,2.5-9.364,7.311-11.572,14.179l.793.265C211.095,35.121,214.982,30.394,220.105,27.987ZM197.4,48.405c4.244-1.872,9.9-1.338,15.816,1.425l.353-.8c-6.182-2.945-12.015-3.479-16.522-1.429a10.731,10.731,0,0,0-6.182,6.955l.793.269A9.851,9.851,0,0,1,197.4,48.405Zm-5.829,313.672c2.562.891,6.539,3.3,7.155,6.417l.8-.178c-.706-3.476-5.037-6.061-7.688-7.042-3.8-1.338-7.685-.713-11.486-.178-3.621.534-7.422,1.069-11.219,0-5.743-1.785-8.3-5.973-6.715-11.234l-.8-.269c-1.765,5.708.973,10.253,7.245,12.307,3.977,1.156,7.775.622,11.576.087C184.322,361.361,187.943,360.827,191.567,362.077ZM166.651,90.489c-.53-6.061,1.769-13.463,5.833-18.724,6.712-8.649,15.283-7.755,21.556-7.221a28.972,28.972,0,0,0,4.6.265l-.09-.8a27.3,27.3,0,0,1-4.417-.269c-6.449-.625-15.373-1.516-22.355,7.49-4.24,5.439-6.626,13.019-6.006,19.349ZM152.6,118.666a28,28,0,0,0,3.091-2.141c2.122-1.694,1.149-4.01.353-5.974a10.006,10.006,0,0,1-.883-3.119h-.8a8.447,8.447,0,0,0,.886,3.476c.793,1.963,1.5,3.745-.09,5a22.725,22.725,0,0,1-3,2.051c-1.5.891-2.385,1.513-2.648,3.029l.793.091C150.482,119.913,151.188,119.466,152.6,118.666Zm13.075,1.425c-3.887-6.508-6.006-15.245-2.032-20.062,2.742-3.476,9.191-5.883,13.255-4.9,3.091.716,5.037,3.032,7.069,5.439a24.223,24.223,0,0,0,4.594,4.461,16.128,16.128,0,0,0,6.273,1.96c.8.178,1.679.269,2.475.447l.176-.8a24.541,24.541,0,0,0-2.475-.447,16.407,16.407,0,0,1-5.919-1.782,22.35,22.35,0,0,1-4.417-4.279c-2.032-2.407-4.154-4.9-7.512-5.708-4.327-1.069-11.133,1.516-14.134,5.174-4.244,5.17-2.122,14.263,1.942,21.04Zm-36.665,164.5a21.624,21.624,0,0,0,6.272,1.16,18.361,18.361,0,0,1,5.919,1.16c2.385.8,3.887,3.032,5.3,5.083,1.679,2.5,3.444,4.992,6.536,4.992a7.34,7.34,0,0,0,2.565-.534c3.268-1.16,2.825-5.617,2.562-9.184l-.8.091c.353,3.476.706,7.311-2.032,8.29-4.154,1.516-6.009-1.156-8.128-4.188-1.5-2.229-3.091-4.457-5.743-5.352a20.628,20.628,0,0,0-6.186-1.156,23.141,23.141,0,0,1-6.006-1.072c-2.918-1.247-4.684-3.21-6.009-6.686l-.8.269C123.536,280.048,125.035,282.9,129.013,284.593Zm253.134,65.268c1.589,5.17-.886,9.362-6.629,11.234-3.8,1.16-7.6.534-11.219,0-3.8-.534-7.6-1.16-11.486.178-2.742.891-7.069,3.567-7.688,7.042l.8.178c.616-3.12,4.594-5.526,7.155-6.417,3.624-1.251,7.245-.716,11.046-.178,3.711.534,7.6,1.156,11.572-.091,6.273-1.963,9.014-6.6,7.245-12.3Zm-36.4,29.867a15.554,15.554,0,0,1-12.635-2.763,14.471,14.471,0,0,1-5.3-9.9,10.852,10.852,0,0,1,2.565-8.559c2.915-3.3,7.332-4.461,11.572-5.53a41.263,41.263,0,0,0,7.512-2.5c1.059-.534,1.942-1.069,2.648-1.425,3.977-2.229,3.977-2.229,9.454-2.138h.533v-.8h-.533c-5.563,0-5.653,0-9.807,2.229-.706.356-1.589.891-2.648,1.425a41.459,41.459,0,0,1-7.335,2.5c-4.327,1.16-8.834,2.32-12.015,5.8a11.717,11.717,0,0,0-2.738,9.184,15.265,15.265,0,0,0,5.566,10.522,16.364,16.364,0,0,0,13.251,2.941,28.2,28.2,0,0,0,17.848-12.66l-.706-.447A27.269,27.269,0,0,1,345.745,379.729Zm37.9-36.375c-6.006.178-8.214-1.338-11.662-4.9l-.616.622c3.358,3.479,5.743,5.174,11.309,5.174h.969c6.539-.178,13.431-2.854,13.344-9.54h-.8C396.281,340.677,389.832,343.084,383.646,343.353Zm44.883-90.678-.706.356a19.151,19.151,0,0,1,2.475,8.737,23.064,23.064,0,0,1-2.032,7.49c-.53,1.251-.973,2.589-1.412,3.923a27.93,27.93,0,0,0-.356,9.362c.267,3.3.533,6.777-.616,10.256-2.738,7.755-9.191,11.5-19.7,11.234-8.924-.178-12.811,3.567-17.318,11.056-4.241,6.864-7.775,8.111-14.4,9l.087.8c6.805-.982,10.516-2.138,15.023-9.362,4.327-7.221,8.128-10.878,16.609-10.609h.883c10.426,0,16.789-3.836,19.614-11.86,1.239-3.567.973-7.133.71-10.522a25.529,25.529,0,0,1,.353-9.006c.44-1.334.883-2.672,1.412-3.923a26.592,26.592,0,0,0,2.122-7.755A22.815,22.815,0,0,0,428.529,252.675Zm-17.491,59.291c2.385,2.585,2.648,6.064.616,9.9-3.711,7.224-7.775,6.955-15.283,6.511h-.706a10.15,10.15,0,0,0-7.951,2.941l.53.625a9.329,9.329,0,0,1,7.332-2.676h.706c7.335.444,12.105.713,16.083-6.955,2.915-5.617.706-9.184-.8-10.878Zm-160.45.447-.353-.091c-3.977-1.425-7.6-4.188-11.133-6.955-5.213-4.1-10.6-8.29-17.055-7.577-3.091.356-5.033,0-6.183-.982-1.679-1.516-1.679-4.636-1.769-9.006v-.622H213.3v.622c0,4.548,0,7.937,2.032,9.631,1.326,1.16,3.534,1.6,6.8,1.247,6.01-.713,11.133,3.21,16.432,7.4,3.534,2.763,7.245,5.617,11.309,7.042l.357.091c11.219,3.832,20.143,6.952,18.817,20.862-.53,5.8-3.534,10.787-7.685,12.75-3.448,1.6-7.245,1.069-11.046-1.694-2.475-1.694-4.154-4.1-5.919-6.686a44.433,44.433,0,0,0-3.977-5.174c-3.268-3.3-7.245-4.367-10.69-4.992l-.177.8c3.268.622,7.069,1.6,10.25,4.814a30.838,30.838,0,0,1,3.887,5.083c1.679,2.5,3.444,5.083,6.1,6.864a12.675,12.675,0,0,0,7.6,2.676,10.37,10.37,0,0,0,4.331-.982c4.417-2.051,7.6-7.311,8.128-13.463C271.437,319.547,262.25,316.424,250.588,312.413Zm16.785,38.43a72.078,72.078,0,0,1,.176,17.564c-.616,9.362-5.39,18.811-11.839,23.538a17.755,17.755,0,0,1-15.286,2.941,42.244,42.244,0,0,1-7.951-3.119c-3.711-1.785-7.245-3.388-11.839-3.657a53.263,53.263,0,0,0-5.476.091c-3.711.269-6.1.356-8.661-2.32l-.616.625c2.825,3.032,5.743,2.854,9.364,2.585a52.136,52.136,0,0,1,5.39-.087c4.417.265,7.865,1.872,11.486,3.567a43.4,43.4,0,0,0,8.041,3.119,19.433,19.433,0,0,0,5.037.625,18.855,18.855,0,0,0,11.043-3.658c6.716-4.9,11.576-14.623,12.192-24.163a69.224,69.224,0,0,0-.177-17.742ZM217.63,367.157a11.718,11.718,0,0,0-2.738-9.184c-3.091-3.476-7.6-4.636-12.015-5.8a35.432,35.432,0,0,1-7.335-2.494c-1.059-.534-1.855-1.072-2.648-1.429-4.154-2.316-4.24-2.316-9.807-2.229h-.533v.8h.533c5.386-.091,5.386,0,9.454,2.141.706.444,1.589.891,2.648,1.425a35.5,35.5,0,0,0,7.512,2.5c4.24,1.156,8.657,2.316,11.572,5.526a11.2,11.2,0,0,1,2.565,8.559,14.153,14.153,0,0,1-5.3,9.9,15.253,15.253,0,0,1-12.635,2.763,27.185,27.185,0,0,1-17.228-12.216l-.706.447a28.2,28.2,0,0,0,17.848,12.66,16.282,16.282,0,0,0,3.534.356,15.275,15.275,0,0,0,9.717-3.3A14.732,14.732,0,0,0,217.63,367.157ZM329.575,388.2a53.844,53.844,0,0,0-5.48-.091c-4.594.269-8.128,1.963-11.839,3.657a49.01,49.01,0,0,1-7.951,3.119,17.361,17.361,0,0,1-15.287-2.941c-6.449-4.726-11.309-14.176-11.839-23.538a68.209,68.209,0,0,1,.177-17.564l-.793-.091a73.552,73.552,0,0,0-.177,17.742c.616,9.54,5.566,19.258,12.192,24.163a18.064,18.064,0,0,0,11.043,3.658,19.9,19.9,0,0,0,5.037-.625,47.7,47.7,0,0,0,8.041-3.119c3.621-1.694,7.069-3.3,11.486-3.567a52.132,52.132,0,0,1,5.39.087c3.621.269,6.539.447,9.364-2.585l-.616-.625C335.671,388.556,333.2,388.378,329.575,388.2Zm-46.739-40.567a10.367,10.367,0,0,0,4.327.978,13.732,13.732,0,0,0,7.6-2.672c2.648-1.785,4.417-4.37,6.1-6.868a34.717,34.717,0,0,1,3.887-5.079c3.091-3.123,6.892-4.192,10.247-4.817l-.177-.8c-3.444.622-7.422,1.694-10.69,4.992a31.106,31.106,0,0,0-3.977,5.17c-1.765,2.585-3.354,5-5.919,6.69-3.8,2.672-7.6,3.3-11.043,1.6-4.154-1.963-7.159-6.955-7.688-12.75-1.322-14,7.512-17.03,18.821-20.862l.353-.091c4.064-1.425,7.775-4.279,11.309-7.042,5.39-4.192,10.426-8.024,16.432-7.4,3.358.356,5.48,0,6.806-1.247,1.942-1.785,1.942-5.083,2.032-9.631v-.622h-.8v.622c0,4.37,0,7.49-1.765,9.006-1.149,1.069-3.095,1.338-6.186.982-6.362-.713-11.839,3.476-17.052,7.577-3.534,2.767-7.159,5.53-11.132,6.955l-.353.091c-11.576,4.01-20.763,7.133-19.35,21.756C275.238,340.321,278.42,345.582,282.837,347.633Zm-55.223-283.8-.53-.716c-3.358,2.5-4.77,4.461-4.5,6.155.44,2.494,4.417,3.654,9.454,5.17,4.327,1.247,9.277,2.763,12.635,5.348l.53-.713c-3.534-2.676-8.484-4.1-12.9-5.439-4.594-1.338-8.571-2.585-8.924-4.457Q223.243,67.173,227.613,63.832Zm-18.551,44.221.53.716c2.562-1.963,11.572-8.115,18.2-7.4,6.712.713,13.694,6.152,18.994,10.791l.53-.625c-5.39-4.726-12.458-10.253-19.437-11.056C220.9,99.764,211.711,106.093,209.063,108.053Zm6.536-17.03c-8.571,2.41-13.957,7.937-15.636,16.052a20.135,20.135,0,0,0-.267,7.221l.8-.178a18.719,18.719,0,0,1,.263-6.955c1.592-7.755,6.806-13.107,15.11-15.423,1.236-.36,2.562-.625,3.974-.894,5.656-1.247,12.105-2.585,14.137-8.29l-.8-.269c-1.855,5.261-7.775,6.508-13.518,7.759C218.25,90.4,216.924,90.667,215.6,91.023ZM213.126,74.8l.263-.8c-4.86-1.425-9.717-.087-11.839,3.21-1.766,2.854-1.059,6.33,1.945,9.54l.616-.534c-2.652-2.941-3.358-6.064-1.765-8.559C204.112,74.71,208.619,73.459,213.126,74.8ZM191.744,273.271c-2.208.713-4.33.356-6.8,0-4.244-.625-9.457-1.425-17.495,2.5l.353.8a25.567,25.567,0,0,1,16.962-2.407c2.565.356,4.86.713,7.159-.087,4.33-1.251,7.422-5,10.16-8.293a31.024,31.024,0,0,1,6.186-5.53l-.443-.713a35.984,35.984,0,0,0-6.362,5.708C198.813,268.457,195.808,272.024,191.744,273.271Zm-4.24,68.566a16.5,16.5,0,0,0,2.032.087,19.413,19.413,0,0,0,13.871-5.7l-.62-.625a19.128,19.128,0,0,1-15.283,5.348c-4.6-.444-6.716-2.407-7.688-4.01a7.587,7.587,0,0,1-.53-6.508l-.8-.269a8.235,8.235,0,0,0,.62,7.221C180.258,339.161,182.643,341.3,187.5,341.837Zm59.46-271.676a27,27,0,0,0-8.481-2.141l-.09.8a25.331,25.331,0,0,1,8.218,2.051ZM139.879,256.685a15.345,15.345,0,0,0,.62,11.056,27.265,27.265,0,0,0,5.123,6.777,28.274,28.274,0,0,1,4.6,5.8l.706-.356a27.8,27.8,0,0,0-4.77-5.974,26.78,26.78,0,0,1-5.037-6.508,14.134,14.134,0,0,1-.53-10.431Zm24.387-121.971v-.8c-5.39.178-15.287,1.963-18.2,7.49-2.915,5.8.443,12.572,4.507,18.993a14.909,14.909,0,0,0,9.187,5.974l.177-.8a14.214,14.214,0,0,1-8.658-5.617c-3.887-6.152-7.155-12.66-4.417-18.1C149.156,137.212,157.464,134.983,164.266,134.714Zm81.549-86.13c2.388.447,4.6.891,6.452,2.585a12.45,12.45,0,0,1,3,13.2,31.319,31.319,0,0,1-1.146,3.032c-1.5,3.745-2.828,7.311-1.326,11.769a9.075,9.075,0,0,0,.44,1.069c.62,1.425,1.326,3.21.71,4.457-.71,1.251-2.652,1.429-4.244,1.516-.353,0-.706.091-1.059.091-5.653.978-9.1,4.457-9.9,10.075l.8.087c.706-5.261,3.8-8.38,9.191-9.362.263,0,.616-.087.969-.087,1.769-.178,3.887-.356,4.86-1.963.883-1.6,0-3.567-.616-5.17a7,7,0,0,1-.357-.982c-1.412-4.1-.177-7.4,1.326-11.144.353-.982.8-1.963,1.149-3.032A13.257,13.257,0,0,0,252.8,50.634c-1.945-1.872-4.331-2.316-6.806-2.763-.44-.091-.793-.178-1.236-.269a11.2,11.2,0,0,1-4.594-2.051l-.53.713a12.294,12.294,0,0,0,4.947,2.141A7,7,0,0,1,245.815,48.584ZM195.718,73.1a44.281,44.281,0,0,0,6.539-2.676c2.738-1.516,3.534-3.832,4.331-5.974a11.9,11.9,0,0,1,2.828-4.992c2.915-3.21,6.273-2.941,10.246-2.763h.267l.087-.8h-.263c-3.977-.269-7.775-.447-10.869,3.032a14.252,14.252,0,0,0-3,5.348c-.8,2.141-1.5,4.1-3.977,5.53a44.106,44.106,0,0,1-6.449,2.585c-7.951,2.854-17.935,6.421-16.612,14.532a8.143,8.143,0,0,0,3.095,5.261,9.672,9.672,0,0,0,5.476,1.516,11.917,11.917,0,0,0,3-.356l-.177-.8c-3.181.625-6.009.269-7.865-1.069a7.169,7.169,0,0,1-2.825-4.726C178.49,79.255,188.033,75.866,195.718,73.1Zm-14.667,59.113.8.356c.353-.713.706-1.425.973-2.051,1.589-3.207,3.091-6.239,2.738-10.34-.263-4.279-2.738-8.293-7.332-11.86l-.53.713c4.417,3.479,6.8,7.224,7.065,11.325.357,3.832-1.146,6.773-2.648,9.9A20.19,20.19,0,0,0,181.051,132.216Zm-10.07,9.718a12.414,12.414,0,0,1,10.427,2.232,13.864,13.864,0,0,1,4.857,10.609c.09,4.9,4.154,6.242,7.422,7.4,1.945.716,3.624,1.251,3.977,2.407.267.8-.177,1.872-1.149,3.3l.706.534c1.239-1.694,1.592-2.941,1.326-4.014-.44-1.513-2.385-2.138-4.507-2.941-3.178-1.069-6.8-2.316-6.889-6.6a14.731,14.731,0,0,0-5.127-11.322,13.04,13.04,0,0,0-11.133-2.407,19.341,19.341,0,0,0-9.1,5.083l.53.622A18.836,18.836,0,0,1,170.981,141.934Zm22.795,176.987-.53-.625c-3.448,2.854-4.773,9.453-4.064,13.91l.793-.178C189.269,327.749,190.595,321.506,193.776,318.921Zm73.951-51.8a18.094,18.094,0,0,0-1.149-11.056l-.793.356a18.5,18.5,0,0,1,1.059,10.522Zm-3-199.812a16.118,16.118,0,0,0-3.354,5.617l.793.178a16.418,16.418,0,0,1,3.181-5.261c2.385-3.032,4.947-6.239,2.738-10.344l-.706.36C269.319,61.512,267.021,64.366,264.722,67.308Zm.886,29.333c-2.209.716-6.186-2.229-7.865-3.567l-.53.716c2.562,1.96,5.39,3.832,7.6,3.832a3.118,3.118,0,0,0,.973-.178,3.578,3.578,0,0,0,2.032-2.32,10.124,10.124,0,0,0,.177-5.348,13.592,13.592,0,0,1-.267-3.3,28.607,28.607,0,0,0-.44-5.261l-.8.087a38.569,38.569,0,0,1,.443,5.083,14.23,14.23,0,0,0,.263,3.479,9.586,9.586,0,0,1-.176,4.992A2.29,2.29,0,0,1,265.608,96.641ZM252.177,39.847l-.087-.8a6.155,6.155,0,0,1-6.362-3.923,3.145,3.145,0,0,1,.62-3.745c1.5-1.338,3.711-1.872,6.359-1.6,3.534.444,7.159,2.229,8.747,4.545,3.448,4.639,2.828,11.325,1.679,16.139l.8.178c1.149-4.9,1.766-11.86-1.769-16.761-1.679-2.407-5.566-4.461-9.277-4.9-2.915-.356-5.39.266-6.979,1.782-1.236.982-1.592,2.767-.8,4.726A6.819,6.819,0,0,0,252.177,39.847Zm13.341,62.5-.8.356c5.746,11.682,6.1,27.373.973,42.974l.8.269C271.7,130.166,271.261,114.208,265.518,102.349Zm.443,64.73.8-.178c-3.358-12.929-12.019-17.742-27.215-15.336l.177.8C254.386,149.962,262.69,154.685,265.961,167.079Zm-43.118-30.671a12.363,12.363,0,0,0,7.775,4.9,5.511,5.511,0,0,0,1.149.087,4.536,4.536,0,0,0,2.738-.8,17.4,17.4,0,0,0,2.475-2.676c1.326-1.694,2.475-3.12,4.684-3.21,1.589-.091,2.385,1.069,3.268,2.407.8,1.247,1.592,2.5,3.181,2.854,3,.713,6.009-.269,8.571-3.032l-.62-.625c-2.385,2.589-5.037,3.479-7.775,2.854a5.184,5.184,0,0,1-2.652-2.494c-.883-1.338-1.855-2.767-3.8-2.767h-.177c-2.652.091-3.977,1.872-5.39,3.567a16.211,16.211,0,0,1-2.385,2.585,4.155,4.155,0,0,1-3.181.538,11.864,11.864,0,0,1-7.159-4.548c-.353-.534-.793-1.338-1.322-2.229a29.858,29.858,0,0,0-4.507-6.6l-.62.625c1.592,1.516,3.181,4.367,4.331,6.417C222.047,135.07,222.49,135.874,222.843,136.408ZM241.4,323.913c2.738,1.963,5.833,4.1,9.014,4.1a4.343,4.343,0,0,0,1.059-.087l-.09-.8c-3.268.534-6.535-1.872-9.454-3.923a20.752,20.752,0,0,0-3.091-2.051c-5.656-3.21-11.4-4.457-17.052-5.617A83.244,83.244,0,0,1,211,312.77c-6.625-2.32-8.571-7.58-10.689-13.107-.71-1.872-1.416-3.836-2.3-5.708l-.8.36c.886,1.782,1.592,3.745,2.3,5.617,2.122,5.8,4.154,11.234,11.133,13.641a84.443,84.443,0,0,0,10.866,2.763c5.833,1.247,11.309,2.407,16.789,5.526C239.366,322.488,240.338,323.2,241.4,323.913Zm-6.449-38.161c2.122,1.872,4.33,3.836,7.069,3.836a6.307,6.307,0,0,0,2.652-.625l-.357-.8c-3.531,1.516-6.1-.713-8.744-3.029-3.534-3.032-7.069-6.242-12.725-.36l.62.625C228.41,280.048,231.5,282.721,234.949,285.753Z" transform="translate(-113.463 -25.447)" fill="#fff"/>
    </g>
  </g>
  <g id="Group_5" data-name="Group 5" transform="translate(202.633 45.74)">
    <circle id="Ellipse_1" data-name="Ellipse 1" cx="3.21" cy="3.21" r="3.21" fill="#fff"/>
  </g>
  <g id="Group_6" data-name="Group 6" transform="translate(207.942 30.047)">
    <path id="Path_15" data-name="Path 15" d="M161.566,33.6l-4.636,3.121,3.121,4.636,4.636-3.121Z" transform="translate(-156.93 -33.602)" fill="#fff"/>
  </g>
  <g id="Group_7" data-name="Group 7" transform="translate(204.227 23.271)">
    <circle id="Ellipse_2" data-name="Ellipse 2" cx="3.21" cy="3.21" r="3.21" fill="#fff"/>
  </g>
  <g id="Group_8" data-name="Group 8" transform="translate(192.624 12.126)">
    <path id="Path_16" data-name="Path 16" d="M159.291,33.91l-1.338-5.439-5.439,1.337,1.337,5.439Z" transform="translate(-152.514 -28.471)" fill="#fff"/>
  </g>
  <g id="Group_9" data-name="Group 9" transform="translate(179.518 10.254)">
    <circle id="Ellipse_3" data-name="Ellipse 3" cx="3.21" cy="3.21" r="3.21" fill="#fff"/>
  </g>
  <g id="Group_10" data-name="Group 10" transform="translate(178.01 32.276)">
    <path id="Path_17" data-name="Path 17" d="M155.436,39.5l-1.783-5.26-5.35,1.783,1.872,5.261Z" transform="translate(-148.303 -34.24)" fill="#fff"/>
  </g>
  <g id="Group_11" data-name="Group 11" transform="translate(168.004 36.556)">
    <circle id="Ellipse_4" data-name="Ellipse 4" cx="3.21" cy="3.21" r="3.21" fill="#fff"/>
  </g>
  <g id="Group_12" data-name="Group 12" transform="translate(184.916 51.535)">
    <path id="Path_18" data-name="Path 18" d="M154.484,47.6l3.745-4.1-4.191-3.745-3.745,4.191Z" transform="translate(-150.294 -39.753)" fill="#fff"/>
  </g>
  <g id="Group_13" data-name="Group 13" transform="translate(174.292 55.548)">
    <circle id="Ellipse_5" data-name="Ellipse 5" cx="3.21" cy="3.21" r="3.21" fill="#fff"/>
  </g>
  <g id="Group_14" data-name="Group 14" transform="translate(140.638 86.932)">
    <path id="Path_19" data-name="Path 19" d="M138.78,56.573l5.439-1.248-1.248-5.439-5.439,1.159Z" transform="translate(-137.532 -49.886)" fill="#fff"/>
  </g>
  <g id="Group_15" data-name="Group 15" transform="translate(187.665 84.703)">
    <circle id="Ellipse_6" data-name="Ellipse 6" cx="3.21" cy="3.21" r="3.21" fill="#fff"/>
  </g>
  <g id="Group_16" data-name="Group 16" transform="translate(149.403 80.602)">
    <path id="Path_20" data-name="Path 20" d="M140.059,51.372l3.388,4.458,4.458-3.3-3.388-4.458Z" transform="translate(-140.059 -48.073)" fill="#fff"/>
  </g>
  <g id="Group_17" data-name="Group 17" transform="translate(180.758 18.813)">
    <circle id="Ellipse_7" data-name="Ellipse 7" cx="3.21" cy="3.21" r="3.21" fill="#fff"/>
  </g>
  <g id="Group_18" data-name="Group 18" transform="translate(180.139 69.368)">
    <path id="Path_21" data-name="Path 21" d="M148.915,50.385l5.617.446.446-5.528-5.617-.446Z" transform="translate(-148.915 -44.857)" fill="#fff"/>
  </g>
  <g id="Group_19" data-name="Group 19" transform="translate(187.4 43.422)">
    <circle id="Ellipse_8" data-name="Ellipse 8" cx="3.21" cy="3.21" r="3.21" fill="#fff"/>
  </g>
  <g id="Group_20" data-name="Group 20" transform="translate(179.518 41.549)">
    <path id="Path_22" data-name="Path 22" d="M148.737,37.518l.535,5.528,5.617-.624-.624-5.528Z" transform="translate(-148.737 -36.894)" fill="#fff"/>
  </g>
  <g id="Group_21" data-name="Group 21" transform="translate(198.47 66.425)">
    <circle id="Ellipse_9" data-name="Ellipse 9" cx="3.21" cy="3.21" r="3.21" fill="#fff"/>
  </g>
  <g id="Group_22" data-name="Group 22" transform="translate(207.858 54.21)">
    <path id="Path_23" data-name="Path 23" d="M162.521,40.518l-5.617.8.8,5.528,5.528-.8Z" transform="translate(-156.904 -40.518)" fill="#fff"/>
  </g>
  <g id="Group_23" data-name="Group 23" transform="translate(137.626 79.532)">
    <path id="Path_24" data-name="Path 24" d="M142.014,54.722l1.694-5.261-5.35-1.694-1.694,5.35Z" transform="translate(-136.664 -47.767)" fill="#fff"/>
  </g>
  <g id="Group_24" data-name="Group 24" transform="translate(138.955 36.913)">
    <path id="Path_25" data-name="Path 25" d="M144,40.917l-1.6-5.35-5.35,1.6,1.6,5.35Z" transform="translate(-137.047 -35.567)" fill="#fff"/>
  </g>
  <g id="Group_25" data-name="Group 25" transform="translate(160.565 29.156)">
    <circle id="Ellipse_10" data-name="Ellipse 10" cx="3.21" cy="3.21" r="3.21" fill="#fff"/>
  </g>
  <g id="Group_26" data-name="Group 26" transform="translate(130.807 65.623)">
    <path id="Path_26" data-name="Path 26" d="M141.475,49.135l-1.427-5.35-5.35,1.337,1.337,5.439Z" transform="translate(-134.699 -43.785)" fill="#fff"/>
  </g>
  <g id="Group_27" data-name="Group 27" transform="translate(144.358 59.292)">
    <circle id="Ellipse_11" data-name="Ellipse 11" cx="3.21" cy="3.21" r="3.21" fill="#fff"/>
  </g>
  <g id="Group_28" data-name="Group 28" transform="translate(153.39 46.899)">
    <path id="Path_27" data-name="Path 27" d="M146.468,45.648l1.962-5.261-5.261-1.962-1.962,5.261Z" transform="translate(-141.207 -38.425)" fill="#fff"/>
  </g>
  <g id="Group_29" data-name="Group 29" transform="translate(131.959 27.462)">
    <circle id="Ellipse_12" data-name="Ellipse 12" cx="3.21" cy="3.21" r="3.21" fill="#fff"/>
  </g>
  <g id="Group_30" data-name="Group 30" transform="translate(153.389 21.755)">
    <path id="Path_28" data-name="Path 28" d="M146.2,38.807l2.5-4.993-4.9-2.586-2.586,4.993Z" transform="translate(-141.207 -31.228)" fill="#fff"/>
  </g>
  <g id="Group_31" data-name="Group 31" transform="translate(149.318 14.266)">
    <circle id="Ellipse_13" data-name="Ellipse 13" cx="3.21" cy="3.21" r="3.21" fill="#fff"/>
  </g>
  <g id="Group_32" data-name="Group 32" transform="translate(176.15)">
    <path id="Path_29" data-name="Path 29" d="M152.76,32.49l2.407-5.082L150.174,25l-2.407,4.993Z" transform="translate(-147.767 -25)" fill="#fff"/>
  </g>
  <g id="Group_33" data-name="Group 33" transform="translate(205.998 75.609)">
    <circle id="Ellipse_14" data-name="Ellipse 14" cx="3.21" cy="3.21" r="3.21" fill="#fff"/>
  </g>
  <g id="Group_34" data-name="Group 34" transform="translate(223.711 45.74)">
    <circle id="Ellipse_15" data-name="Ellipse 15" cx="3.21" cy="3.21" r="3.21" fill="#fff"/>
  </g>
  <g id="Group_35" data-name="Group 35" transform="translate(217.064 30.047)">
    <path id="Path_30" data-name="Path 30" d="M167.316,36.722,162.679,33.6l-3.121,4.636,4.636,3.121Z" transform="translate(-159.559 -33.602)" fill="#fff"/>
  </g>
  <g id="Group_36" data-name="Group 36" transform="translate(222.117 23.271)">
    <circle id="Ellipse_16" data-name="Ellipse 16" cx="3.21" cy="3.21" r="3.21" fill="#fff"/>
  </g>
  <g id="Group_37" data-name="Group 37" transform="translate(233.363 12.126)">
    <path id="Path_31" data-name="Path 31" d="M165.593,28.471l-1.337,5.439,5.439,1.337,1.337-5.439Z" transform="translate(-164.255 -28.471)" fill="#fff"/>
  </g>
  <g id="Group_38" data-name="Group 38" transform="translate(246.826 10.254)">
    <circle id="Ellipse_17" data-name="Ellipse 17" cx="3.21" cy="3.21" r="3.21" fill="#fff"/>
  </g>
  <g id="Group_39" data-name="Group 39" transform="translate(247.62 32.276)">
    <path id="Path_32" data-name="Path 32" d="M170.237,34.24l-1.872,5.26,5.26,1.783,1.872-5.261Z" transform="translate(-168.364 -34.24)" fill="#fff"/>
  </g>
  <g id="Group_40" data-name="Group 40" transform="translate(258.339 36.556)">
    <circle id="Ellipse_18" data-name="Ellipse 18" cx="3.21" cy="3.21" r="3.21" fill="#fff"/>
  </g>
  <g id="Group_41" data-name="Group 41" transform="translate(245.586 18.813)">
    <circle id="Ellipse_19" data-name="Ellipse 19" cx="3.21" cy="3.21" r="3.21" fill="#fff"/>
  </g>
  <g id="Group_42" data-name="Group 42" transform="translate(238.944 43.422)">
    <circle id="Ellipse_20" data-name="Ellipse 20" cx="3.21" cy="3.21" r="3.21" fill="#fff"/>
  </g>
  <g id="Group_43" data-name="Group 43" transform="translate(247.181 41.549)">
    <path id="Path_33" data-name="Path 33" d="M173.765,43.046l.535-5.528-5.528-.624-.535,5.528Z" transform="translate(-168.237 -36.894)" fill="#fff"/>
  </g>
  <g id="Group_44" data-name="Group 44" transform="translate(227.873 66.425)">
    <circle id="Ellipse_21" data-name="Ellipse 21" cx="3.21" cy="3.21" r="3.21" fill="#fff"/>
  </g>
  <g id="Group_45" data-name="Group 45" transform="translate(218.574 54.21)">
    <path id="Path_34" data-name="Path 34" d="M166.323,41.321l-5.528-.8-.8,5.528,5.528.8Z" transform="translate(-159.993 -40.518)" fill="#fff"/>
  </g>
  <g id="Group_46" data-name="Group 46" transform="translate(319.448 63.216)">
    <circle id="Ellipse_22" data-name="Ellipse 22" cx="3.21" cy="3.21" r="3.21" fill="#fff"/>
  </g>
  <g id="Group_47" data-name="Group 47" transform="translate(286.854 36.913)">
    <path id="Path_35" data-name="Path 35" d="M181.276,35.567l-1.6,5.35,5.35,1.6,1.6-5.35Z" transform="translate(-179.671 -35.567)" fill="#fff"/>
  </g>
  <g id="Group_48" data-name="Group 48" transform="translate(265.778 29.156)">
    <circle id="Ellipse_23" data-name="Ellipse 23" cx="3.21" cy="3.21" r="3.21" fill="#fff"/>
  </g>
  <g id="Group_49" data-name="Group 49" transform="translate(295.179 65.623)">
    <path id="Path_36" data-name="Path 36" d="M183.5,43.785l-1.427,5.35,5.439,1.427,1.427-5.439Z" transform="translate(-182.071 -43.785)" fill="#fff"/>
  </g>
  <g id="Group_50" data-name="Group 50" transform="translate(281.985 59.292)">
    <circle id="Ellipse_24" data-name="Ellipse 24" cx="3.21" cy="3.21" r="3.21" fill="#fff"/>
  </g>
  <g id="Group_51" data-name="Group 51" transform="translate(272.151 46.899)">
    <path id="Path_37" data-name="Path 37" d="M175.434,40.387l1.962,5.261,5.26-1.962L180.7,38.425Z" transform="translate(-175.434 -38.425)" fill="#fff"/>
  </g>
  <g id="Group_52" data-name="Group 52" transform="translate(294.384 27.462)">
    <circle id="Ellipse_25" data-name="Ellipse 25" cx="3.21" cy="3.21" r="3.21" fill="#fff"/>
  </g>
  <g id="Group_53" data-name="Group 53" transform="translate(271.885 21.755)">
    <path id="Path_38" data-name="Path 38" d="M175.358,33.813l2.5,4.993,4.993-2.586-2.5-4.993Z" transform="translate(-175.358 -31.228)" fill="#fff"/>
  </g>
  <g id="Group_54" data-name="Group 54" transform="translate(277.026 14.266)">
    <circle id="Ellipse_26" data-name="Ellipse 26" cx="3.21" cy="3.21" r="3.21" fill="#fff"/>
  </g>
  <g id="Group_55" data-name="Group 55" transform="translate(249.213)">
    <path id="Path_39" data-name="Path 39" d="M168.824,27.407l2.407,5.082,4.993-2.5L173.817,25Z" transform="translate(-168.824 -25)" fill="#fff"/>
  </g>
  <g id="Group_56" data-name="Group 56" transform="translate(220.345 75.609)">
    <circle id="Ellipse_27" data-name="Ellipse 27" cx="3.21" cy="3.21" r="3.21" fill="#fff"/>
  </g>
  <g id="Group_57" data-name="Group 57" transform="translate(277.734 232.89)">
    <circle id="Ellipse_28" data-name="Ellipse 28" cx="3.21" cy="3.21" r="3.21" fill="#fff"/>
  </g>
  <g id="Group_58" data-name="Group 58" transform="translate(317.405 248.404)">
    <path id="Path_40" data-name="Path 40" d="M193.47,103.688l2.586-4.993-4.993-2.586-2.586,4.993Z" transform="translate(-188.477 -96.109)" fill="#fff"/>
  </g>
  <g id="Group_59" data-name="Group 59" transform="translate(345.574 229.948)">
    <circle id="Ellipse_29" data-name="Ellipse 29" cx="3.21" cy="3.21" r="3.21" fill="#fff"/>
  </g>
  <g id="Group_60" data-name="Group 60" transform="translate(334.853 252.505)">
    <path id="Path_41" data-name="Path 41" d="M193.505,102.455l5.171,2.14,2.14-5.171-5.171-2.14Z" transform="translate(-193.505 -97.283)" fill="#fff"/>
  </g>
  <g id="Group_61" data-name="Group 61" transform="translate(369.075 225.935)">
    <circle id="Ellipse_30" data-name="Ellipse 30" cx="3.21" cy="3.21" r="3.21" fill="#fff"/>
  </g>
  <g id="Group_62" data-name="Group 62" transform="translate(315.728 297.443)">
    <path id="Path_42" data-name="Path 42" d="M187.992,110.95l.8,5.528,5.528-.8-.8-5.528Z" transform="translate(-187.992 -110.147)" fill="#fff"/>
  </g>
  <g id="Group_63" data-name="Group 63" transform="translate(362.299 250.366)">
    <circle id="Ellipse_31" data-name="Ellipse 31" cx="3.21" cy="3.21" r="3.21" fill="#fff"/>
  </g>
  <g id="Group_64" data-name="Group 64" transform="translate(328.307 260.53)">
    <path id="Path_43" data-name="Path 43" d="M197.5,100.026l-5.528-.446-.357,5.617,5.528.357Z" transform="translate(-191.617 -99.58)" fill="#fff"/>
  </g>
  <g id="Group_65" data-name="Group 65" transform="translate(304.923 289.953)">
    <circle id="Ellipse_32" data-name="Ellipse 32" cx="3.21" cy="3.21" r="3.21" fill="#fff"/>
  </g>
  <g id="Group_66" data-name="Group 66" transform="translate(321.125 267.663)">
    <path id="Path_44" data-name="Path 44" d="M194.453,109.112l2.675-4.9-4.993-2.586-2.586,4.9Z" transform="translate(-189.549 -101.622)" fill="#fff"/>
  </g>
  <g id="Group_67" data-name="Group 67" transform="translate(306.163 269.268)">
    <circle id="Ellipse_33" data-name="Ellipse 33" cx="3.21" cy="3.21" r="3.21" fill="#fff"/>
  </g>
  <g id="Group_68" data-name="Group 68" transform="translate(292.347 291.558)">
    <circle id="Ellipse_34" data-name="Ellipse 34" cx="3.21" cy="3.21" r="3.21" fill="#fff"/>
  </g>
  <g id="Group_69" data-name="Group 69" transform="translate(295.976 304.576)">
    <path id="Path_45" data-name="Path 45" d="M182.3,117.539l5.35,1.516,1.516-5.35-5.439-1.516Z" transform="translate(-182.3 -112.189)" fill="#fff"/>
  </g>
  <g id="Group_70" data-name="Group 70" transform="translate(306.783 303.327)">
    <circle id="Ellipse_35" data-name="Ellipse 35" cx="3.21" cy="3.21" r="3.21" fill="#fff"/>
  </g>
  <g id="Group_71" data-name="Group 71" transform="translate(281.891 308.231)">
    <path id="Path_46" data-name="Path 46" d="M182.433,113.236l-4.19,3.656,3.656,4.191,4.191-3.656Z" transform="translate(-178.242 -113.236)" fill="#fff"/>
  </g>
  <g id="Group_72" data-name="Group 72" transform="translate(352.135 284.693)">
    <circle id="Ellipse_36" data-name="Ellipse 36" cx="3.21" cy="3.21" r="3.21" fill="#fff"/>
  </g>
  <g id="Group_73" data-name="Group 73" transform="translate(328.562 303.684)">
    <path id="Path_47" data-name="Path 47" d="M191.693,115.857l3.923,3.923,3.923-3.923-3.923-3.923Z" transform="translate(-191.693 -111.934)" fill="#fff"/>
  </g>
  <g id="Group_74" data-name="Group 74" transform="translate(337.78 307.696)">
    <circle id="Ellipse_37" data-name="Ellipse 37" cx="3.21" cy="3.21" r="3.21" fill="#fff"/>
  </g>
  <g id="Group_75" data-name="Group 75" transform="translate(312.178 310.906)">
    <path id="Path_48" data-name="Path 48" d="M190.894,114l-3.923,3.923,3.923,4.012,3.923-3.923Z" transform="translate(-186.971 -114.001)" fill="#fff"/>
  </g>
  <g id="Group_76" data-name="Group 76" transform="translate(255.682 301.723)">
    <circle id="Ellipse_38" data-name="Ellipse 38" cx="3.21" cy="3.21" r="3.21" fill="#fff"/>
  </g>
  <g id="Group_77" data-name="Group 77" transform="translate(272.247 260.619)">
    <path id="Path_49" data-name="Path 49" d="M181.077,99.7l-5.617-.089v5.617h5.528Z" transform="translate(-175.46 -99.606)" fill="#fff"/>
  </g>
  <g id="Group_78" data-name="Group 78" transform="translate(287.919 267.217)">
    <circle id="Ellipse_39" data-name="Ellipse 39" cx="3.21" cy="3.21" r="3.21" fill="#fff"/>
  </g>
  <g id="Group_79" data-name="Group 79" transform="translate(233.982 300.207)">
    <path id="Path_50" data-name="Path 50" d="M166.217,110.938l-1.783,5.26,5.26,1.783,1.783-5.261Z" transform="translate(-164.434 -110.938)" fill="#fff"/>
  </g>
  <g id="Group_80" data-name="Group 80" transform="translate(262.413 257.855)">
    <circle id="Ellipse_40" data-name="Ellipse 40" cx="3.21" cy="3.21" r="3.21" fill="#fff"/>
  </g>
  <g id="Group_81" data-name="Group 81" transform="translate(240.622 260.887)">
    <path id="Path_51" data-name="Path 51" d="M169.2,99.682l-2.853,4.815,4.815,2.853,2.853-4.815Z" transform="translate(-166.348 -99.682)" fill="#fff"/>
  </g>
  <g id="Group_82" data-name="Group 82" transform="translate(148.698 232.89)">
    <circle id="Ellipse_41" data-name="Ellipse 41" cx="3.21" cy="3.21" r="3.21" fill="#fff"/>
  </g>
  <g id="Group_83" data-name="Group 83" transform="translate(107.779 248.404)">
    <path id="Path_52" data-name="Path 52" d="M128.062,98.695l2.586,4.993,4.993-2.586-2.586-4.993Z" transform="translate(-128.062 -96.109)" fill="#fff"/>
  </g>
  <g id="Group_84" data-name="Group 84" transform="translate(81.428 229.948)">
    <circle id="Ellipse_42" data-name="Ellipse 42" cx="3.21" cy="3.21" r="3.21" fill="#fff"/>
  </g>
  <g id="Group_85" data-name="Group 85" transform="translate(90.599 252.505)">
    <path id="Path_53" data-name="Path 53" d="M125.251,104.594l5.171-2.14-2.14-5.171-5.171,2.14Z" transform="translate(-123.111 -97.283)" fill="#fff"/>
  </g>
  <g id="Group_86" data-name="Group 86" transform="translate(57.242 225.935)">
    <circle id="Ellipse_43" data-name="Ellipse 43" cx="3.21" cy="3.21" r="3.21" fill="#fff"/>
  </g>
  <g id="Group_87" data-name="Group 87" transform="translate(110.793 297.443)">
    <path id="Path_54" data-name="Path 54" d="M134.458,116.478l.8-5.528-5.528-.8-.8,5.528Z" transform="translate(-128.93 -110.147)" fill="#fff"/>
  </g>
  <g id="Group_88" data-name="Group 88" transform="translate(64.018 250.366)">
    <circle id="Ellipse_44" data-name="Ellipse 44" cx="3.21" cy="3.21" r="3.21" fill="#fff"/>
  </g>
  <g id="Group_89" data-name="Group 89" transform="translate(98.572 260.53)">
    <path id="Path_55" data-name="Path 55" d="M130.936,99.58l-5.528.446.357,5.528,5.617-.357Z" transform="translate(-125.408 -99.58)" fill="#fff"/>
  </g>
  <g id="Group_90" data-name="Group 90" transform="translate(121.42 289.953)">
    <circle id="Ellipse_45" data-name="Ellipse 45" cx="3.21" cy="3.21" r="3.21" fill="#fff"/>
  </g>
  <g id="Group_91" data-name="Group 91" transform="translate(104.06 267.663)">
    <path id="Path_56" data-name="Path 56" d="M126.99,104.208l2.675,4.9,4.9-2.586-2.586-4.9Z" transform="translate(-126.99 -101.622)" fill="#fff"/>
  </g>
  <g id="Group_92" data-name="Group 92" transform="translate(120.18 269.268)">
    <circle id="Ellipse_46" data-name="Ellipse 46" cx="3.21" cy="3.21" r="3.21" fill="#fff"/>
  </g>
  <g id="Group_93" data-name="Group 93" transform="translate(187.402 324.994)">
    <path id="Path_57" data-name="Path 57" d="M156.536,123.651l.089-5.528-5.617-.089v5.617Z" transform="translate(-151.008 -118.034)" fill="#fff"/>
  </g>
  <g id="Group_94" data-name="Group 94" transform="translate(133.996 291.558)">
    <circle id="Ellipse_47" data-name="Ellipse 47" cx="3.21" cy="3.21" r="3.21" fill="#fff"/>
  </g>
  <g id="Group_95" data-name="Group 95" transform="translate(130.01 304.576)">
    <path id="Path_58" data-name="Path 58" d="M135.9,119.055l5.439-1.516-1.516-5.35-5.35,1.516Z" transform="translate(-134.469 -112.189)" fill="#fff"/>
  </g>
  <g id="Group_96" data-name="Group 96" transform="translate(119.56 303.327)">
    <circle id="Ellipse_48" data-name="Ellipse 48" cx="3.21" cy="3.21" r="3.21" fill="#fff"/>
  </g>
  <g id="Group_97" data-name="Group 97" transform="translate(143.026 308.231)">
    <path id="Path_59" data-name="Path 59" d="M146.067,116.891l-4.191-3.656-3.656,4.191,4.19,3.656Z" transform="translate(-138.221 -113.236)" fill="#fff"/>
  </g>
  <g id="Group_98" data-name="Group 98" transform="translate(74.182 284.693)">
    <circle id="Ellipse_49" data-name="Ellipse 49" cx="3.21" cy="3.21" r="3.21" fill="#fff"/>
  </g>
  <g id="Group_99" data-name="Group 99" transform="translate(96.355 303.684)">
    <path id="Path_60" data-name="Path 60" d="M128.693,119.78l3.923-3.923-3.923-3.923-3.923,3.923Z" transform="translate(-124.77 -111.934)" fill="#fff"/>
  </g>
  <g id="Group_100" data-name="Group 100" transform="translate(88.563 307.696)">
    <circle id="Ellipse_50" data-name="Ellipse 50" cx="3.21" cy="3.21" r="3.21" fill="#fff"/>
  </g>
  <g id="Group_101" data-name="Group 101" transform="translate(112.738 310.906)">
    <path id="Path_61" data-name="Path 61" d="M137.427,117.924,133.415,114l-3.923,4.012,3.923,3.923Z" transform="translate(-129.492 -114.001)" fill="#fff"/>
  </g>
  <g id="Group_102" data-name="Group 102" transform="translate(102.733 322.765)">
    <circle id="Ellipse_51" data-name="Ellipse 51" cx="3.21" cy="3.21" r="3.21" fill="#fff"/>
  </g>
  <g id="Group_103" data-name="Group 103" transform="translate(140.019 341.31)">
    <path id="Path_62" data-name="Path 62" d="M137.353,128.322l5.528.446.446-5.617L137.8,122.7Z" transform="translate(-137.353 -122.705)" fill="#fff"/>
  </g>
  <g id="Group_104" data-name="Group 104" transform="translate(122.04 340.775)">
    <circle id="Ellipse_52" data-name="Ellipse 52" cx="3.21" cy="3.21" r="3.21" fill="#fff"/>
  </g>
  <g id="Group_105" data-name="Group 105" transform="translate(123.813 319.733)">
    <path id="Path_63" data-name="Path 63" d="M132.682,116.528v5.617l5.617-.089-.089-5.528Z" transform="translate(-132.682 -116.528)" fill="#fff"/>
  </g>
  <g id="Group_106" data-name="Group 106" transform="translate(166.587 335.961)">
    <circle id="Ellipse_53" data-name="Ellipse 53" cx="3.21" cy="3.21" r="3.21" fill="#fff"/>
  </g>
  <g id="Group_107" data-name="Group 107" transform="translate(178.01 328.114)">
    <path id="Path_64" data-name="Path 64" d="M155.525,120.889l-5.26-1.962-1.962,5.261,5.26,1.962Z" transform="translate(-148.303 -118.927)" fill="#fff"/>
  </g>
  <g id="Group_108" data-name="Group 108" transform="translate(146.926 359.143)">
    <circle id="Ellipse_54" data-name="Ellipse 54" cx="3.21" cy="3.21" r="3.21" fill="#fff"/>
  </g>
  <g id="Group_109" data-name="Group 109" transform="translate(160.742 354.06)">
    <circle id="Ellipse_55" data-name="Ellipse 55" cx="3.21" cy="3.21" r="3.21" fill="#fff"/>
  </g>
  <g id="Group_110" data-name="Group 110" transform="translate(170.839 345.144)">
    <circle id="Ellipse_56" data-name="Ellipse 56" cx="3.21" cy="3.21" r="3.21" fill="#fff"/>
  </g>
  <g id="Group_111" data-name="Group 111" transform="translate(191.562 343.183)">
    <path id="Path_65" data-name="Path 65" d="M153.189,129.75l5.439-.981-.981-5.528-5.439.981Z" transform="translate(-152.208 -123.241)" fill="#fff"/>
  </g>
  <g id="Group_112" data-name="Group 112" transform="translate(170.661 301.723)">
    <circle id="Ellipse_57" data-name="Ellipse 57" cx="3.21" cy="3.21" r="3.21" fill="#fff"/>
  </g>
  <g id="Group_113" data-name="Group 113" transform="translate(154.899 260.619)">
    <path id="Path_66" data-name="Path 66" d="M147.258,99.606l-5.617.089.089,5.528h5.617Z" transform="translate(-141.641 -99.606)" fill="#fff"/>
  </g>
  <g id="Group_114" data-name="Group 114" transform="translate(138.424 267.217)">
    <circle id="Ellipse_58" data-name="Ellipse 58" cx="3.21" cy="3.21" r="3.21" fill="#fff"/>
  </g>
  <g id="Group_115" data-name="Group 115" transform="translate(191.738 300.207)">
    <path id="Path_67" data-name="Path 67" d="M159.3,116.2l-1.783-5.26-5.261,1.783,1.783,5.261Z" transform="translate(-152.259 -110.938)" fill="#fff"/>
  </g>
  <g id="Group_116" data-name="Group 116" transform="translate(205.644 283.623)">
    <circle id="Ellipse_59" data-name="Ellipse 59" cx="3.21" cy="3.21" r="3.21" fill="#fff"/>
  </g>
  <g id="Group_117" data-name="Group 117" transform="translate(206.527 253.754)">
    <path id="Path_68" data-name="Path 68" d="M163.565,99.246l-5.35-1.6-1.694,5.35,5.35,1.6Z" transform="translate(-156.521 -97.641)" fill="#fff"/>
  </g>
  <g id="Group_118" data-name="Group 118" transform="translate(163.931 257.855)">
    <circle id="Ellipse_60" data-name="Ellipse 60" cx="3.21" cy="3.21" r="3.21" fill="#fff"/>
  </g>
  <g id="Group_119" data-name="Group 119" transform="translate(184.474 260.887)">
    <path id="Path_69" data-name="Path 69" d="M157.834,104.5l-2.853-4.815-4.815,2.853,2.853,4.815Z" transform="translate(-150.166 -99.682)" fill="#fff"/>
  </g>
  <g id="Group_120" data-name="Group 120" transform="translate(207.061 229.234)">
    <circle id="Ellipse_61" data-name="Ellipse 61" cx="3.21" cy="3.21" r="3.21" fill="#fff"/>
  </g>
  <g id="Group_121" data-name="Group 121" transform="translate(207.856 239.488)">
    <path id="Path_70" data-name="Path 70" d="M156.9,98.906l5.35,1.6,1.6-5.35-5.35-1.6Z" transform="translate(-156.904 -93.557)" fill="#fff"/>
  </g>
  <g id="Group_122" data-name="Group 122" transform="translate(220.7 283.623)">
    <circle id="Ellipse_62" data-name="Ellipse 62" cx="3.21" cy="3.21" r="3.21" fill="#fff"/>
  </g>
  <g id="Group_123" data-name="Group 123" transform="translate(219.281 253.754)">
    <path id="Path_71" data-name="Path 71" d="M165.457,97.641l-5.26,1.6,1.6,5.35,5.35-1.6Z" transform="translate(-160.197 -97.641)" fill="#fff"/>
  </g>
  <g id="Group_124" data-name="Group 124" transform="translate(219.283 229.234)">
    <circle id="Ellipse_63" data-name="Ellipse 63" cx="3.21" cy="3.21" r="3.21" fill="#fff"/>
  </g>
  <g id="Group_125" data-name="Group 125" transform="translate(217.952 239.488)">
    <path id="Path_72" data-name="Path 72" d="M161.508,100.511l5.26-1.6-1.6-5.35-5.35,1.6Z" transform="translate(-159.814 -93.557)" fill="#fff"/>
  </g>
  <g id="Group_126" data-name="Group 126" transform="translate(239.743 324.994)">
    <path id="Path_73" data-name="Path 73" d="M166.182,123.651H171.8l-.089-5.617-5.617.089" transform="translate(-166.093 -118.034)" fill="#fff"/>
  </g>
  <g id="Group_127" data-name="Group 127" transform="translate(208.655 323.924)">
    <path id="Path_74" data-name="Path 74" d="M162.662,117.728l-5.528.8.8,5.528,5.528-.8Z" transform="translate(-157.134 -117.728)" fill="#fff"/>
  </g>
  <g id="Group_128" data-name="Group 128" transform="translate(200.946 327.312)">
    <path id="Path_75" data-name="Path 75" d="M159.728,118.7l-4.815,2.853,2.853,4.726,4.815-2.764Z" transform="translate(-154.913 -118.698)" fill="#fff"/>
  </g>
  <g id="Group_129" data-name="Group 129" transform="translate(323.61 322.765)">
    <circle id="Ellipse_64" data-name="Ellipse 64" cx="3.21" cy="3.21" r="3.21" fill="#fff"/>
  </g>
  <g id="Group_130" data-name="Group 130" transform="translate(286.769 341.31)">
    <path id="Path_76" data-name="Path 76" d="M180.092,128.768l5.617-.446-.535-5.617-5.528.446Z" transform="translate(-179.646 -122.705)" fill="#fff"/>
  </g>
  <g id="Group_131" data-name="Group 131" transform="translate(304.303 340.775)">
    <circle id="Ellipse_65" data-name="Ellipse 65" cx="3.21" cy="3.21" r="3.21" fill="#fff"/>
  </g>
  <g id="Group_132" data-name="Group 132" transform="translate(303.422 319.733)">
    <path id="Path_77" data-name="Path 77" d="M189.972,122.145v-5.617h-5.528v5.528Z" transform="translate(-184.444 -116.528)" fill="#fff"/>
  </g>
  <g id="Group_133" data-name="Group 133" transform="translate(259.845 335.961)">
    <circle id="Ellipse_66" data-name="Ellipse 66" cx="3.21" cy="3.21" r="3.21" fill="#fff"/>
  </g>
  <g id="Group_134" data-name="Group 134" transform="translate(247.531 328.114)">
    <path id="Path_78" data-name="Path 78" d="M173.6,118.927l-5.261,1.962,1.962,5.26,5.261-1.962Z" transform="translate(-168.339 -118.927)" fill="#fff"/>
  </g>
  <g id="Group_135" data-name="Group 135" transform="translate(279.417 359.143)">
    <circle id="Ellipse_67" data-name="Ellipse 67" cx="3.21" cy="3.21" r="3.21" fill="#fff"/>
  </g>
  <g id="Group_136" data-name="Group 136" transform="translate(217.777 323.924)">
    <path id="Path_79" data-name="Path 79" d="M166.093,118.53l-5.528-.8-.8,5.528,5.528.8Z" transform="translate(-159.763 -117.728)" fill="#fff"/>
  </g>
  <g id="Group_137" data-name="Group 137" transform="translate(265.69 354.06)">
    <circle id="Ellipse_68" data-name="Ellipse 68" cx="3.21" cy="3.21" r="3.21" fill="#fff"/>
  </g>
  <g id="Group_138" data-name="Group 138" transform="translate(224.149 327.312)">
    <path id="Path_80" data-name="Path 80" d="M169.268,121.551l-4.815-2.853-2.853,4.815,4.815,2.764Z" transform="translate(-161.601 -118.698)" fill="#fff"/>
  </g>
  <g id="Group_139" data-name="Group 139" transform="translate(255.594 345.144)">
    <circle id="Ellipse_69" data-name="Ellipse 69" cx="3.21" cy="3.21" r="3.21" fill="#fff"/>
  </g>
  <g id="Group_140" data-name="Group 140" transform="translate(234.781 343.183)">
    <path id="Path_81" data-name="Path 81" d="M164.664,128.769l5.528.981.981-5.528-5.528-.981Z" transform="translate(-164.664 -123.241)" fill="#fff"/>
  </g>
  <g id="Group_141" data-name="Group 141" transform="translate(184.743 97.632)">
    <circle id="Ellipse_70" data-name="Ellipse 70" cx="3.21" cy="3.21" r="3.21" fill="#fff"/>
  </g>
  <g id="Group_142" data-name="Group 142" transform="translate(140.015 123.132)">
    <path id="Path_82" data-name="Path 82" d="M137.353,64.261l4.1,3.923,3.834-4.1-4.1-3.834Z" transform="translate(-137.353 -60.248)" fill="#fff"/>
  </g>
  <g id="Group_143" data-name="Group 143" transform="translate(158.263 100.485)">
    <circle id="Ellipse_71" data-name="Ellipse 71" cx="3.21" cy="3.21" r="3.21" fill="#fff"/>
  </g>
  <g id="Group_144" data-name="Group 144" transform="translate(196.34 108.955)">
    <path id="Path_83" data-name="Path 83" d="M161.522,59.667l-4.369-3.477-3.566,4.28,4.369,3.566Z" transform="translate(-153.586 -56.19)" fill="#fff"/>
  </g>
  <g id="Group_145" data-name="Group 145" transform="translate(180.492 124.826)">
    <circle id="Ellipse_72" data-name="Ellipse 72" cx="3.21" cy="3.21" r="3.21" fill="#fff"/>
  </g>
  <g id="Group_146" data-name="Group 146" transform="translate(206.883 139.538)">
    <path id="Path_84" data-name="Path 84" d="M158.05,71.81l5.35-1.427-1.427-5.439-5.35,1.427Z" transform="translate(-156.623 -64.945)" fill="#fff"/>
  </g>
  <g id="Group_147" data-name="Group 147" transform="translate(71.418 137.13)">
    <circle id="Ellipse_73" data-name="Ellipse 73" cx="3.21" cy="3.21" r="3.21" fill="#fff"/>
  </g>
  <g id="Group_148" data-name="Group 148" transform="translate(97.507 99.148)">
    <path id="Path_85" data-name="Path 85" d="M130.451,60.337l1.6-5.35-5.35-1.6-1.6,5.26Z" transform="translate(-125.102 -53.382)" fill="#fff"/>
  </g>
  <g id="Group_149" data-name="Group 149" transform="translate(104.682 107.172)">
    <circle id="Ellipse_74" data-name="Ellipse 74" cx="3.21" cy="3.21" r="3.21" fill="#fff"/>
  </g>
  <g id="Group_150" data-name="Group 150" transform="translate(100.165 138.735)">
    <path id="Path_86" data-name="Path 86" d="M131.4,71.224l.981-5.439-5.439-1.07-1.07,5.528Z" transform="translate(-125.867 -64.715)" fill="#fff"/>
  </g>
  <g id="Group_152" data-name="Group 152" transform="translate(105.567 130.265)">
    <g id="Group_151" data-name="Group 151">
      <circle id="Ellipse_75" data-name="Ellipse 75" cx="3.21" cy="3.21" r="3.21" fill="#fff"/>
    </g>
  </g>
  <g id="Group_153" data-name="Group 153" transform="translate(137.627 140.964)">
    <circle id="Ellipse_76" data-name="Ellipse 76" cx="3.21" cy="3.21" r="3.21" fill="#fff"/>
  </g>
  <g id="Group_154" data-name="Group 154" transform="translate(101.934 118.585)">
    <path id="Path_87" data-name="Path 87" d="M126.378,62.691l3.745,4.191,4.191-3.745-3.745-4.191Z" transform="translate(-126.378 -58.947)" fill="#fff"/>
  </g>
  <g id="Group_155" data-name="Group 155" transform="translate(122.217 105.211)">
    <circle id="Ellipse_77" data-name="Ellipse 77" cx="3.21" cy="3.21" r="3.21" fill="#fff"/>
  </g>
  <g id="Group_156" data-name="Group 156" transform="translate(117.964 80.959)">
    <path id="Path_88" data-name="Path 88" d="M134.386,48.176,131,52.634l4.458,3.3,3.388-4.458Z" transform="translate(-130.998 -48.176)" fill="#fff"/>
  </g>
  <g id="Group_157" data-name="Group 157" transform="translate(105.833 93.085)">
    <circle id="Ellipse_78" data-name="Ellipse 78" cx="3.21" cy="3.21" r="3.21" fill="#fff"/>
  </g>
  <g id="Group_158" data-name="Group 158" transform="translate(90.512 93.709)">
    <circle id="Ellipse_79" data-name="Ellipse 79" cx="3.21" cy="3.21" r="3.21" fill="#fff"/>
  </g>
  <g id="Group_159" data-name="Group 159" transform="translate(94.761 79.8)">
    <path id="Path_89" data-name="Path 89" d="M131.978,50.608l-4.815-2.764-2.853,4.815,4.815,2.764Z" transform="translate(-124.31 -47.844)" fill="#fff"/>
  </g>
  <g id="Group_160" data-name="Group 160" transform="translate(106.896 63.216)">
    <circle id="Ellipse_80" data-name="Ellipse 80" cx="3.21" cy="3.21" r="3.21" fill="#fff"/>
  </g>
  <g id="Group_161" data-name="Group 161" transform="translate(206.616 118.228)">
    <path id="Path_90" data-name="Path 90" d="M156.547,64.194l5.35,1.694,1.694-5.261-5.35-1.783Z" transform="translate(-156.547 -58.844)" fill="#fff"/>
  </g>
  <g id="Group_162" data-name="Group 162" transform="translate(239.912 51.535)">
    <path id="Path_91" data-name="Path 91" d="M166.144,43.5l3.745,4.1,4.191-3.656-3.745-4.191Z" transform="translate(-166.144 -39.753)" fill="#fff"/>
  </g>
  <g id="Group_163" data-name="Group 163" transform="translate(252.051 55.548)">
    <circle id="Ellipse_81" data-name="Ellipse 81" cx="3.21" cy="3.21" r="3.21" fill="#fff"/>
  </g>
  <g id="Group_164" data-name="Group 164" transform="translate(285.438 86.932)">
    <path id="Path_92" data-name="Path 92" d="M179.263,55.325l5.439,1.248,1.248-5.528-5.439-1.159Z" transform="translate(-179.263 -49.886)" fill="#fff"/>
  </g>
  <g id="Group_165" data-name="Group 165" transform="translate(238.678 84.703)">
    <circle id="Ellipse_82" data-name="Ellipse 82" cx="3.21" cy="3.21" r="3.21" fill="#fff"/>
  </g>
  <g id="Group_166" data-name="Group 166" transform="translate(275.514 80.602)">
    <path id="Path_93" data-name="Path 93" d="M180.952,55.831l3.3-4.458-4.458-3.3L176.4,52.532Z" transform="translate(-176.404 -48.073)" fill="#fff"/>
  </g>
  <g id="Group_167" data-name="Group 167" transform="translate(246.561 69.368)">
    <path id="Path_94" data-name="Path 94" d="M168.5,50.831l5.617-.446-.446-5.528-5.617.446Z" transform="translate(-168.058 -44.857)" fill="#fff"/>
  </g>
  <g id="Group_168" data-name="Group 168" transform="translate(241.6 97.632)">
    <circle id="Ellipse_83" data-name="Ellipse 83" cx="3.21" cy="3.21" r="3.21" fill="#fff"/>
  </g>
  <g id="Group_169" data-name="Group 169" transform="translate(284.813 123.132)">
    <path id="Path_95" data-name="Path 95" d="M183.008,68.184l4.012-3.923-3.834-4.012-4.1,3.834Z" transform="translate(-179.084 -60.248)" fill="#fff"/>
  </g>
  <g id="Group_170" data-name="Group 170" transform="translate(268.081 100.485)">
    <circle id="Ellipse_84" data-name="Ellipse 84" cx="3.21" cy="3.21" r="3.21" fill="#fff"/>
  </g>
  <g id="Group_171" data-name="Group 171" transform="translate(228.577 108.955)">
    <path id="Path_96" data-name="Path 96" d="M167.157,56.19l-4.28,3.477,3.477,4.369,4.369-3.566Z" transform="translate(-162.877 -56.19)" fill="#fff"/>
  </g>
  <g id="Group_172" data-name="Group 172" transform="translate(245.852 124.826)">
    <circle id="Ellipse_85" data-name="Ellipse 85" cx="3.21" cy="3.21" r="3.21" fill="#fff"/>
  </g>
  <g id="Group_173" data-name="Group 173" transform="translate(219.104 139.538)">
    <path id="Path_97" data-name="Path 97" d="M160.146,70.384l5.439,1.427,1.337-5.439-5.35-1.427Z" transform="translate(-160.146 -64.945)" fill="#fff"/>
  </g>
  <g id="Group_174" data-name="Group 174" transform="translate(354.899 137.13)">
    <circle id="Ellipse_86" data-name="Ellipse 86" cx="3.21" cy="3.21" r="3.21" fill="#fff"/>
  </g>
  <g id="Group_175" data-name="Group 175" transform="translate(321.662 107.172)">
    <circle id="Ellipse_87" data-name="Ellipse 87" cx="3.21" cy="3.21" r="3.21" fill="#fff"/>
  </g>
  <g id="Group_176" data-name="Group 176" transform="translate(326.089 138.735)">
    <path id="Path_98" data-name="Path 98" d="M190.978,65.785l.981,5.439,5.528-.981-1.07-5.528Z" transform="translate(-190.978 -64.715)" fill="#fff"/>
  </g>
  <g id="Group_178" data-name="Group 178" transform="translate(320.776 130.265)">
    <g id="Group_177" data-name="Group 177">
      <circle id="Ellipse_88" data-name="Ellipse 88" cx="3.21" cy="3.21" r="3.21" fill="#fff"/>
    </g>
  </g>
  <g id="Group_179" data-name="Group 179" transform="translate(288.716 140.964)">
    <circle id="Ellipse_89" data-name="Ellipse 89" cx="3.21" cy="3.21" r="3.21" fill="#fff"/>
  </g>
  <g id="Group_180" data-name="Group 180" transform="translate(322.894 118.585)">
    <path id="Path_99" data-name="Path 99" d="M194.25,66.882,198,62.691,193.8,58.947l-3.745,4.191Z" transform="translate(-190.06 -58.947)" fill="#fff"/>
  </g>
  <g id="Group_181" data-name="Group 181" transform="translate(304.126 105.211)">
    <circle id="Ellipse_90" data-name="Ellipse 90" cx="3.21" cy="3.21" r="3.21" fill="#fff"/>
  </g>
  <g id="Group_182" data-name="Group 182" transform="translate(306.953 80.959)">
    <path id="Path_100" data-name="Path 100" d="M193.312,52.634l-3.3-4.458-4.547,3.3,3.388,4.458Z" transform="translate(-185.465 -48.176)" fill="#fff"/>
  </g>
  <g id="Group_183" data-name="Group 183" transform="translate(320.51 93.085)">
    <circle id="Ellipse_91" data-name="Ellipse 91" cx="3.21" cy="3.21" r="3.21" fill="#fff"/>
  </g>
  <g id="Group_184" data-name="Group 184" transform="translate(288.093 79.532)">
    <path id="Path_101" data-name="Path 101" d="M180.029,49.461l1.694,5.261,5.35-1.6-1.694-5.35Z" transform="translate(-180.029 -47.767)" fill="#fff"/>
  </g>
  <g id="Group_185" data-name="Group 185" transform="translate(335.832 93.709)">
    <circle id="Ellipse_92" data-name="Ellipse 92" cx="3.21" cy="3.21" r="3.21" fill="#fff"/>
  </g>
  <g id="Group_186" data-name="Group 186" transform="translate(330.334 79.8)">
    <path id="Path_102" data-name="Path 102" d="M197.018,47.844,192.2,50.608l2.853,4.815,4.815-2.764Z" transform="translate(-192.204 -47.844)" fill="#fff"/>
  </g>
  <g id="Group_187" data-name="Group 187" transform="translate(219.103 118.228)">
    <path id="Path_103" data-name="Path 103" d="M161.84,65.888l5.35-1.694-1.694-5.35-5.35,1.783Z" transform="translate(-160.146 -58.844)" fill="#fff"/>
  </g>
  <g id="Group_188" data-name="Group 188" transform="translate(328.301 99.148)">
    <path id="Path_104" data-name="Path 104" d="M191.617,54.987l1.6,5.35,5.35-1.694-1.6-5.26Z" transform="translate(-191.617 -53.382)" fill="#fff"/>
  </g>
</svg>
