<svg id="Group_808" data-name="Group 808" xmlns="http://www.w3.org/2000/svg" width="156.18" height="14" viewBox="0 0 156.18 14">
  <g id="Group_1" data-name="Group 1">
    <path id="Path_1" data-name="Path 1" d="M111.064,83.719c0,2.424-1.785,3.636-5.39,3.636h-3.316a7.82,7.82,0,0,1-3.445-.637,3.086,3.086,0,0,1-1.913-3v-6.25c0-2.456,1.785-3.668,5.39-3.668h3.316a8.492,8.492,0,0,1,3.54.511,3.126,3.126,0,0,1,1.849,3.157v6.25Zm-2.137-.064V77.533c0-1.148-1.085-1.723-3.221-1.723h-3.349q-3.254,0-3.252,1.723v6.122c0,1.117,1.083,1.658,3.252,1.658h3.381C107.875,85.313,108.927,84.772,108.927,83.655Z" transform="translate(-97 -73.642)" fill="#fff"/>
    <path id="Path_2" data-name="Path 2" d="M123.832,85.907c0,1.021-.382,1.563-1.181,1.563a1.875,1.875,0,0,1-1.211-.67l-9.887-9.823v9.536a.8.8,0,0,1-.446.828c-.1,0-.224.032-.351.032s-.351.032-.542.032c-.51,0-.733-.287-.733-.893V75.192c0-.988.351-1.467,1.084-1.467a2.036,2.036,0,0,1,1.4.7l9.791,9.7v-9.44a.8.8,0,0,1,.446-.83c.1,0,.224-.032.351-.032.159,0,.351-.031.542-.031q.765,0,.765.861V85.907Z" transform="translate(-93.887 -73.661)" fill="#fff"/>
    <path id="Path_3" data-name="Path 3" d="M135.107,86.488c0,.574-.255.893-.733.893h-6.793a10.88,10.88,0,0,1-3.635-.479,3.04,3.04,0,0,1-2.009-3.094V74.688c0-.574.255-.861.733-.861a4.672,4.672,0,0,1,.925.064c.319.1.446.382.446.8v9.121c0,.7.479,1.179,1.467,1.4a9.569,9.569,0,0,0,2.169.16h6.7C134.884,85.307,135.107,85.69,135.107,86.488Z" transform="translate(-91.004 -73.636)" fill="#fff"/>
    <path id="Path_4" data-name="Path 4" d="M135.725,86.5c0,.573-.255.893-.733.893a2.542,2.542,0,0,1-.542-.032,1.539,1.539,0,0,0-.351-.033c-.319-.095-.446-.382-.446-.828V74.669a.8.8,0,0,1,.446-.83c.064,0,.192-.032.32-.032.159,0,.35-.031.606-.031.51,0,.733.287.733.861V86.5Z" transform="translate(-88.164 -73.649)" fill="#fff"/>
    <path id="Path_5" data-name="Path 5" d="M150.938,85.907c0,1.021-.382,1.563-1.179,1.563a1.875,1.875,0,0,1-1.212-.67l-9.887-9.823v9.536a.8.8,0,0,1-.446.828c-.1,0-.224.032-.351.032s-.35.032-.542.032c-.51,0-.733-.287-.733-.893V75.192c0-.988.351-1.467,1.085-1.467a2.036,2.036,0,0,1,1.4.7l9.791,9.7v-9.44a.8.8,0,0,1,.446-.83c.1,0,.224-.032.351-.032.16,0,.351-.031.542-.031q.765,0,.766.861V85.907Z" transform="translate(-87.485 -73.661)" fill="#fff"/>
    <path id="Path_6" data-name="Path 6" d="M162.131,80.562c0,.733-.256,1.085-.8,1.085H151.129v2.233c0,.957.893,1.434,2.71,1.434h7.5c.51,0,.733.287.733.893,0,.766-.256,1.148-.733,1.148h-7.59a6.551,6.551,0,0,1-3.061-.7,2.867,2.867,0,0,1-1.691-2.71v-6.7a2.893,2.893,0,0,1,.574-1.754c.83-1.116,2.264-1.691,4.369-1.691h2.073c.479,0,.733.384.733,1.148,0,.575-.255.893-.733.893h-.733a1.653,1.653,0,0,1-.415-.033h-.286c-2.329,0-3.477.479-3.477,1.467v2.36h10.269C161.875,79.606,162.131,79.925,162.131,80.562Z" transform="translate(-84.5 -73.642)" fill="#fff"/>
    <path id="Path_7" data-name="Path 7" d="M166.992,86.5c0,.573-.255.893-.733.893a2.542,2.542,0,0,1-.542-.032,1.538,1.538,0,0,0-.351-.033c-.319-.095-.446-.382-.446-.828V74.669a.8.8,0,0,1,.446-.83c.064,0,.191-.032.319-.032.16,0,.351-.031.606-.031.511,0,.733.287.733.861V86.5Z" transform="translate(-80.627 -73.649)" fill="#fff"/>
    <path id="Path_8" data-name="Path 8" d="M180.692,86.488c0,.574-.255.893-.733.893h-6.792a10.883,10.883,0,0,1-3.636-.479,3.04,3.04,0,0,1-2.009-3.094V74.688c0-.574.255-.861.733-.861a4.673,4.673,0,0,1,.925.064c.32.1.447.382.447.8v9.121c0,.7.479,1.179,1.467,1.4a9.547,9.547,0,0,0,2.168.16h6.7C180.438,85.307,180.692,85.69,180.692,86.488Z" transform="translate(-80.045 -73.636)" fill="#fff"/>
    <path id="Path_9" data-name="Path 9" d="M181.311,86.5c0,.573-.256.893-.733.893a2.542,2.542,0,0,1-.542-.032,1.538,1.538,0,0,0-.351-.033c-.319-.095-.446-.382-.446-.828V74.669a.8.8,0,0,1,.446-.83c.064,0,.191-.032.319-.032.16,0,.351-.031.606-.031.51,0,.733.287.733.861V86.5Z" transform="translate(-77.175 -73.649)" fill="#fff"/>
    <path id="Path_10" data-name="Path 10" d="M198.106,86.462a1.277,1.277,0,0,1-.287.861.953.953,0,0,1-.733.351A1.116,1.116,0,0,1,196.1,87l-1.882-3.19h-8.93L183.4,87c-.191.35-.415.51-.67.51a1.169,1.169,0,0,1-.67-.255.792.792,0,0,1-.351-.67.469.469,0,0,1,.064-.224l6.7-11.958a1.5,1.5,0,0,1,1.4-.733.985.985,0,0,1,.99.479c0,.031.031.064.031.095a.55.55,0,0,0,.064.16l7.112,11.736A.7.7,0,0,1,198.106,86.462Zm-5.135-4.688-3.221-5.549-3.221,5.549Z" transform="translate(-76.65 -73.674)" fill="#fff"/>
    <path id="Path_11" data-name="Path 11" d="M210,83.534c0,2.584-2.105,3.86-6.346,3.86h-.479a5.086,5.086,0,0,1-.67-.032,4.2,4.2,0,0,1-.67-.033,2.425,2.425,0,0,0-.479,0c-2.966,0-4.784-.637-5.389-1.944a4.28,4.28,0,0,1-.32-1.85V74.669c0-.575.255-.862.733-.862a5.076,5.076,0,0,1,.926.064.738.738,0,0,1,.477.8v8.706a1.7,1.7,0,0,0,1.339,1.722,5.912,5.912,0,0,0,.957.159c.351.032.8.064,1.308.064h2.934a6.9,6.9,0,0,0,2.232-.222,1.7,1.7,0,0,0,1.339-1.722V74.637c0-.446.16-.7.447-.8a4.431,4.431,0,0,1,.925-.064c.51,0,.733.287.733.861Z" transform="translate(-73.432 -73.649)" fill="#fff"/>
    <path id="Path_12" data-name="Path 12" d="M222.762,85.907c0,1.021-.382,1.563-1.181,1.563a1.875,1.875,0,0,1-1.211-.67l-9.887-9.823v9.536a.8.8,0,0,1-.446.828c-.1,0-.224.032-.351.032-.16,0-.351.032-.542.032-.51,0-.733-.287-.733-.893V75.192c0-.988.351-1.467,1.085-1.467a2.036,2.036,0,0,1,1.4.7l9.791,9.7v-9.44a.8.8,0,0,1,.446-.83c.1,0,.224-.032.351-.032.16,0,.351-.031.542-.031q.765,0,.765.861V85.907Z" transform="translate(-70.249 -73.661)" fill="#fff"/>
    <path id="Path_13" data-name="Path 13" d="M223.221,86.5c0,.573-.256.893-.735.893a2.535,2.535,0,0,1-.541-.032,1.544,1.544,0,0,0-.351-.033c-.319-.095-.447-.382-.447-.828V74.669a.8.8,0,0,1,.447-.83c.064,0,.191-.032.319-.032.16,0,.351-.031.606-.031.51,0,.733.287.733.861V86.5Z" transform="translate(-67.072 -73.649)" fill="#fff"/>
  </g>
</svg>
