<svg xmlns="http://www.w3.org/2000/svg" width="27.202" height="27" viewBox="0 0 27.202 27">
  <g id="Group_192" data-name="Group 192" transform="translate(-798.756 -1098.413)" opacity="0.4">
    <path id="Path_113" data-name="Path 113" d="M823.2,1098.929l-8.852-.016h-.006a2.235,2.235,0,0,0-1.588.658l-12.489,12.484a2.794,2.794,0,0,0,0,3.936l8.108,8.109a2.79,2.79,0,0,0,3.937,0l12.489-12.489a2.273,2.273,0,0,0,.658-1.594l-.016-8.847A2.248,2.248,0,0,0,823.2,1098.929Zm.69,11.773L811.4,1123.191a1.5,1.5,0,0,1-2.118,0l-8.109-8.109a1.5,1.5,0,0,1,0-2.118l12.489-12.489a.959.959,0,0,1,.679-.278h0l8.847.016a.964.964,0,0,1,.963.957l.016,8.847A.942.942,0,0,1,823.891,1110.7Z" fill="#e2e2f7" stroke="#707070" stroke-width="1"/>
    <path id="Path_114" data-name="Path 114" d="M816.954,1104.829a2.558,2.558,0,0,0-1.83.759,2.587,2.587,0,1,0,4.418,1.829,2.591,2.591,0,0,0-2.588-2.588Zm.92,3.508a1.305,1.305,0,0,1-1.846-1.845,1.3,1.3,0,0,1,2.22.92A1.276,1.276,0,0,1,817.874,1108.337Z" fill="#e2e2f7" stroke="#707070" stroke-width="1"/>
  </g>
</svg>
