<svg xmlns="http://www.w3.org/2000/svg" width="25" height="20.318" viewBox="0 0 25 20.318">
  <g id="Group_265" data-name="Group 265" transform="translate(-197.928 -488.054)">
    <path id="Path_662" data-name="Path 662" d="M220.368,493.114q.015.33.015.664a14.586,14.586,0,0,1-22.455,12.289,10.5,10.5,0,0,0,1.223.072,10.289,10.289,0,0,0,6.37-2.2,5.133,5.133,0,0,1-4.791-3.562,5.139,5.139,0,0,0,2.316-.088,5.132,5.132,0,0,1-4.114-5.029V495.2a5.119,5.119,0,0,0,2.323.642,5.137,5.137,0,0,1-1.587-6.848,14.563,14.563,0,0,0,10.572,5.359,5.132,5.132,0,0,1,8.74-4.678,10.267,10.267,0,0,0,3.257-1.245,5.145,5.145,0,0,1-2.255,2.838,10.261,10.261,0,0,0,2.946-.808A10.441,10.441,0,0,1,220.368,493.114Z" fill="#fff"/>
  </g>
</svg>
