<svg xmlns="http://www.w3.org/2000/svg" width="38" height="35.571" viewBox="0 0 38 35.571">
  <g id="Group_653" data-name="Group 653" transform="translate(-1455 -1794)">
    <g id="icon-lock" transform="translate(1463.414 1811.393)">
      <path id="Path_120" data-name="Path 120" d="M455.992,1552.39a4.6,4.6,0,0,0-3.94-.868,4.579,4.579,0,0,0-1.664,8.117v2.771a2.753,2.753,0,0,0,5.506,0v-2.771a4.572,4.572,0,0,0,.1-7.249Zm-1.479,5.963a.921.921,0,0,0-.456.794v3.261a.919.919,0,1,1-1.837,0v-3.261a.919.919,0,0,0-.456-.794,2.744,2.744,0,0,1,.7-5.044,2.758,2.758,0,0,1,3.426,2.675A2.717,2.717,0,0,1,454.513,1558.353Z" transform="translate(-448.555 -1551.396)" fill="#fff"/>
    </g>
    <g id="Group_650" data-name="Group 650" transform="translate(-758.715 -599.748)">
      <path id="Path_3049" data-name="Path 3049" d="M2237.162,2409.692h-21.021a2.429,2.429,0,0,0-2.426,2.425v15.362a2.43,2.43,0,0,0,2.426,2.426h21.021a2.43,2.43,0,0,0,2.426-2.426v-15.362A2.429,2.429,0,0,0,2237.162,2409.692Zm-3.235,0h-14.552m18.594,17.787a.811.811,0,0,1-.809.809h-21.02a.81.81,0,0,1-.809-.809v-15.362a.809.809,0,0,1,.809-.808h21.021a.809.809,0,0,1,.809.808v15.362Z" transform="translate(0 -0.585)" fill="#fff"/>
      <g id="Group_649" data-name="Group 649" transform="translate(2233.927 2393.748)">
        <path id="Path_3052" data-name="Path 3052" d="M2243.592,2393.748a8.9,8.9,0,0,0-8.9,8.893v6.468h1.616v-6.468a7.276,7.276,0,0,1,14.553,0v6.467h1.618v-6.468A8.9,8.9,0,0,0,2243.592,2393.748Z" transform="translate(-2234.697 -2393.748)" fill="#fff"/>
      </g>
    </g>
  </g>
</svg>
